<svg width="61" height="50" viewBox="0 0 61 50" fill="none" xmlns="http://www.w3.org/2000/svg">
<circle cx="18" cy="25" r="18" fill="#29AD33"/>
<mask id="path-2-outside-1_58_3685" maskUnits="userSpaceOnUse" x="11" y="0" width="50" height="50" fill="black">
<rect fill="white" x="11" width="50" height="50"/>
<path d="M12.0025 41.1242C12.0814 40.7598 12.149 40.393 12.2416 40.0324C13.1168 36.6203 16.2443 34.3778 19.7613 34.6357C19.8852 34.6445 20.0092 34.6495 20.197 34.6608C20.1143 34.5381 20.0705 34.4504 20.0066 34.3816C19.1703 33.4738 18.3402 32.561 17.4863 31.6707C17.3436 31.5217 17.1007 31.4115 16.8929 31.389C15.4769 31.23 14.3964 30.0167 14.4126 28.5667C14.4289 27.1343 15.5082 25.9423 16.9179 25.8334C17.3824 25.7971 17.8519 25.8271 18.3477 25.8271C18.6282 23.4043 19.9303 22.037 22.3504 21.7728C22.9401 18.3683 24.9471 16.4876 28.4315 16.2009C28.886 14.6094 29.3404 13.008 29.7999 11.409C30.1167 10.3072 30.8829 9.87768 31.9822 10.1807C32.7021 10.3798 33.4208 10.5839 34.1845 10.798C34.957 8.21738 35.7195 5.66932 36.502 3.05616C35.9949 2.90465 35.5116 2.7569 35.0258 2.61416C34.6815 2.51274 34.4512 2.30489 34.3961 1.93927C34.2972 1.28442 34.838 0.857446 35.5504 1.04401C36.0325 1.17047 36.5057 1.33075 36.984 1.47223C37.9556 1.76022 38.9296 2.04069 39.8999 2.33244C40.4771 2.50648 40.7325 2.89839 40.5923 3.36418C40.4621 3.79616 39.9826 3.999 39.4292 3.84875C38.9822 3.72729 38.5365 3.59833 38.0482 3.46059C37.2732 6.04496 36.5082 8.59551 35.727 11.1987C35.9949 11.28 36.2541 11.3627 36.5157 11.4403C36.964 11.573 37.4159 11.697 37.8629 11.8347C38.8971 12.1528 39.3303 12.9341 39.0373 13.9733C38.6241 15.4433 38.1985 16.9096 37.7665 18.4209C39.1575 19.1934 40.1241 20.3316 40.5898 21.8742C41.1732 21.8742 41.7567 21.7928 42.3101 21.8892C44.1255 22.2022 45.3925 23.6084 45.5666 25.4402C45.5929 25.7219 45.683 25.8046 45.961 25.8133C46.7848 25.8371 47.6086 25.9022 48.4324 25.9235C48.5401 25.926 48.6979 25.7958 48.7529 25.6856C49.1799 24.853 49.5805 24.0078 50.0037 23.1726C50.1227 22.9385 50.2378 22.6317 50.4432 22.5253C51.3321 22.0608 51.575 20.9614 52.4527 20.5219C52.8032 20.3466 53.2214 20.2352 53.612 20.2239C54.9392 20.1876 56.2676 20.1989 57.5947 20.2139C58.9669 20.2289 60.0098 21.2857 59.9986 22.6242C59.9885 23.9339 58.9406 24.9819 57.5984 24.9982C56.4266 25.0132 55.2547 24.9732 54.084 25.0107C53.0248 25.0445 52.1434 24.7578 51.5086 23.7837C50.9803 24.8442 50.4695 25.8534 49.9824 26.8739C49.9324 26.9778 50.0025 27.1669 50.0651 27.2921C50.9628 29.0701 49.9524 31.0484 47.9817 31.384C47.8302 31.4103 47.6387 31.5393 47.571 31.6732C46.6721 33.4387 45.7869 35.2105 44.9118 36.9885C44.8279 37.16 44.8103 37.3779 44.8091 37.5745C44.8028 40.3704 44.8078 43.1664 44.8016 45.9624C44.8016 46.4282 44.7628 46.8939 44.7415 47.4036C44.9093 47.4036 45.0933 47.4036 45.2786 47.4036C48.2622 47.4036 51.2457 47.401 54.2293 47.4048C54.9917 47.4048 55.4337 48.0133 55.0844 48.5868C54.9842 48.7508 54.8002 48.8635 54.655 49C40.4371 49 26.2179 49 12 49C12 48.6557 12 48.3126 12 47.9695C12.2266 47.535 12.5809 47.3672 13.0705 47.3973C13.5663 47.4273 14.0646 47.4036 14.6393 47.4036C13.2007 45.9098 12.7149 45.181 12.3318 43.8864C12.1916 43.4131 12.1089 42.9222 12 42.4389C12 42.0019 12 41.5637 12 41.1267L12.0025 41.1242ZM19.4821 31.4115C19.5659 31.5292 19.5972 31.5831 19.6386 31.6282C21.9961 34.1712 24.3511 36.7155 26.7237 39.2435C26.8477 39.375 27.1431 39.4376 27.3334 39.4013C32.6044 38.3933 37.8717 37.3716 43.1377 36.3361C43.3142 36.3011 43.5233 36.1345 43.6072 35.973C44.3296 34.5731 45.0282 33.1608 45.7293 31.7509C45.7794 31.6507 45.8032 31.5368 45.8445 31.4115H19.4821ZM20.0442 25.7683H43.9853C43.9665 24.9381 43.6322 24.302 42.9787 23.8463C42.2249 23.3204 41.4236 23.259 40.5898 23.6685C39.796 24.0591 39.2965 23.7862 39.1813 22.9097C38.8846 20.6546 36.8375 19.0807 34.5964 19.4776C33.9466 19.5928 33.3369 19.9735 32.7309 20.2765C32.3928 20.4455 32.0823 20.5232 31.7656 20.3053C31.4513 20.0899 31.3136 19.7669 31.4726 19.4075C31.5991 19.122 31.4338 19.0081 31.2635 18.8704C29.9151 17.776 28.4089 17.4868 26.7926 18.1229C25.1549 18.7677 24.2623 20.0323 24.0156 21.7653C23.9818 22.0032 24.0381 22.1534 24.266 22.2924C24.6291 22.514 24.7267 22.8709 24.554 23.2703C24.3937 23.6434 23.9968 23.8075 23.5736 23.686C23.4397 23.6472 23.3132 23.5808 23.1805 23.537C21.623 23.0224 20.0217 24.1443 20.0442 25.767V25.7683ZM23.7715 47.366H39.3541C39.324 47.2859 39.3127 47.2408 39.2902 47.202C37.8692 44.7616 36.4444 42.3237 35.0296 39.8796C34.9019 39.6592 34.7717 39.6404 34.5376 39.6855C32.6082 40.0586 30.6751 40.413 28.7432 40.7774C27.9682 40.9239 27.1945 41.0791 26.4045 41.2344C26.4758 43.6898 25.6495 45.717 23.7715 47.3672V47.366ZM32.4454 27.4073C27.5112 27.4073 22.577 27.4073 17.6428 27.4073C17.44 27.4073 17.2359 27.4035 17.0344 27.4286C16.4609 27.4974 16.0428 27.9582 16.0165 28.5317C15.9814 29.3105 16.5085 29.7913 17.4125 29.7926C27.4061 29.7938 37.3997 29.7926 47.3933 29.7926C47.5185 29.7926 47.6437 29.7951 47.7676 29.7788C48.3648 29.7012 48.803 29.1815 48.7905 28.5743C48.778 27.9795 48.3511 27.4974 47.7626 27.4273C47.5623 27.4035 47.357 27.4073 47.1541 27.4073C42.2512 27.4073 37.3483 27.4073 32.4454 27.4073ZM24.4375 39.9647C23.8378 37.4204 20.7353 35.7176 17.9045 36.3549C15.0524 36.9972 13.1055 39.971 13.7303 42.7307C14.4089 45.7345 17.4162 47.6627 20.3685 46.9891C22.9589 46.3981 25.165 43.6647 24.7042 41.5887C24.3386 41.6551 23.973 41.734 23.6037 41.7841C23.3007 41.8254 23.1768 41.9406 23.1417 42.2812C22.9339 44.2783 21.1197 45.8409 19.1152 45.7871C17.1182 45.7332 15.5107 44.287 15.2164 42.2812C14.9485 40.4518 16.1079 38.6087 17.9095 38.0014C19.7713 37.3741 21.7645 38.1617 22.7098 39.8984C22.7749 40.0186 22.8437 40.1375 22.9163 40.2665C23.4384 40.1638 23.938 40.0649 24.4388 39.9647H24.4375ZM36.5683 39.2523C36.5783 39.3337 36.5733 39.3687 36.5884 39.3925C38.057 41.913 39.5231 44.4348 41.0005 46.9503C41.2634 47.3985 41.962 47.5601 42.6081 47.3672C43.0237 47.242 43.2065 46.9303 43.2065 46.3255C43.2065 43.7023 43.2065 41.0791 43.2065 38.4559C43.2065 38.3182 43.1952 38.1792 43.1852 37.9739C40.9554 38.4046 38.7606 38.8291 36.5683 39.2523ZM31.3762 11.6394C30.9543 13.147 30.5474 14.5994 30.143 16.0519C30.0804 16.2785 30.1317 16.4175 30.3934 16.5026C31.3286 16.8081 32.1312 17.334 32.821 18.0377C32.9012 18.1191 33.0752 18.2055 33.1591 18.1729C34.1707 17.776 35.2099 17.6859 36.3092 17.8649C36.7399 16.3624 37.1643 14.8874 37.5987 13.3723C36.82 13.1495 36.0813 12.9378 35.3213 12.72C35.1135 13.4124 34.9219 14.0535 34.7304 14.6933C34.5063 15.4371 34.0906 15.7463 33.551 15.5698C33.0527 15.4083 32.9212 14.9763 33.1416 14.2388C33.3306 13.604 33.5172 12.9679 33.7125 12.303C32.9037 12.0739 32.1612 11.8623 31.375 11.6394H31.3762ZM21.2449 40.5658C20.7378 39.5653 19.4608 39.1221 18.369 39.5415C17.2134 39.986 16.5824 41.2582 16.9292 42.4439C17.2798 43.6435 18.4416 44.3521 19.6924 44.1293C20.6928 43.9515 21.5779 43.0074 21.5041 42.1785C20.8004 42.3175 20.0993 42.4615 19.3957 42.5917C18.9637 42.6718 18.5994 42.4677 18.4516 42.0858C18.3064 41.7102 18.4279 41.3133 18.7847 41.1192C18.9575 41.0253 19.1628 40.9827 19.3594 40.9414C19.9841 40.8099 20.6101 40.691 21.2449 40.5658ZM55.5952 21.8078C54.9567 21.8078 54.3169 21.8016 53.6784 21.8103C53.1613 21.8178 52.812 22.1359 52.8007 22.5854C52.7894 23.0474 53.155 23.398 53.6909 23.4018C54.9692 23.4105 56.2463 23.4105 57.5246 23.4018C58.0367 23.398 58.3897 23.0662 58.401 22.6205C58.4123 22.1547 58.0517 21.8178 57.5121 21.8103C56.8735 21.8016 56.2337 21.8078 55.5952 21.8091V21.8078Z"/>
</mask>
<path d="M12.0025 41.1242C12.0814 40.7598 12.149 40.393 12.2416 40.0324C13.1168 36.6203 16.2443 34.3778 19.7613 34.6357C19.8852 34.6445 20.0092 34.6495 20.197 34.6608C20.1143 34.5381 20.0705 34.4504 20.0066 34.3816C19.1703 33.4738 18.3402 32.561 17.4863 31.6707C17.3436 31.5217 17.1007 31.4115 16.8929 31.389C15.4769 31.23 14.3964 30.0167 14.4126 28.5667C14.4289 27.1343 15.5082 25.9423 16.9179 25.8334C17.3824 25.7971 17.8519 25.8271 18.3477 25.8271C18.6282 23.4043 19.9303 22.037 22.3504 21.7728C22.9401 18.3683 24.9471 16.4876 28.4315 16.2009C28.886 14.6094 29.3404 13.008 29.7999 11.409C30.1167 10.3072 30.8829 9.87768 31.9822 10.1807C32.7021 10.3798 33.4208 10.5839 34.1845 10.798C34.957 8.21738 35.7195 5.66932 36.502 3.05616C35.9949 2.90465 35.5116 2.7569 35.0258 2.61416C34.6815 2.51274 34.4512 2.30489 34.3961 1.93927C34.2972 1.28442 34.838 0.857446 35.5504 1.04401C36.0325 1.17047 36.5057 1.33075 36.984 1.47223C37.9556 1.76022 38.9296 2.04069 39.8999 2.33244C40.4771 2.50648 40.7325 2.89839 40.5923 3.36418C40.4621 3.79616 39.9826 3.999 39.4292 3.84875C38.9822 3.72729 38.5365 3.59833 38.0482 3.46059C37.2732 6.04496 36.5082 8.59551 35.727 11.1987C35.9949 11.28 36.2541 11.3627 36.5157 11.4403C36.964 11.573 37.4159 11.697 37.8629 11.8347C38.8971 12.1528 39.3303 12.9341 39.0373 13.9733C38.6241 15.4433 38.1985 16.9096 37.7665 18.4209C39.1575 19.1934 40.1241 20.3316 40.5898 21.8742C41.1732 21.8742 41.7567 21.7928 42.3101 21.8892C44.1255 22.2022 45.3925 23.6084 45.5666 25.4402C45.5929 25.7219 45.683 25.8046 45.961 25.8133C46.7848 25.8371 47.6086 25.9022 48.4324 25.9235C48.5401 25.926 48.6979 25.7958 48.7529 25.6856C49.1799 24.853 49.5805 24.0078 50.0037 23.1726C50.1227 22.9385 50.2378 22.6317 50.4432 22.5253C51.3321 22.0608 51.575 20.9614 52.4527 20.5219C52.8032 20.3466 53.2214 20.2352 53.612 20.2239C54.9392 20.1876 56.2676 20.1989 57.5947 20.2139C58.9669 20.2289 60.0098 21.2857 59.9986 22.6242C59.9885 23.9339 58.9406 24.9819 57.5984 24.9982C56.4266 25.0132 55.2547 24.9732 54.084 25.0107C53.0248 25.0445 52.1434 24.7578 51.5086 23.7837C50.9803 24.8442 50.4695 25.8534 49.9824 26.8739C49.9324 26.9778 50.0025 27.1669 50.0651 27.2921C50.9628 29.0701 49.9524 31.0484 47.9817 31.384C47.8302 31.4103 47.6387 31.5393 47.571 31.6732C46.6721 33.4387 45.7869 35.2105 44.9118 36.9885C44.8279 37.16 44.8103 37.3779 44.8091 37.5745C44.8028 40.3704 44.8078 43.1664 44.8016 45.9624C44.8016 46.4282 44.7628 46.8939 44.7415 47.4036C44.9093 47.4036 45.0933 47.4036 45.2786 47.4036C48.2622 47.4036 51.2457 47.401 54.2293 47.4048C54.9917 47.4048 55.4337 48.0133 55.0844 48.5868C54.9842 48.7508 54.8002 48.8635 54.655 49C40.4371 49 26.2179 49 12 49C12 48.6557 12 48.3126 12 47.9695C12.2266 47.535 12.5809 47.3672 13.0705 47.3973C13.5663 47.4273 14.0646 47.4036 14.6393 47.4036C13.2007 45.9098 12.7149 45.181 12.3318 43.8864C12.1916 43.4131 12.1089 42.9222 12 42.4389C12 42.0019 12 41.5637 12 41.1267L12.0025 41.1242ZM19.4821 31.4115C19.5659 31.5292 19.5972 31.5831 19.6386 31.6282C21.9961 34.1712 24.3511 36.7155 26.7237 39.2435C26.8477 39.375 27.1431 39.4376 27.3334 39.4013C32.6044 38.3933 37.8717 37.3716 43.1377 36.3361C43.3142 36.3011 43.5233 36.1345 43.6072 35.973C44.3296 34.5731 45.0282 33.1608 45.7293 31.7509C45.7794 31.6507 45.8032 31.5368 45.8445 31.4115H19.4821ZM20.0442 25.7683H43.9853C43.9665 24.9381 43.6322 24.302 42.9787 23.8463C42.2249 23.3204 41.4236 23.259 40.5898 23.6685C39.796 24.0591 39.2965 23.7862 39.1813 22.9097C38.8846 20.6546 36.8375 19.0807 34.5964 19.4776C33.9466 19.5928 33.3369 19.9735 32.7309 20.2765C32.3928 20.4455 32.0823 20.5232 31.7656 20.3053C31.4513 20.0899 31.3136 19.7669 31.4726 19.4075C31.5991 19.122 31.4338 19.0081 31.2635 18.8704C29.9151 17.776 28.4089 17.4868 26.7926 18.1229C25.1549 18.7677 24.2623 20.0323 24.0156 21.7653C23.9818 22.0032 24.0381 22.1534 24.266 22.2924C24.6291 22.514 24.7267 22.8709 24.554 23.2703C24.3937 23.6434 23.9968 23.8075 23.5736 23.686C23.4397 23.6472 23.3132 23.5808 23.1805 23.537C21.623 23.0224 20.0217 24.1443 20.0442 25.767V25.7683ZM23.7715 47.366H39.3541C39.324 47.2859 39.3127 47.2408 39.2902 47.202C37.8692 44.7616 36.4444 42.3237 35.0296 39.8796C34.9019 39.6592 34.7717 39.6404 34.5376 39.6855C32.6082 40.0586 30.6751 40.413 28.7432 40.7774C27.9682 40.9239 27.1945 41.0791 26.4045 41.2344C26.4758 43.6898 25.6495 45.717 23.7715 47.3672V47.366ZM32.4454 27.4073C27.5112 27.4073 22.577 27.4073 17.6428 27.4073C17.44 27.4073 17.2359 27.4035 17.0344 27.4286C16.4609 27.4974 16.0428 27.9582 16.0165 28.5317C15.9814 29.3105 16.5085 29.7913 17.4125 29.7926C27.4061 29.7938 37.3997 29.7926 47.3933 29.7926C47.5185 29.7926 47.6437 29.7951 47.7676 29.7788C48.3648 29.7012 48.803 29.1815 48.7905 28.5743C48.778 27.9795 48.3511 27.4974 47.7626 27.4273C47.5623 27.4035 47.357 27.4073 47.1541 27.4073C42.2512 27.4073 37.3483 27.4073 32.4454 27.4073ZM24.4375 39.9647C23.8378 37.4204 20.7353 35.7176 17.9045 36.3549C15.0524 36.9972 13.1055 39.971 13.7303 42.7307C14.4089 45.7345 17.4162 47.6627 20.3685 46.9891C22.9589 46.3981 25.165 43.6647 24.7042 41.5887C24.3386 41.6551 23.973 41.734 23.6037 41.7841C23.3007 41.8254 23.1768 41.9406 23.1417 42.2812C22.9339 44.2783 21.1197 45.8409 19.1152 45.7871C17.1182 45.7332 15.5107 44.287 15.2164 42.2812C14.9485 40.4518 16.1079 38.6087 17.9095 38.0014C19.7713 37.3741 21.7645 38.1617 22.7098 39.8984C22.7749 40.0186 22.8437 40.1375 22.9163 40.2665C23.4384 40.1638 23.938 40.0649 24.4388 39.9647H24.4375ZM36.5683 39.2523C36.5783 39.3337 36.5733 39.3687 36.5884 39.3925C38.057 41.913 39.5231 44.4348 41.0005 46.9503C41.2634 47.3985 41.962 47.5601 42.6081 47.3672C43.0237 47.242 43.2065 46.9303 43.2065 46.3255C43.2065 43.7023 43.2065 41.0791 43.2065 38.4559C43.2065 38.3182 43.1952 38.1792 43.1852 37.9739C40.9554 38.4046 38.7606 38.8291 36.5683 39.2523ZM31.3762 11.6394C30.9543 13.147 30.5474 14.5994 30.143 16.0519C30.0804 16.2785 30.1317 16.4175 30.3934 16.5026C31.3286 16.8081 32.1312 17.334 32.821 18.0377C32.9012 18.1191 33.0752 18.2055 33.1591 18.1729C34.1707 17.776 35.2099 17.6859 36.3092 17.8649C36.7399 16.3624 37.1643 14.8874 37.5987 13.3723C36.82 13.1495 36.0813 12.9378 35.3213 12.72C35.1135 13.4124 34.9219 14.0535 34.7304 14.6933C34.5063 15.4371 34.0906 15.7463 33.551 15.5698C33.0527 15.4083 32.9212 14.9763 33.1416 14.2388C33.3306 13.604 33.5172 12.9679 33.7125 12.303C32.9037 12.0739 32.1612 11.8623 31.375 11.6394H31.3762ZM21.2449 40.5658C20.7378 39.5653 19.4608 39.1221 18.369 39.5415C17.2134 39.986 16.5824 41.2582 16.9292 42.4439C17.2798 43.6435 18.4416 44.3521 19.6924 44.1293C20.6928 43.9515 21.5779 43.0074 21.5041 42.1785C20.8004 42.3175 20.0993 42.4615 19.3957 42.5917C18.9637 42.6718 18.5994 42.4677 18.4516 42.0858C18.3064 41.7102 18.4279 41.3133 18.7847 41.1192C18.9575 41.0253 19.1628 40.9827 19.3594 40.9414C19.9841 40.8099 20.6101 40.691 21.2449 40.5658ZM55.5952 21.8078C54.9567 21.8078 54.3169 21.8016 53.6784 21.8103C53.1613 21.8178 52.812 22.1359 52.8007 22.5854C52.7894 23.0474 53.155 23.398 53.6909 23.4018C54.9692 23.4105 56.2463 23.4105 57.5246 23.4018C58.0367 23.398 58.3897 23.0662 58.401 22.6205C58.4123 22.1547 58.0517 21.8178 57.5121 21.8103C56.8735 21.8016 56.2337 21.8078 55.5952 21.8091V21.8078Z" fill="#080F2F"/>
<path d="M12.0025 41.1242C12.0814 40.7598 12.149 40.393 12.2416 40.0324C13.1168 36.6203 16.2443 34.3778 19.7613 34.6357C19.8852 34.6445 20.0092 34.6495 20.197 34.6608C20.1143 34.5381 20.0705 34.4504 20.0066 34.3816C19.1703 33.4738 18.3402 32.561 17.4863 31.6707C17.3436 31.5217 17.1007 31.4115 16.8929 31.389C15.4769 31.23 14.3964 30.0167 14.4126 28.5667C14.4289 27.1343 15.5082 25.9423 16.9179 25.8334C17.3824 25.7971 17.8519 25.8271 18.3477 25.8271C18.6282 23.4043 19.9303 22.037 22.3504 21.7728C22.9401 18.3683 24.9471 16.4876 28.4315 16.2009C28.886 14.6094 29.3404 13.008 29.7999 11.409C30.1167 10.3072 30.8829 9.87768 31.9822 10.1807C32.7021 10.3798 33.4208 10.5839 34.1845 10.798C34.957 8.21738 35.7195 5.66932 36.502 3.05616C35.9949 2.90465 35.5116 2.7569 35.0258 2.61416C34.6815 2.51274 34.4512 2.30489 34.3961 1.93927C34.2972 1.28442 34.838 0.857446 35.5504 1.04401C36.0325 1.17047 36.5057 1.33075 36.984 1.47223C37.9556 1.76022 38.9296 2.04069 39.8999 2.33244C40.4771 2.50648 40.7325 2.89839 40.5923 3.36418C40.4621 3.79616 39.9826 3.999 39.4292 3.84875C38.9822 3.72729 38.5365 3.59833 38.0482 3.46059C37.2732 6.04496 36.5082 8.59551 35.727 11.1987C35.9949 11.28 36.2541 11.3627 36.5157 11.4403C36.964 11.573 37.4159 11.697 37.8629 11.8347C38.8971 12.1528 39.3303 12.9341 39.0373 13.9733C38.6241 15.4433 38.1985 16.9096 37.7665 18.4209C39.1575 19.1934 40.1241 20.3316 40.5898 21.8742C41.1732 21.8742 41.7567 21.7928 42.3101 21.8892C44.1255 22.2022 45.3925 23.6084 45.5666 25.4402C45.5929 25.7219 45.683 25.8046 45.961 25.8133C46.7848 25.8371 47.6086 25.9022 48.4324 25.9235C48.5401 25.926 48.6979 25.7958 48.7529 25.6856C49.1799 24.853 49.5805 24.0078 50.0037 23.1726C50.1227 22.9385 50.2378 22.6317 50.4432 22.5253C51.3321 22.0608 51.575 20.9614 52.4527 20.5219C52.8032 20.3466 53.2214 20.2352 53.612 20.2239C54.9392 20.1876 56.2676 20.1989 57.5947 20.2139C58.9669 20.2289 60.0098 21.2857 59.9986 22.6242C59.9885 23.9339 58.9406 24.9819 57.5984 24.9982C56.4266 25.0132 55.2547 24.9732 54.084 25.0107C53.0248 25.0445 52.1434 24.7578 51.5086 23.7837C50.9803 24.8442 50.4695 25.8534 49.9824 26.8739C49.9324 26.9778 50.0025 27.1669 50.0651 27.2921C50.9628 29.0701 49.9524 31.0484 47.9817 31.384C47.8302 31.4103 47.6387 31.5393 47.571 31.6732C46.6721 33.4387 45.7869 35.2105 44.9118 36.9885C44.8279 37.16 44.8103 37.3779 44.8091 37.5745C44.8028 40.3704 44.8078 43.1664 44.8016 45.9624C44.8016 46.4282 44.7628 46.8939 44.7415 47.4036C44.9093 47.4036 45.0933 47.4036 45.2786 47.4036C48.2622 47.4036 51.2457 47.401 54.2293 47.4048C54.9917 47.4048 55.4337 48.0133 55.0844 48.5868C54.9842 48.7508 54.8002 48.8635 54.655 49C40.4371 49 26.2179 49 12 49C12 48.6557 12 48.3126 12 47.9695C12.2266 47.535 12.5809 47.3672 13.0705 47.3973C13.5663 47.4273 14.0646 47.4036 14.6393 47.4036C13.2007 45.9098 12.7149 45.181 12.3318 43.8864C12.1916 43.4131 12.1089 42.9222 12 42.4389C12 42.0019 12 41.5637 12 41.1267L12.0025 41.1242ZM19.4821 31.4115C19.5659 31.5292 19.5972 31.5831 19.6386 31.6282C21.9961 34.1712 24.3511 36.7155 26.7237 39.2435C26.8477 39.375 27.1431 39.4376 27.3334 39.4013C32.6044 38.3933 37.8717 37.3716 43.1377 36.3361C43.3142 36.3011 43.5233 36.1345 43.6072 35.973C44.3296 34.5731 45.0282 33.1608 45.7293 31.7509C45.7794 31.6507 45.8032 31.5368 45.8445 31.4115H19.4821ZM20.0442 25.7683H43.9853C43.9665 24.9381 43.6322 24.302 42.9787 23.8463C42.2249 23.3204 41.4236 23.259 40.5898 23.6685C39.796 24.0591 39.2965 23.7862 39.1813 22.9097C38.8846 20.6546 36.8375 19.0807 34.5964 19.4776C33.9466 19.5928 33.3369 19.9735 32.7309 20.2765C32.3928 20.4455 32.0823 20.5232 31.7656 20.3053C31.4513 20.0899 31.3136 19.7669 31.4726 19.4075C31.5991 19.122 31.4338 19.0081 31.2635 18.8704C29.9151 17.776 28.4089 17.4868 26.7926 18.1229C25.1549 18.7677 24.2623 20.0323 24.0156 21.7653C23.9818 22.0032 24.0381 22.1534 24.266 22.2924C24.6291 22.514 24.7267 22.8709 24.554 23.2703C24.3937 23.6434 23.9968 23.8075 23.5736 23.686C23.4397 23.6472 23.3132 23.5808 23.1805 23.537C21.623 23.0224 20.0217 24.1443 20.0442 25.767V25.7683ZM23.7715 47.366H39.3541C39.324 47.2859 39.3127 47.2408 39.2902 47.202C37.8692 44.7616 36.4444 42.3237 35.0296 39.8796C34.9019 39.6592 34.7717 39.6404 34.5376 39.6855C32.6082 40.0586 30.6751 40.413 28.7432 40.7774C27.9682 40.9239 27.1945 41.0791 26.4045 41.2344C26.4758 43.6898 25.6495 45.717 23.7715 47.3672V47.366ZM32.4454 27.4073C27.5112 27.4073 22.577 27.4073 17.6428 27.4073C17.44 27.4073 17.2359 27.4035 17.0344 27.4286C16.4609 27.4974 16.0428 27.9582 16.0165 28.5317C15.9814 29.3105 16.5085 29.7913 17.4125 29.7926C27.4061 29.7938 37.3997 29.7926 47.3933 29.7926C47.5185 29.7926 47.6437 29.7951 47.7676 29.7788C48.3648 29.7012 48.803 29.1815 48.7905 28.5743C48.778 27.9795 48.3511 27.4974 47.7626 27.4273C47.5623 27.4035 47.357 27.4073 47.1541 27.4073C42.2512 27.4073 37.3483 27.4073 32.4454 27.4073ZM24.4375 39.9647C23.8378 37.4204 20.7353 35.7176 17.9045 36.3549C15.0524 36.9972 13.1055 39.971 13.7303 42.7307C14.4089 45.7345 17.4162 47.6627 20.3685 46.9891C22.9589 46.3981 25.165 43.6647 24.7042 41.5887C24.3386 41.6551 23.973 41.734 23.6037 41.7841C23.3007 41.8254 23.1768 41.9406 23.1417 42.2812C22.9339 44.2783 21.1197 45.8409 19.1152 45.7871C17.1182 45.7332 15.5107 44.287 15.2164 42.2812C14.9485 40.4518 16.1079 38.6087 17.9095 38.0014C19.7713 37.3741 21.7645 38.1617 22.7098 39.8984C22.7749 40.0186 22.8437 40.1375 22.9163 40.2665C23.4384 40.1638 23.938 40.0649 24.4388 39.9647H24.4375ZM36.5683 39.2523C36.5783 39.3337 36.5733 39.3687 36.5884 39.3925C38.057 41.913 39.5231 44.4348 41.0005 46.9503C41.2634 47.3985 41.962 47.5601 42.6081 47.3672C43.0237 47.242 43.2065 46.9303 43.2065 46.3255C43.2065 43.7023 43.2065 41.0791 43.2065 38.4559C43.2065 38.3182 43.1952 38.1792 43.1852 37.9739C40.9554 38.4046 38.7606 38.8291 36.5683 39.2523ZM31.3762 11.6394C30.9543 13.147 30.5474 14.5994 30.143 16.0519C30.0804 16.2785 30.1317 16.4175 30.3934 16.5026C31.3286 16.8081 32.1312 17.334 32.821 18.0377C32.9012 18.1191 33.0752 18.2055 33.1591 18.1729C34.1707 17.776 35.2099 17.6859 36.3092 17.8649C36.7399 16.3624 37.1643 14.8874 37.5987 13.3723C36.82 13.1495 36.0813 12.9378 35.3213 12.72C35.1135 13.4124 34.9219 14.0535 34.7304 14.6933C34.5063 15.4371 34.0906 15.7463 33.551 15.5698C33.0527 15.4083 32.9212 14.9763 33.1416 14.2388C33.3306 13.604 33.5172 12.9679 33.7125 12.303C32.9037 12.0739 32.1612 11.8623 31.375 11.6394H31.3762ZM21.2449 40.5658C20.7378 39.5653 19.4608 39.1221 18.369 39.5415C17.2134 39.986 16.5824 41.2582 16.9292 42.4439C17.2798 43.6435 18.4416 44.3521 19.6924 44.1293C20.6928 43.9515 21.5779 43.0074 21.5041 42.1785C20.8004 42.3175 20.0993 42.4615 19.3957 42.5917C18.9637 42.6718 18.5994 42.4677 18.4516 42.0858C18.3064 41.7102 18.4279 41.3133 18.7847 41.1192C18.9575 41.0253 19.1628 40.9827 19.3594 40.9414C19.9841 40.8099 20.6101 40.691 21.2449 40.5658ZM55.5952 21.8078C54.9567 21.8078 54.3169 21.8016 53.6784 21.8103C53.1613 21.8178 52.812 22.1359 52.8007 22.5854C52.7894 23.0474 53.155 23.398 53.6909 23.4018C54.9692 23.4105 56.2463 23.4105 57.5246 23.4018C58.0367 23.398 58.3897 23.0662 58.401 22.6205C58.4123 22.1547 58.0517 21.8178 57.5121 21.8103C56.8735 21.8016 56.2337 21.8078 55.5952 21.8091V21.8078Z" stroke="#080F2F" stroke-width="0.6" mask="url(#path-2-outside-1_58_3685)"/>
<path d="M57.3047 49.1302L57.3385 49.1489H57.3771H57.3784H59.4405H59.484L59.5208 49.1255C59.7139 49.003 59.9071 48.8555 60.0282 48.6613C60.1548 48.4582 60.1954 48.2159 60.1043 47.9281L60.1043 47.9281C60.0166 47.6513 59.8559 47.4687 59.6428 47.3633C59.4364 47.2612 59.1945 47.2383 58.952 47.2488L58.9519 47.2488C58.5832 47.2649 58.2119 47.2649 57.8432 47.2488L57.8431 47.2488C57.5993 47.2383 57.3558 47.2629 57.1496 47.3672C56.9367 47.4749 56.7781 47.6603 56.6972 47.9391L56.8413 47.9809L56.6973 47.939C56.6155 48.2198 56.6527 48.4628 56.7774 48.6671C56.8982 48.8649 57.0931 49.0135 57.3047 49.1302Z" fill="#080F2F" stroke="#080F2F" stroke-width="0.3"/>
</svg>
