<svg width="56" height="50" viewBox="0 0 56 50" fill="none" xmlns="http://www.w3.org/2000/svg">
<circle cx="18" cy="25" r="18" fill="#29AD33"/>
<path d="M53.8591 0.85L53.8892 0.864028C54.0093 0.919958 54.1297 0.966659 54.2551 1.0153C54.334 1.04591 54.4149 1.07728 54.4989 1.1122C54.7069 1.19862 54.9189 1.3016 55.0958 1.45311C55.7683 2.02755 55.8192 2.82635 55.6419 3.59052L55.6419 3.59066C55.2869 5.11421 54.3764 6.34223 53.4515 7.51811C53.2298 7.79988 52.9928 8.06929 52.7583 8.33499L52.738 8.35802C52.5096 8.61676 52.2841 8.87221 52.0727 9.13745C52.0329 9.18759 51.9949 9.26667 51.973 9.35281C51.9506 9.441 51.9507 9.51475 51.9641 9.55806C53.2338 13.5858 53.7694 17.7235 53.9808 21.9062C54.1641 25.5433 54.0295 29.169 53.5847 32.7833L53.4359 32.765L53.5847 32.7833C53.2708 35.3332 52.7998 37.8594 51.9707 40.3126L51.9706 40.3128C51.9209 40.4595 51.9159 40.5614 51.9376 40.6475C51.9598 40.7355 52.0149 40.8265 52.1226 40.9425C53.2877 42.1924 54.4089 43.5063 55.1444 45.0775C55.4235 45.6726 55.6347 46.3454 55.6837 47.0031C55.7323 47.6551 55.5065 48.2081 55.0926 48.5836C54.6803 48.9577 54.0934 49.1453 53.4358 49.0944C52.4943 49.022 51.6462 48.6796 50.8641 48.2217L50.9359 48.0991L50.8641 48.2216C50.1656 47.8126 49.5011 47.3515 48.8435 46.8953L48.8316 46.8871L48.8314 46.8869C48.7356 46.8203 48.6696 46.7887 48.6094 46.7785C48.5529 46.7689 48.4847 46.7754 48.3806 46.8202C45.8569 47.9075 43.1903 48.4331 40.4887 48.7682L40.4887 48.7682C36.6143 49.2479 32.7322 49.2742 28.8515 48.8548C25.8891 48.5349 22.9631 48.0032 20.1979 46.814L20.1977 46.8139C20.0937 46.769 20.0257 46.7652 19.9705 46.7769C19.9104 46.7896 19.8459 46.8246 19.7541 46.8937C19.7541 46.8937 19.754 46.8937 19.754 46.8937L19.6638 46.7738C18.4836 47.6628 17.2651 48.5016 15.7844 48.8271L53.8591 0.85ZM53.8591 0.85H53.8259M53.8591 0.85H53.8259M53.8259 0.85H53.8249H53.824H53.8231H53.8221H53.8212H53.8202H53.8193H53.8184H53.8174H53.8165H53.8156H53.8146H53.8137H53.8128H53.8118H53.8109H53.8099H53.809H53.8081H53.8071H53.8062H53.8053H53.8043H53.8034H53.8025H53.8015H53.8006H53.7997H53.7987H53.7978H53.7968H53.7959H53.795H53.794H53.7931H53.7922H53.7912H53.7903H53.7894H53.7884H53.7875H53.7866H53.7856H53.7847H53.7837H53.7828H53.7819H53.7809H53.78H53.7791H53.7781H53.7772H53.7763H53.7753H53.7744H53.7735H53.7725H53.7716H53.7707H53.7697H53.7688H53.7679H53.7669H53.766H53.765H53.7641H53.7632H53.7622H53.7613H53.7604H53.7594H53.7585H53.7576H53.7566H53.7557H53.7548H53.7538H53.7529H53.752H53.751H53.7501H53.7492H53.7482H53.7473H53.7464H53.7454H53.7445H53.7435H53.7426H53.7417H53.7407H53.7398H53.7389H53.7379H53.737H53.7361H53.7351H53.7342H53.7333H53.7323H53.7314H53.7305H53.7295H53.7286H53.7277H53.7267H53.7258H53.7249H53.7239H53.723H53.7221H53.7211H53.7202H53.7193H53.7183H53.7174H53.7165H53.7155H53.7146H53.7137H53.7127H53.7118H53.7109H53.7099H53.709H53.7081H53.7071H53.7062H53.7053H53.7043H53.7034H53.7025H53.7015H53.7006H53.6997H53.6987H53.6978H53.6969H53.6959H53.695H53.694H53.6931H53.6922H53.6912H53.6903H53.6894H53.6884H53.6875H53.6866H53.6856H53.6847H53.6838H53.6828H53.6819H53.681H53.68H53.6791H53.6782H53.6772H53.6763H53.6754H53.6744H53.6735H53.6726H53.6716H53.6707H53.6698H53.6688H53.6679H53.667H53.666H53.6651H53.6642H53.6632H53.6623H53.6614H53.6604H53.6595H53.6586H53.6577H53.6567H53.6558H53.6549H53.6539H53.653H53.6521H53.6511H53.6502H53.6493H53.6483H53.6474H53.6465H53.6455H53.6446H53.6437H53.6427H53.6418H53.6409H53.6399H53.639H53.6381H53.6371H53.6362H53.6353H53.6343H53.6334H53.6325H53.6315H53.6306H53.6297H53.6287H53.6278H53.6269H53.6259H53.625H53.6241H53.6231H53.6222H53.6213H53.6203H53.6194H53.6185H53.6175H53.6166H53.6157H53.6147H53.6138H53.6129H53.6119H53.611H53.6101H53.6091H53.6082H53.6073H53.6063H53.6054H53.6045H53.6035H53.6026H53.6017H53.6007H53.5998H53.5989H53.5979H53.597H53.5961H53.5951H53.5942H53.5933H53.5924H53.5914H53.5905H53.5896H53.5886H53.5877H53.5868H53.5858H53.5849H53.584H53.583H53.5821H53.5812H53.5802H53.5793H53.5784H53.5774H53.5765H53.5756H53.5746H53.5737H53.5728H53.5718H53.5709H53.57H53.569H53.5681H53.5672H53.5662H53.5653H53.5644H53.5634H53.5625H53.5616H53.5606H53.5597H53.5588H53.5578H53.5569H53.556H53.555H53.5541H53.5532H53.5522H53.5513H53.5504H53.5494H53.5485H53.5476H53.5466H53.5457H53.5448H53.5438H53.5429H53.542H53.541H53.5401H53.5392H53.5382H53.5373H53.5364H53.5354H53.5345H53.5336H53.5326H53.5317H53.5308H53.5299H53.5289H53.528H53.5271H53.5261H53.5252H53.5243H53.5233H53.5224H53.5215H53.5205H53.5196H53.5187H53.5177H53.5168H53.5159H53.5149H53.514H53.5131H53.5121H53.5112H53.5103H53.5093H53.5084H53.5075H53.5065H53.5056H53.5047H53.5037H53.5028H53.5019H53.5009H53.5H53.4991H53.4981H53.4972H53.4963H53.4953H53.4944H53.4935H53.4925H53.4916H53.4907H53.4897H53.4888H53.4879H53.4869H53.486H53.4851H53.4841H53.4832H53.4823H53.4813H53.4804H53.4795H53.4785H53.4776H53.4767H53.4757H53.4748H53.4739H53.4729H53.472H53.4711H53.4701H53.4692H53.4683H53.4673H53.4664H53.4655H53.4645H53.4636H53.4626H53.4617H53.4608H53.4598H53.4589H53.458H53.457H53.4561H53.4552H53.4542H53.4533H53.4524H53.4514H53.4505H53.4496H53.4486H53.4477H53.4468H53.4458H53.4449H53.444H53.443H53.4421H53.4412H53.4402H53.4393H53.4384H53.4374H53.4365H53.4356H53.4346H53.4337H53.4328H53.4318H53.4309H53.43H53.429H53.4281H53.4272H53.4262H53.4253H53.4243H53.4234H53.4225H53.4215H53.4206H53.4197H53.4187H53.4178H53.4169H53.4159H53.415H53.4141H53.4131H53.4122H53.4113H53.4103H53.4094H53.4085H53.4075H53.4066H53.4057H53.4047H53.4038H53.4028H53.4019H53.401H53.4H53.3991H53.3982H53.3972H53.3963H53.3954H53.3944H53.3935H53.3926H53.3916H53.3907H53.3898H53.3888H53.3879H53.387H53.386H53.3851H53.3841H53.3832H53.3823H53.3813H53.3804H53.3795H53.3785H53.3776H53.3767H53.3757H53.3748H53.3739H53.3729H53.372H53.371H53.3701H53.3692H53.3682H53.3673H53.3664H53.3654H53.3645H53.3636H53.3626H53.3617H53.3607H53.3598H53.3589H53.3579H53.357H53.3561H53.3551H53.3542H53.3533H53.3523H53.3514H53.3505H53.3495H53.3486H53.3476H53.3323L53.3173 0.853096C51.574 1.21287 50.1218 2.11007 48.7553 3.1388L53.8259 0.85ZM13.453 4.93229L13.453 4.93218C13.1681 4.32192 12.9632 3.63658 12.9012 2.96569C12.8512 2.43131 12.9926 1.9723 13.2906 1.61898C13.5864 1.26815 14.0264 1.03341 14.5553 0.923607L13.453 4.93229ZM13.453 4.93229C14.1952 6.5191 15.3388 7.83724 16.5092 9.10227L13.453 4.93229ZM53.8357 3.06442C53.7854 3.18976 53.7396 3.31307 53.6945 3.43424C53.5926 3.70806 53.4948 3.97097 53.36 4.22179C52.575 5.68108 51.5254 6.96029 50.3455 8.138C50.0969 8.38604 49.9401 8.63652 49.8811 8.9166C49.8223 9.19599 49.8649 9.48571 49.9791 9.80464C49.9791 9.80465 49.9791 9.80466 49.9791 9.80468L50.1203 9.75412M53.8357 3.06442L49.9276 40.3663M53.8357 3.06442C53.8262 2.91777 53.7901 2.84472 53.7555 2.8127C53.7276 2.78689 53.6691 2.75999 53.5299 2.79748L53.8357 3.06442ZM50.1203 9.75412C51.1164 12.5386 51.5972 15.432 51.9104 18.3542C52.3094 22.0752 52.3618 25.805 52.0958 29.536C51.8324 33.2345 51.3082 36.8916 50.0692 40.4161M50.1203 9.75412C49.9029 9.14689 49.9809 8.71369 50.4515 8.24419L50.1203 9.75412ZM50.0692 40.4161L49.9277 40.3661C49.9277 40.3662 49.9277 40.3663 49.9276 40.3663M50.0692 40.4161L49.9276 40.3663M50.0692 40.4161C49.8953 40.9081 50.018 41.2474 50.3479 41.6431M49.9276 40.3663C49.8329 40.6345 49.8154 40.873 49.8743 41.103C49.9324 41.3296 50.0612 41.5334 50.2327 41.7391M50.3479 41.6431L50.2327 41.7391M50.3479 41.6431L50.2327 41.7391C50.2327 41.7391 50.2327 41.7391 50.2327 41.7391M50.3479 41.6431C51.3632 42.8613 52.358 44.0995 53.2939 45.3778C53.5605 45.7411 53.7011 46.2012 53.8379 46.6489C53.8619 46.7274 53.8858 46.8056 53.9103 46.8828C54.0215 47.2358 53.8271 47.4512 53.4461 47.326C53.3517 47.2951 53.2567 47.2648 53.1616 47.2344C52.6508 47.0714 52.1351 46.9068 51.6803 46.6461C50.9003 46.1992 50.1727 45.6583 49.4503 45.1212C49.0692 44.8382 48.7227 44.7243 48.2688 44.9446C46.0145 46.0414 43.5914 46.5673 41.1249 46.9216C37.3835 47.4574 33.6255 47.5413 29.8624 47.197C26.5507 46.894 23.285 46.3694 20.2546 44.9158C19.8365 44.7155 19.5104 44.8645 19.1575 45.1112C18.2778 45.7259 17.3904 46.3369 16.4659 46.884C16.1509 47.0711 15.7754 47.1664 15.4047 47.2605C15.3089 47.2848 15.2135 47.309 15.1195 47.3347M50.2327 41.7391L41.1036 46.7731C37.3742 47.3073 33.6279 47.3909 29.8761 47.0476C26.5694 46.7451 23.3253 46.2224 20.3194 44.7806L20.3194 44.7806C20.0799 44.6658 19.8586 44.6487 19.6463 44.7001C19.4403 44.7499 19.2518 44.8622 19.0716 44.9882C18.1919 45.6029 17.3086 46.211 16.3895 46.7549L16.3893 46.755C16.0948 46.9299 15.7469 47.0184 15.3792 47.112C15.2807 47.137 15.1809 47.1624 15.0803 47.19M15.1195 47.3347L15.0803 47.19M15.1195 47.3347L15.0799 47.1901C15.08 47.19 15.0801 47.19 15.0803 47.19M15.1195 47.3347C14.7589 47.4324 14.5837 47.2446 14.6719 46.9053C14.7768 46.5009 14.8906 46.0865 15.0862 45.7196C15.8739 44.2397 16.9364 42.9502 18.123 41.7658M15.0803 47.19C14.9222 47.2327 14.8553 47.1995 14.833 47.1773C14.8104 47.1549 14.7789 47.0899 14.8171 46.943L14.8171 46.9429C14.9223 46.5373 15.0324 46.1393 15.2186 45.7902L15.2186 45.7901C15.997 44.3276 17.0489 43.0498 18.229 41.8719M18.229 41.8719L18.123 41.7658M18.229 41.8719C18.4742 41.6273 18.637 41.3799 18.7029 41.1016C18.7691 40.8226 18.7334 40.5314 18.6171 40.2076L18.6171 40.2075C17.6319 37.4715 17.1451 34.624 16.8311 31.7384L16.8311 31.7383C16.4191 27.9641 16.363 24.1821 16.6423 20.3973L16.6423 20.3973C16.9129 16.7216 17.4434 13.0966 18.6674 9.6034L18.5258 9.5538M18.229 41.8719L18.5258 9.5538M18.229 41.8719L18.123 41.7658M18.229 41.8719L18.123 41.7658M18.123 41.7658C18.5898 41.3 18.6959 40.8706 18.476 40.2583C17.485 37.5064 16.9965 34.6455 16.682 31.7546C16.269 27.971 16.2127 24.1799 16.4927 20.3863C16.7638 16.7041 17.2957 13.0645 18.5258 9.5538M18.123 41.7658L28.1951 2.97068C25.4843 3.31373 22.8183 3.84208 20.3402 5.03776C19.8927 5.25311 19.5411 5.16296 19.1549 4.88001M18.5258 9.5538L18.6673 9.60362C18.7584 9.3449 18.7747 9.11249 18.7175 8.88823C18.6612 8.66723 18.5369 8.46788 18.3715 8.26861C17.3594 7.0487 16.363 5.81555 15.427 4.54322L15.4269 4.54314C15.1313 4.14195 14.9749 3.61447 14.8293 3.08973C14.8024 2.9924 14.795 2.92182 14.7988 2.87348C14.8024 2.82691 14.8154 2.81068 14.8216 2.80477C14.8286 2.79816 14.848 2.78477 14.8994 2.78168C14.9517 2.77853 15.0257 2.78697 15.1251 2.81376C15.6747 2.96211 16.2233 3.11803 16.6856 3.38815C17.5092 3.86956 18.2886 4.4324 19.0664 5.0011L19.1549 4.88001M19.1549 4.88001L19.0663 5.001C19.2697 5.15006 19.4763 5.25765 19.7007 5.29384C19.928 5.3305 20.1588 5.29154 20.4053 5.17293L20.4054 5.17286C22.8617 3.9877 25.5087 3.46184 28.2139 3.11949L28.2139 3.11949C31.6798 2.68015 35.1584 2.62148 38.6384 2.93727L38.652 2.78788L38.6384 2.93727C41.962 3.23857 45.2226 3.75508 48.245 5.1994L48.2451 5.19941M19.1549 4.88001L48.2451 5.19941M48.2451 5.19941C48.4805 5.31183 48.6998 5.33758 48.9128 5.29467M48.2451 5.19941L48.9128 5.29467M48.9128 5.29467C49.1211 5.25272 49.3121 5.14728 49.4967 5.01787L48.9128 5.29467ZM53.987 3.08586C53.9729 2.73029 53.8208 2.56377 53.4909 2.65267C53.3994 2.67735 53.3067 2.70082 53.2136 2.72437C52.8251 2.82267 52.4308 2.92247 52.0997 3.11842C51.1752 3.6643 50.2904 4.27904 49.4106 4.89503C49.0552 5.14418 48.7266 5.26313 48.3097 5.06406L53.987 3.08586Z" fill="#080F2F" stroke="#080F2F" stroke-width="0.3"/>
<path d="M34.1902 45.9522V45.9522H34.192L34.1933 45.9522L34.1946 45.9522C37.2371 45.9258 40.185 45.7176 43.0944 45.1013L43.0945 45.1013C44.6438 44.7723 46.1757 44.3547 47.6103 43.6454L47.6103 43.6454C47.8796 43.5122 48.0718 43.3212 48.1624 43.0902C48.2538 42.8573 48.2347 42.6025 48.1158 42.3595L48.1157 42.3594C47.9965 42.1164 47.7994 41.9437 47.5589 41.8665C47.319 41.7895 47.0472 41.8111 46.7821 41.9353C44.1583 43.1609 41.3333 43.5961 38.4592 43.8612C35.1401 44.1657 31.8217 44.117 28.5163 43.684L28.5163 43.684C26.2246 43.3842 23.9807 42.9471 21.888 41.974L21.888 41.974L21.8878 41.9739C21.5951 41.8384 21.3081 41.7972 21.0553 41.864C20.799 41.9318 20.5965 42.1061 20.4713 42.3636C20.3466 42.6195 20.3322 42.8872 20.4428 43.1286C20.5521 43.3668 20.7734 43.5584 21.0797 43.6879L21.0797 43.688C21.8078 43.9956 22.5514 44.3068 23.3185 44.5373C26.8926 45.6124 30.5706 45.9083 34.1902 45.9522ZM43.0633 44.9546C40.1672 45.5681 37.2301 45.7759 34.1933 45.8022L46.8456 42.0712C47.3162 41.8508 47.7765 42.0086 47.9811 42.4255C48.1869 42.8462 48.0322 43.2693 47.5438 43.511C46.1257 44.2121 44.608 44.6265 43.0633 44.9546Z" fill="#080F2F" stroke="#080F2F" stroke-width="0.3"/>
<path d="M30.6419 4.85911H30.7919C30.854 4.85911 30.9275 4.85847 31.0094 4.85776C31.2315 4.85584 31.5148 4.85338 31.7962 4.86168C32.0784 4.8694 32.3252 4.95767 32.5063 5.11676C32.6888 5.27698 32.7953 5.50113 32.8073 5.7596L32.8073 5.75972C32.8321 6.30168 32.4084 6.72167 31.8212 6.75148L31.821 6.75149C31.4833 6.76834 31.1422 6.77291 30.8044 6.77744C30.6623 6.77934 30.5208 6.78124 30.3803 6.78404C29.903 6.79356 29.4329 6.81347 28.9714 6.87794L28.9712 6.87796C27.1916 7.12426 25.4227 7.44266 23.6511 7.76154C23.4991 7.7889 23.3471 7.81626 23.1951 7.84358L23.1948 7.84362C23.1535 7.85097 23.091 7.88567 23.0222 7.95279C22.9561 8.01724 22.9 8.09623 22.8679 8.16363L22.8677 8.16409C22.7842 8.33775 22.7179 8.52151 22.6518 8.71321C22.6416 8.74296 22.6314 8.77296 22.621 8.80313C22.5657 8.96499 22.5086 9.1321 22.4415 9.29436L30.6419 4.85911ZM30.6419 4.85911V4.86461C27.6571 4.95594 24.8679 5.38328 22.1283 6.14795L22.1281 6.14799C21.9194 6.20649 21.7365 6.29216 21.5862 6.42049C21.4349 6.54979 21.3239 6.71633 21.2509 6.92528L21.2508 6.92541C21.1653 7.17088 21.074 7.41985 20.9824 7.67002C20.8632 7.99538 20.7432 8.32277 20.634 8.64716L30.6419 4.85911Z" fill="#080F2F" stroke="#080F2F" stroke-width="0.3"/>
<path d="M35.1043 6.7514L35.1043 6.7514L35.9209 5.79259L36.0709 5.79131C36.0709 5.7913 36.0709 5.79129 36.0709 5.79128C36.0663 5.25502 35.6315 4.85439 35.0898 4.86384V4.86381L35.0869 4.86387C34.548 4.87415 34.1257 5.30356 34.1472 5.83619L34.1472 5.83663C34.1686 6.3322 34.6061 6.74842 35.1043 6.7514Z" fill="#080F2F" stroke="#080F2F" stroke-width="0.3"/>
</svg>
