<svg width="63" height="50" viewBox="0 0 63 50" fill="none" xmlns="http://www.w3.org/2000/svg">
<circle cx="18" cy="25" r="18" fill="#29AD33"/>
<path d="M62.4731 9.22992V9.77667V9.77796H62.3253L62.4521 9.85321C62.4405 9.87277 62.4245 9.89691 62.4121 9.91559C62.4065 9.92392 62.4017 9.93116 62.3984 9.93642C62.3833 9.95992 62.3756 9.97484 62.3717 9.98626L62.3716 9.98646C62.1592 10.5981 61.8359 11.0771 61.3923 11.404C60.9484 11.7312 60.3962 11.897 59.7422 11.903C57.8261 11.9212 55.9109 11.9251 53.9942 11.903H53.9941C53.189 11.8936 52.5068 11.6137 52.0248 11.1281C51.5427 10.6425 51.271 9.96153 51.2675 9.16861L51.2675 9.16859C51.2597 7.31095 51.2597 5.4533 51.2675 3.59565L51.2675 3.59564C51.271 2.80328 51.5431 2.12257 52.0255 1.63736C52.5079 1.15212 53.1903 0.872617 53.9955 0.863802L62.4731 9.22992ZM62.4731 9.22992V2.98887V2.96266L62.4642 2.93801C62.2417 2.32078 61.926 1.80089 61.4786 1.43457C61.0289 1.06633 60.4575 0.862612 59.7427 0.859908L59.7426 0.859907C59.4873 0.859044 59.2319 0.858089 58.9765 0.857133C57.3167 0.850922 55.6556 0.844707 53.9956 0.863801L62.4731 9.22992ZM57.2758 2.81509H56.9103C56.6248 2.81509 56.3396 2.81439 56.0546 2.81369L57.2758 2.81509ZM57.2758 2.81509L57.2729 2.81221M57.2758 2.81509L57.2729 2.81221M57.2729 2.81221C57.4212 2.81199 57.5694 2.81168 57.7175 2.81138L57.2729 2.81221ZM53.244 3.61892L53.244 3.61895C53.2361 5.45882 53.2374 7.29877 53.244 9.13885C53.2452 9.44007 53.3175 9.63231 53.4373 9.75138C53.5574 9.87067 53.7522 9.94343 54.0583 9.94528C55.9233 9.95434 57.7883 9.95304 59.6522 9.94527H59.6523C59.979 9.94405 60.1797 9.87214 60.3012 9.75229C60.4222 9.63291 60.4941 9.43687 60.4953 9.11831C60.4953 9.11826 60.4953 9.11821 60.4953 9.11816L60.6453 9.11874L53.244 3.61892ZM53.244 3.61892C53.2452 3.31937 53.3176 3.12978 53.4377 3.01217C53.5586 2.89373 53.7553 2.82133 54.0645 2.81767L53.244 3.61892Z" fill="#080F2F" stroke="#080F2F" stroke-width="0.3"/>
<path d="M62.4731 34.0576V34.6043V34.6056H62.3253L62.4521 34.6808C62.4405 34.7004 62.4245 34.7245 62.4121 34.7432C62.4065 34.7515 62.4017 34.7588 62.3984 34.7641C62.3833 34.7876 62.3756 34.8025 62.3717 34.8139L62.3716 34.8141C62.1592 35.4258 61.8359 35.9048 61.3923 36.2316C60.9484 36.5588 60.3962 36.7246 59.7422 36.7307M62.4731 34.0576L53.9955 25.6914C53.1903 25.7003 52.5079 25.9798 52.0255 26.465C51.5431 26.9502 51.271 27.6309 51.2675 28.4233L51.2675 28.4233C51.2597 30.2809 51.2597 32.1386 51.2675 33.9962L51.2675 33.9962C51.271 34.7892 51.5427 35.4702 52.0248 35.9557C52.5068 36.4413 53.189 36.7212 53.9941 36.7307L53.9942 36.7307C55.9109 36.7527 57.8261 36.7488 59.7422 36.7307M62.4731 34.0576V27.8165V27.7903L62.4642 27.7656C62.2417 27.1484 61.926 26.6285 61.4786 26.2622C61.0289 25.894 60.4575 25.6902 59.7427 25.6875L59.7426 25.6875C59.4873 25.6867 59.2319 25.6857 58.9765 25.6848C57.3167 25.6786 55.6556 25.6723 53.9956 25.6914L62.4731 34.0576ZM59.7422 36.7307L59.7408 36.5831L59.7422 36.7307C59.7422 36.7307 59.7422 36.7307 59.7422 36.7307ZM53.2411 31.5691C53.2409 31.7211 53.2405 31.873 53.2402 32.0248C53.2389 32.6739 53.2375 33.3218 53.244 33.9707C53.2471 34.2717 53.3196 34.4635 53.4396 34.5822C53.5597 34.7011 53.7546 34.7737 54.0623 34.7755L53.2411 31.5691ZM53.2411 31.5691L53.2432 31.5712L53.2427 31.2121C53.2424 30.9858 53.2418 30.7595 53.2412 30.5334C53.2395 29.8556 53.2378 29.1786 53.2427 28.5014C53.2427 28.5014 53.2427 28.5014 53.2427 28.5015L53.2411 31.5691ZM54.1093 27.6466C55.9575 27.6401 57.8069 27.6388 59.6548 27.6466L59.6549 27.6466C59.9817 27.6478 60.1819 27.7197 60.3031 27.8395C60.4238 27.9588 60.4954 28.1549 60.4966 28.4737C60.5019 30.2982 60.5019 32.1213 60.4966 33.9458L54.1093 27.6466Z" fill="#080F2F" stroke="#080F2F" stroke-width="0.3"/>
<path d="M36.2837 25.68C38.2597 25.6826 40.2363 25.6829 42.2128 25.6832C43.2011 25.6833 44.1893 25.6834 45.1775 25.6839L36.2837 25.68ZM36.2837 25.68C36.2838 25.68 36.284 25.68 36.2842 25.68L36.2832 25.83L36.2833 25.68C36.2834 25.68 36.2836 25.68 36.2837 25.68ZM14.6825 0.858745C16.5342 0.847085 18.3859 0.847085 20.2376 0.858745L20.2377 0.858746C21.0871 0.864799 21.7936 1.13553 22.2888 1.62763C22.784 2.11986 23.0535 2.81939 23.0556 3.65554L58.2212 49.1419C58.0857 49.1502 57.9502 49.1501 57.8193 49.15C57.8028 49.15 57.7864 49.1499 57.77 49.1499H57.6862H57.6024H57.5187H57.4349H57.3511H57.2673H57.1835H57.0997H57.0159H56.9322H56.8484H56.7646H56.6808H56.597H56.5132H56.4295H56.3457H56.2619H56.1781H56.0943H56.0105H55.9268H55.843H55.7592H55.6754H55.5916H55.5078H55.424H55.3403H55.2565H55.1727H55.0889H55.0051H54.9213H54.8376H54.7538H54.67H54.5862H54.5024H54.4186H54.3349H54.2511H54.1673H54.0835H53.9997H53.9159H53.8321H53.7484H53.6646H53.5808H53.497H53.4132H53.3294H53.2457H53.1619H53.0781H52.9943H52.9105H52.8267H52.743H52.6592H52.5754H52.4916H52.4078H52.324H52.2402H52.1565H52.0727H51.9889H51.9051H51.8213H51.7375H51.6538H51.57H51.4862H51.4024H51.3186H51.2348H51.151H51.0673H50.9835H50.8997H50.8159H50.7321H50.6483H50.5646H50.4808H50.397H50.3132H50.2294H50.1456H50.0619H49.9781H49.8943H49.8105H49.7267H49.6429H49.5591H49.4754H49.3916H49.3078H49.224H49.1402H49.0564H48.9727H48.8889H48.8051H48.7213H48.6375H48.5537H48.47H48.3862H48.3024H48.2186H48.1348H48.051H47.9672H47.8835H47.7997H47.7159H47.6321H47.5483H47.4645H47.3808H47.297H47.2132H47.1294H47.0456H46.9618H46.878H46.7943H46.7105H46.6267H46.5429H46.4591H46.3753H46.2916H46.2078H46.124H46.0402H45.9564H45.8726H45.7889H45.7051H45.6213H45.5375H45.4537H45.3699H45.2861H45.2024H45.1186H45.0348H44.951H44.8672H44.7834H44.6997H44.6159H44.5321H44.4483H44.3645H44.2807H44.1969H44.1132H44.0294H43.9456H43.8618H43.778H43.6942H43.6105H43.5267H43.4429H43.3591H43.2753H43.1915H43.1078H43.024H42.9402H42.8564H42.7726H42.6888H42.605H42.5213H42.4375H42.3537H42.2699H42.1861H42.1023H42.0186H41.9348H41.851H41.7672H41.6834H41.5996H41.5159H41.4321H41.3483H41.2645H41.1807H41.0969H41.0131H40.9294H40.8456H40.7618H40.678H40.5942H40.5104H40.4267H40.3429H40.2591H40.1753H40.0915H40.0077H39.924H39.8402H39.7564H39.6726H39.5888H39.505H39.4212H39.3375H39.2537H39.1699H39.0861H39.0023H38.9185H38.8348H38.751H38.6672H38.5834H38.4996H38.4158H38.332H38.2483H38.1645H38.0807H37.9969H37.9131H37.8293H37.7456H37.6618H37.578H37.4942H37.4104H37.3266H37.2429H37.1591H37.0753H36.9915H36.9077H36.8239H36.7401H36.6564H36.5726H36.4888H36.405H36.3212H36.2374H36.1537H36.0699H35.9861H35.9023H35.8185H35.7347H35.6509H35.5672H35.4834H35.3996H35.3158H35.232H35.1482H35.0645H34.9807H34.8969H34.8131H34.7293H34.6455H34.5618H34.478H34.3942H34.3104H34.2266H34.1428H34.059H33.9753H33.8915H33.8077H33.7239H33.6401H33.5563H33.4726H33.3888H33.305H33.2212H33.1374H33.0536H32.9699H32.8861H32.8023H32.7185H32.6347H32.5509H32.4671H32.3834H32.2996H32.2158H32.132H32.0482H31.9644H31.8807H31.7969H31.7131H31.6293H31.5455H31.4617H31.378H31.2942H31.2104H31.1266H31.0428H30.959H30.8752H30.7915H30.7077H30.6239H30.5401H30.4563H30.3725H30.2888H30.205H30.1212H30.0374H29.9536H29.8698H29.786H29.7023H29.6185H29.5347H29.4509H29.3671H29.2833H29.1996H29.1158H29.032H28.9482H28.8644H28.7806H28.6969H28.6131H28.5293H28.4455H28.3617H28.2779H28.1941H28.1104H28.0266H27.9428H27.859H27.7752H27.6914H27.6077H27.5239H27.4401H27.3563H27.2725H27.1887H27.1049H27.0212H26.9374H26.8536H26.7698H26.686H26.6022H26.5185H26.4347H26.3509H26.2671H26.1833H26.0995H26.0158H25.932H25.8482H25.7644H25.6806H25.5968H25.513H25.4293H25.3455H25.2617H25.1779H25.0941H25.0103H24.9266H24.8428H24.759H24.6752H24.5914H24.5076H24.4239H24.3401H24.2563H24.1725H24.0887H24.0049H23.9211H23.8374H23.7536H23.6698H23.586H23.5022H23.4184H23.3347H23.2509H23.1671H23.0833H22.9995H22.9157H22.832H22.7482H22.6644H22.5806H22.4968H22.413H22.3292H22.2455H22.1617H22.0779H21.9941H21.9103H21.8265H21.7428H21.659H21.5752H21.4914H21.4076H21.3238H21.24H21.1563H21.0725H20.9887H20.9049H20.8211H20.7373H20.6536H20.5698H20.486H20.4022H20.3184H20.2346H20.1509H20.0671H19.9833H19.8995H19.8157H19.7319H19.6481H19.5644H19.4806H19.3968H19.313H19.2292H19.1454H19.0617H18.9779H18.8941H18.8103H18.7265H18.6427H18.5589H18.4752H18.3914H18.3076H18.2238H18.14H18.0562H17.9725H17.8887H17.8049H17.7211H17.6373H17.5535H17.4698H17.386H17.3022H17.2184H17.1346H17.0508H16.967H16.8833H16.7995H16.7157H16.6319H16.5481H16.4643H16.3806H16.2968H16.213H16.1292H16.0454H15.9616H15.8779H15.7941H15.7103H15.6265H15.5427H15.4589H15.3751H15.2914H15.2076H15.1238H15.04H14.9562H14.8724C14.0744 49.1499 13.4027 48.9661 12.8925 48.6019C12.3803 48.2361 12.0436 47.6974 11.903 47.0136L11.9029 47.0134C11.8548 46.7777 11.8526 46.5329 11.8526 46.3086C11.85 32.1023 11.85 17.896 11.85 3.68967C11.85 2.83468 12.115 2.1259 12.6114 1.62927C13.1076 1.13274 13.8194 0.864117 14.6825 0.858745ZM14.6825 0.858745L14.6834 1.00874L14.6825 0.858745ZM50.4446 47.1935H50.0559H49.9872H49.9185H49.8498H49.7811H49.7124H49.6437H49.575H49.5062H49.4375H49.3688H49.3001H49.2314H49.1627H49.094H49.0253H48.9566H48.8879H48.8192H48.7505H48.6818H48.613H48.5443H48.4756H48.4069H48.3382H48.2695H48.2008H48.1321H48.0634H47.9947H47.926H47.8573H47.7886H47.7198H47.6511H47.5824H47.5137H47.445H47.3763H47.3076H47.2389H47.1702H47.1015H47.0328H46.9641H46.8954H46.8267H46.7579H46.6892H46.6205H46.5518H46.4831H46.4144H46.3457H46.277H46.2083H46.1396H46.0709H46.0022H45.9335H45.8647H45.796H45.7273H45.6586H45.5899H45.5212H45.4525H45.3838H45.3151H45.2464H45.1777H45.109H45.0403H44.9715H44.9028H44.8341H44.7654H44.6967H44.628H44.5593H44.4906H44.4219H44.3532H44.2845H44.2158H44.1471H44.0784H44.0096H43.9409H43.8722H43.8035H43.7348H43.6661H43.5974H43.5287H43.46H43.3913H43.3226H43.2539H43.1852H43.1165H43.0477H42.979H42.9103H42.8416H42.7729H42.7042H42.6355H42.5668H42.4981H42.4294H42.3607H42.292H42.2233H42.1545H42.0858H42.0171H41.9484H41.8797H41.811H41.7423H41.6736H41.6049H41.5362H41.4675H41.3988H41.3301H41.2613H41.1926H41.1239H41.0552H40.9865H40.9178H40.8491H40.7804H40.7117H40.643H40.5743H40.5056H40.4369H40.3682H40.2994H40.2307H40.162H40.0933H40.0246H39.9559H39.8872H39.8185H39.7498H39.6811H39.6124H39.5437H39.475H39.4062H39.3375H39.2688H39.2001H39.1314H39.0627H38.994H38.9253H38.8566H38.7879H38.7192H38.6505H38.5818H38.5131H38.4443H38.3756H38.3069H38.2382H38.1695H38.1008H38.0321H37.9634H37.8947H37.826H37.7573H37.6886H37.6199H37.5511H37.4824H37.4137H37.345H37.2763H37.2076H37.1389H37.0702H37.0015H36.9328H36.8641H36.7954H36.7267H36.658H36.5892H36.5205H36.4518H36.3831H36.3144H36.2457H36.177H36.1083H36.0396H35.9709H35.9022H35.8335H35.7648H35.696H35.6273H35.5586H35.4899H35.4212H35.3525H35.2838H35.2151H35.1464H35.0777H35.009H34.9403H34.8716H34.8029H34.7341H34.6654H34.5967H34.528H34.4593H34.3906H34.3219H34.2532H34.1845H34.1158H34.0471H33.9784H33.9097H33.8409H33.7722H33.7035H33.6348H33.5661H33.4974H33.4287H33.36H33.2913H33.2226H33.1539H33.0852H33.0165H32.9477H32.879H32.8103H32.7416H32.6729H32.6042H32.5355H32.4668H32.3981H32.3294H32.2607H32.192H32.1233H32.0546H31.9858H31.9171H31.8484H31.7797H31.711H31.6423H31.5736H31.5049H31.4362H31.3675H31.2988H31.2301H31.1614H31.0926H31.0239H30.9552H30.8865H30.8178H30.7491H30.6804H30.6117H30.543H30.4743H30.4056H30.3369H30.2682H30.1995H30.1307H30.062H29.9933H29.9246H29.8559H29.7872H29.7185H29.6498H29.5811H29.5124H29.4437H29.375H29.3063H29.2375H29.1688H29.1001H29.0314H28.9627H28.894H28.8253H28.7566H28.6879H28.6192H28.5505H28.4818H28.4131H28.3444H28.2756H28.2069H28.1382H28.0695H28.0008H27.9321H27.8634H27.7947H27.726H27.6573H27.5886H27.5199H27.4512H27.3824H27.3137H27.245H27.1763H27.1076H27.0389H26.9702H26.9015H26.8328H26.7641H26.6954H26.6267H26.558H26.4892H26.4205H26.3518H26.2831H26.2144H26.1457H26.077H26.0083H25.9396H25.8709H25.8022H25.7335H25.6648H25.5961H25.5273H25.4586H25.3899H25.3212H25.2525H25.1838H25.1151H25.0464H24.9777H24.909H24.8403H24.7716H24.7029H24.6341H24.5654H24.4967H24.428H24.3593H24.2906H24.2219H24.1532H24.0845H24.0158H23.9471H23.8784H23.8097H23.741H23.6722H23.6035H23.5348H23.4661H23.3974H23.3287H23.26H23.1913H23.1226H23.0539H22.9852H22.9165H22.8478H22.779H22.7103H22.6416H22.5729H22.5042H22.4355H22.3668H22.2981H22.2294H22.1607H22.092H22.0233H21.9546H21.8859H21.8171H21.7484H21.6797H21.611H21.5423H21.4736H21.4049H21.3362H21.2675H21.1988H21.1301H21.0614H20.9927H20.9239H20.8552H20.7865H20.7178H20.6491H20.5804H20.5117H20.443H20.3743H20.3056H20.2369H20.1682H20.0995H20.0308H19.962H19.8933H19.8246H19.7559H19.6872H19.6185H19.5498H19.4811H19.4124H19.3437H19.275H19.2063H19.1376H19.0688H19.0001H18.9314H18.8627H18.794H18.7253H18.6566H18.5879H18.5192H18.4505H18.3818H18.3131H18.2444H18.1756H18.1069H18.0382H17.9695H17.9008H17.8321H17.7634H17.6947H17.626H17.5573H17.4886H17.4199H17.3512H17.2825H17.2137H17.145H17.0763H17.0076H16.9389H16.8702H16.8015H16.7328H16.6641H16.5954H16.5267H16.458H16.3893H16.3205H16.2518H16.1831H16.1144H16.0457H15.977H15.9083H15.8396H15.7709H15.7022H15.6335H15.5648H15.4961H15.4274H15.3586H15.2899H15.2212H15.1525H15.0838H15.0151H14.9464H14.8777C14.3912 47.1935 14.1514 47.1304 14.0203 46.9981C13.8887 46.8653 13.8265 46.6225 13.8265 46.1325C13.8265 44.5063 13.8265 42.8802 13.8265 41.254C13.8268 29.8708 13.8271 18.4885 13.8133 7.10605C13.8134 6.86948 13.8526 6.75273 13.9142 6.68208C13.9776 6.60938 14.0909 6.55479 14.3185 6.51L14.3185 6.51C16.5597 6.06855 18.5629 7.23865 19.2187 9.40825C19.3207 9.74757 19.3999 10.0933 19.4805 10.4449C19.4938 10.5031 19.5072 10.5615 19.5207 10.62L50.4446 47.1935ZM50.4446 47.1935C50.2509 45.5764 49.4683 44.3516 48.262 43.3385C47.2903 42.5229 46.1391 42.0385 44.9579 41.5415C44.8704 41.5047 44.7828 41.4678 44.695 41.4308C42.5829 40.5383 40.9366 39.3035 39.7884 37.7144C38.6399 36.125 37.9962 34.1901 37.8755 31.9082L37.8755 31.9081C37.8194 30.836 37.4602 29.9324 36.7755 29.1275L50.4446 47.1935ZM28.3314 18.6265C28.3293 18.7264 28.3269 18.8264 28.3245 18.9265C28.3102 19.5218 28.2959 20.1192 28.3498 20.709C28.4732 22.0637 29.1362 23.1827 30.1812 24.0272C31.0634 24.7395 32.0257 25.3624 32.9906 25.9647C34.4058 26.848 35.7987 27.7494 36.8897 29.0303L28.3314 18.6265ZM28.3314 18.6265C28.3472 17.9089 28.1398 17.2692 27.78 16.6488C27.0711 15.4262 25.883 14.956 24.6201 14.5261C23.5764 14.1712 22.5406 13.7529 21.5731 13.2322C20.5386 12.6753 19.9307 11.7299 19.6668 10.5863C19.6534 10.5282 19.6401 10.4702 19.6268 10.4121C19.5464 10.0608 19.4659 9.70951 19.3623 9.36495L28.3314 18.6265ZM38.0759 27.652C38.173 27.6464 38.2443 27.6429 38.3167 27.6429C39.0861 27.6429 39.8555 27.6427 40.6248 27.6424C42.1634 27.6418 43.7018 27.6412 45.2403 27.6429H45.2405C45.6785 27.6429 45.9119 27.7099 46.0435 27.8377C46.1737 27.9641 46.2418 28.187 46.2418 28.6093V28.6095V28.611C46.2431 30.355 46.2445 32.0976 46.2418 33.8414C46.2412 34.2342 46.1719 34.4521 46.0457 34.5783C45.9194 34.7045 45.7007 34.7745 45.3057 34.7757L45.3056 34.7757C44.6985 34.7778 44.0902 34.7774 43.4815 34.777C42.5673 34.7763 41.6522 34.7757 40.7389 34.7835L40.7383 34.7835C40.5917 34.7854 40.5042 34.7679 40.4482 34.7339C40.4007 34.705 40.3543 34.6507 40.3264 34.5182L38.0759 27.652ZM38.0759 27.652C39.444 29.065 39.9052 30.6966 39.8977 32.5226L38.0759 27.652ZM30.1392 19.723L30.1392 19.7233C30.1267 19.9065 30.1328 20.0931 30.1457 20.2831L30.1458 20.2838C30.1913 21.0017 30.4238 21.6444 30.8998 22.1803C30.9372 22.2223 30.9942 22.2657 31.0596 22.299C31.1256 22.3327 31.1897 22.3508 31.2391 22.3529L31.2395 22.3529C31.8055 22.3786 32.3751 22.3748 32.9437 22.3568C33.1749 22.3492 33.3503 22.28 33.4666 22.1721C33.5812 22.0659 33.6529 21.9093 33.6546 21.696L33.6546 21.6959C33.6716 19.7619 33.6703 17.8265 33.6546 15.8924C33.6529 15.6875 33.5833 15.5288 33.4732 15.4207C33.3627 15.3122 33.2001 15.2436 32.9927 15.2407C32.9927 15.2407 32.9926 15.2407 32.9925 15.2407L32.9945 15.0907C31.9988 15.0787 31.0031 15.0806 29.9415 15.0826L30.1392 19.723ZM30.1392 19.723C30.2428 18.1569 30.1192 16.6162 28.9799 15.2341L30.1392 19.723ZM42.7735 38.0061C42.4271 37.6962 42.1047 37.3646 41.7419 36.9915C41.6654 36.9128 41.5871 36.8324 41.5064 36.7498C41.629 36.7424 41.7156 36.7374 41.8049 36.7374L41.8052 36.7374C42.2754 36.7363 42.7467 36.737 43.2184 36.7376C43.9269 36.7385 44.6362 36.7394 45.3439 36.7348C46.2222 36.7294 46.9435 36.4641 47.446 35.9673C47.9487 35.4703 48.2156 34.7581 48.217 33.8924C48.2187 32.7387 48.2182 31.5854 48.2176 30.4326C48.2173 29.8562 48.217 29.28 48.217 28.7039C48.217 27.727 47.9689 26.9646 47.4487 26.4476C46.9287 25.9307 46.1617 25.6839 45.1775 25.6839L42.7735 38.0061ZM52.438 47.1909C51.9881 43.6091 49.767 41.5059 46.734 40.0581H46.74H46.762H46.7839H46.8059H46.8278H46.8498H46.8718H46.8937H46.9157H46.9376H46.9596H46.9815H47.0035H47.0254H47.0474H47.0693H47.0913H47.1133H47.1352H47.1572H47.1791H47.2011H47.223H47.245H47.2669H47.2889H47.3108H47.3328H47.3548H47.3767H47.3987H47.4206H47.4426H47.4645H47.4865H47.5084H47.5304H47.5523H47.5743H47.5963H47.6182H47.6402H47.6621H47.6841H47.706H47.728H47.7499H47.7719H47.7939H47.8158H47.8378H47.8597H47.8817H47.9036H47.9256H47.9475H47.9695H47.9915H48.0134H48.0354H48.0573H48.0793H48.1012H48.1232H48.1451H48.1671H48.1891H48.211H48.233H48.2549H48.2769H48.2988H48.3208H48.3427H48.3647H48.3867H48.4086H48.4306H48.4525H48.4745H48.4964H48.5184H48.5403H48.5623H48.5843H48.6062H48.6282H48.6501H48.6721H48.694H48.716H48.738H48.7599H48.7819H48.8038H48.8258H48.8477H48.8697H48.8916H48.9136H48.9356H48.9575H48.9795H49.0014H49.0234H49.0453H49.0673H49.0893H49.1112H49.1332H49.1551H49.1771H49.199H49.221H49.243H49.2649H49.2869H49.3088H49.3308H49.3527H49.3747H49.3966H49.4186H49.4406H49.4625H49.4845H49.5064H49.5284H49.5503H49.5723H49.5943H49.6162H49.6382H49.6601H49.6821H49.704H49.726H49.748H49.7699H49.7919H49.8138H49.8358H49.8577H49.8797H49.9017H49.9236H49.9456H49.9675H49.9895H50.0114H50.0334H50.0554H50.0773H50.0993H50.1212H50.1432H50.1651H50.1871H50.2091H50.231H50.253H50.2749H50.2969H50.3188H50.3408H50.3628H50.3847H50.4067H50.4286H50.4506H50.4725H50.4945H50.5165H50.5384H50.5604H50.5823H50.6043H50.6262H50.6482H50.6702H50.6921H50.7141H50.736H50.758H50.7799H50.8019H50.8239H50.8458H50.8678H50.8897H50.9117H50.9336H50.9556H50.9776H50.9995H51.0215H51.0434H51.0654H51.0873H51.1093H51.1313H51.1532H51.1752H51.1971H51.2191H51.241H51.263H51.285H51.3069H51.3289H51.3508H51.3728H51.3948H51.4167H51.4387H51.4606H51.4826H51.5045H51.5265H51.5485H51.5704H51.5924H51.6143H51.6363H51.6582H51.6802H51.7022H51.7241H51.7461H51.768H51.79H51.8119H51.8339H51.8559H51.8778H51.8998H51.9217H51.9437H51.9656H51.9876H52.0096H52.0315H52.0535H52.0754H52.0974H52.1194H52.1413H52.1633H52.1852H52.2072H52.2291H52.2511H52.2731H52.295H52.317H52.3389H52.3609H52.3828H52.4048H52.4268H52.4487H52.4707H52.4926H52.5146H52.5365H52.5585H52.5805H52.6024H52.6244H52.6463H52.6683H52.6903H52.7122H52.7342H52.7561H52.7781H52.8H52.822H52.844H52.8659H52.8879H52.9098H52.9318H52.9537H52.9757H52.9977H53.0196H53.0416H53.0635H53.0855H53.1074H53.1294H53.1514H53.1733H53.1953H53.2172H53.2392H53.2611H53.2831H53.3051H53.327H53.349H53.3709H53.3929H53.4148H53.4368H53.4588H53.4807H53.5027H53.5246H53.5466H53.5685H53.5905H53.6125H53.6344H53.6564H53.6783H53.7003H53.7222H53.7442H53.7662H53.7881H53.8101H53.832H53.854H53.8759H53.8979H53.9199H53.9418H53.9638H53.9857H54.0077H54.0297H54.0516H54.0736H54.0955H54.1175H54.1394H54.1614H54.1833H54.2053H54.2273H54.2492H54.2712H54.2931H54.3151H54.3371H54.359H54.381H54.4029H54.4249H54.4468H54.4688H54.4907H54.5127H54.5347H54.5566H54.5786H54.6005H54.6225H54.6444H54.6664H54.6884H54.7103H54.7323H54.7542H54.7762H54.7981H54.8201H54.8421H54.864H54.886H54.9079H54.9299H54.9518H54.9738H54.9958H55.0177H55.0397H55.0616H55.0836H55.1055H55.1275H55.1494H55.1714H55.1934H55.2153H55.2373H55.2592H55.2812H55.3031H55.3251H55.3471H55.369H55.391H55.4129H55.4349H55.4568H55.4788H55.5008H55.5227H55.5447H55.5666H55.5886H55.6105H55.6325H55.6544H55.6764H55.6984H55.7203H55.7423H55.7642H55.7862H55.8081H55.8301H55.8521H55.874H55.896H55.9179H55.9399H55.9618H55.9838H56.0057H56.0277H56.0497H56.0716H56.0936H56.1155H56.1375H56.1594H56.1814H56.2033H56.2253H56.2473H56.2692H56.2912H56.3131H56.3351H56.357H56.379H56.4009H56.4229H56.4449H56.4668H56.4888H56.5107H56.5327H56.5546H56.5766H56.5985H56.6205H56.6424H56.6644H56.6864H56.7083H56.7303H56.7522H56.7742H56.7961H56.8181H56.84H56.862H56.884H56.9059H56.9279H56.9498H56.9718H56.9937H57.0157H57.0376H57.0596H57.0815H57.1035H57.1255H57.1474H57.1694H57.1913H57.2133H57.2352H57.2572H57.2791H57.3011H57.323H57.345H57.367H57.3889H57.4109H57.4328H57.4548H57.4767H57.4987H57.5206H57.5426H57.5645H57.5865H57.6085H57.6304H57.6524H57.6743H57.6963H57.7182H57.7402H57.7621C58.2519 40.0581 58.495 40.1211 58.6281 40.2532C58.7608 40.3849 58.8239 40.6251 58.8239 41.11C58.8239 41.6807 58.8242 42.2514 58.8244 42.8221C58.825 43.9628 58.8256 45.1034 58.8239 46.2437C58.8232 46.6498 58.7542 46.8693 58.6258 46.9951C58.4965 47.1218 58.2698 47.1902 57.8525 47.1909C56.6356 47.1926 55.4189 47.192 54.1862 47.1914C53.6075 47.1912 53.0253 47.1909 52.438 47.1909ZM21.0555 3.3795L21.0555 3.37972C21.0768 4.8516 21.0738 6.32302 21.0707 7.79589C21.0702 8.05759 21.0697 8.31935 21.0693 8.58115C20.4483 7.16138 19.617 6.063 18.5258 5.35854C17.2904 4.56103 15.7413 4.28083 13.8304 4.58505C13.8293 4.50057 13.8275 4.41712 13.8257 4.33444C13.8191 4.02352 13.8128 3.72365 13.8403 3.42247C13.858 3.23376 13.9257 3.0876 14.0268 2.98911C14.1268 2.89165 14.2713 2.82927 14.4663 2.82817L14.4664 2.82817C16.4625 2.81522 18.4586 2.81522 20.4546 2.82946C20.8178 2.83275 21.0514 3.06696 21.0555 3.3795Z" fill="#080F2F" stroke="#080F2F" stroke-width="0.3"/>
<path d="M29.103 11.9081H29.103C28.1479 11.9074 27.3925 11.6561 26.8763 11.1461C26.3597 10.6358 26.1056 9.88923 26.1056 8.94632C26.1056 8.35983 26.1053 7.77312 26.105 7.18632C26.1044 6.0124 26.1038 4.83812 26.1056 3.66454L26.1056 3.66439C26.1076 2.82667 26.3755 2.12339 26.8686 1.62864C27.3617 1.13379 28.066 0.861755 28.9137 0.859735L28.9138 0.859735C34.4146 0.850669 39.9155 0.849373 45.415 0.859735L29.103 11.9081ZM29.103 11.9081C30.8823 11.9089 32.661 11.9086 34.4399 11.9083C35.329 11.9082 36.2181 11.9081 37.1073 11.9081H29.103ZM37.1086 11.9081C38.0139 11.9081 38.9192 11.9085 39.8246 11.9089C41.6364 11.9098 43.4483 11.9106 45.2601 11.9081C46.185 11.9067 46.9287 11.6495 47.4414 11.1456C47.9545 10.6413 48.216 9.91 48.2167 9.00223C48.2193 7.22525 48.2206 5.44811 48.2167 3.6709V3.67087C48.2146 2.83149 47.9479 2.12635 47.4563 1.63023C46.9644 1.13393 46.2617 0.861091 45.4151 0.859735L37.1086 11.9081ZM29.0624 2.81362L29.0624 2.81362C30.8733 2.81276 32.6846 2.81305 34.4958 2.81333C35.401 2.81348 36.306 2.81362 37.211 2.81362C37.2114 2.81362 37.2119 2.81362 37.2123 2.81362H37.2265H37.2421H37.2576H37.2732H37.2887H37.3042H37.3198H37.3353H37.3509H37.3664H37.3819H37.3975H37.413H37.4285H37.4441H37.4596H37.4752H37.4907H37.5062H37.5218H37.5373H37.5528H37.5684H37.5839H37.5995H37.615H37.6305H37.6461H37.6616H37.6771H37.6927H37.7082H37.7238H37.7393H37.7548H37.7704H37.7859H37.8014H37.817H37.8325H37.8481H37.8636H37.8791H37.8947H37.9102H37.9257H37.9413H37.9568H37.9724H37.9879H38.0034H38.019H38.0345H38.05H38.0656H38.0811H38.0967H38.1122H38.1277H38.1433H38.1588H38.1743H38.1899H38.2054H38.2209H38.2365H38.252H38.2676H38.2831H38.2986H38.3142H38.3297H38.3452H38.3608H38.3763H38.3919H38.4074H38.4229H38.4385H38.454H38.4695H38.4851H38.5006H38.5161H38.5317H38.5472H38.5627H38.5783H38.5938H38.6094H38.6249H38.6404H38.656H38.6715H38.687H38.7026H38.7181H38.7336H38.7492H38.7647H38.7803H38.7958H38.8113H38.8269H38.8424H38.8579H38.8735H38.889H38.9045H38.9201H38.9356H38.9511H38.9667H38.9822H38.9978H39.0133H39.0288H39.0444H39.0599H39.0754H39.091H39.1065H39.122H39.1376H39.1531H39.1686H39.1842H39.1997H39.2153H39.2308H39.2463H39.2619H39.2774H39.2929H39.3085H39.324H39.3395H39.3551H39.3706H39.3861H39.4017H39.4172H39.4328H39.4483H39.4638H39.4794H39.4949H39.5104H39.526H39.5415H39.557H39.5726H39.5881H39.6036H39.6192H39.6347H39.6502H39.6658H39.6813H39.6969H39.7124H39.7279H39.7435H39.759H39.7745H39.7901H39.8056H39.8211H39.8367H39.8522H39.8677H39.8833H39.8988H39.9143H39.9299H39.9454H39.9609H39.9765H39.992H40.0076H40.0231H40.0386H40.0542H40.0697H40.0852H40.1008H40.1163H40.1318H40.1474H40.1629H40.1784H40.194H40.2095H40.225H40.2406H40.2561H40.2716H40.2872H40.3027H40.3182H40.3338H40.3493H40.3649H40.3804H40.3959H40.4115H40.427H40.4425H40.4581H40.4736H40.4891H40.5047H40.5202H40.5357H40.5513H40.5668H40.5823H40.5979H40.6134H40.6289H40.6445H40.66H40.6755H40.6911H40.7066H40.7221H40.7377H40.7532H40.7688H40.7843H40.7998H40.8154H40.8309H40.8464H40.862H40.8775H40.893H40.9086H40.9241H40.9396H40.9552H40.9707H40.9862H41.0018H41.0173H41.0328H41.0484H41.0639H41.0794H41.095H41.1105H41.126H41.1416H41.1571H41.1727H41.1882H41.2037H41.2193H41.2348H41.2503H41.2659H41.2814H41.2969H41.3125H41.328H41.3435H41.3591H41.3746H41.3901H41.4057H41.4212H41.4367H41.4523H41.4678H41.4833H41.4989H41.5144H41.5299H41.5455H41.561H41.5766H41.5921H41.6076H41.6232H41.6387H41.6542H41.6698H41.6853H41.7008H41.7164H41.7319H41.7474H41.763H41.7785H41.794H41.8096H41.8251H41.8406H41.8562H41.8717H41.8872H41.9028H41.9183H41.9338H41.9494H41.9649H41.9805H41.996H42.0115H42.0271H42.0426H42.0581H42.0737H42.0892H42.1047H42.1203H42.1358H42.1513H42.1669H42.1824H42.1979H42.2135H42.229H42.2445H42.2601H42.2756H42.2911H42.3067H42.3222H42.3378H42.3533H42.3688H42.3844H42.3999H42.4154H42.431H42.4465H42.462H42.4776H42.4931H42.5086H42.5242H42.5397H42.5552H42.5708H42.5863H42.6018H42.6174H42.6329H42.6485H42.664H42.6795H42.6951H42.7106H42.7261H42.7417H42.7572H42.7727H42.7883H42.8038H42.8193H42.8349H42.8504H42.8659H42.8815H42.897H42.9125H42.9281H42.9436H42.9592H42.9747H42.9902H43.0058H43.0213H43.0368H43.0524H43.0679H43.0834H43.099H43.1145H43.13H43.1456H43.1611H43.1767H43.1922H43.2077H43.2233H43.2388H43.2543H43.2699H43.2854H43.3009H43.3165H43.332H43.3475H43.3631H43.3786H43.3941H43.4097H43.4252H43.4408H43.4563H43.4718H43.4874H43.5029H43.5184H43.534H43.5495H43.565H43.5806H43.5961H43.6117H43.6272H43.6427H43.6583H43.6738H43.6893H43.7049H43.7204H43.7359H43.7515H43.767H43.7825H43.7981H43.8136H43.8292H43.8447H43.8602H43.8758H43.8913H43.9068H43.9224H43.9379H43.9534H43.969H43.9845H44.0001H44.0156H44.0311H44.0467H44.0622H44.0777H44.0933H44.1088H44.1244H44.1399H44.1554H44.171H44.1865H44.202H44.2176H44.2331H44.2486H44.2642H44.2797H44.2953H44.3108H44.3263H44.3419H44.3574H44.3729H44.3885H44.404H44.4196H44.4351H44.4506H44.4662H44.4817H44.4972H44.5128H44.5283H44.5438H44.5594H44.5749H44.5905H44.606H44.6215H44.6371H44.6526H44.6681H44.6837H44.6992H44.7148H44.7303H44.7458H44.7614H44.7769H44.7924H44.808H44.8235H44.8391H44.8546H44.8701H44.8857H44.9012H44.9168H44.9323H44.9478H44.9634H44.9789H44.9944H45.01H45.0255H45.0411H45.0566H45.0721H45.0877H45.1032H45.1187H45.1343H45.1498H45.1654C45.6598 2.81362 45.9076 2.87624 46.0433 3.00771C46.1773 3.13755 46.2415 3.37365 46.2415 3.85126V3.85137V3.85157C46.2428 5.57924 46.2442 7.30672 46.2415 9.03413C46.2409 9.41003 46.171 9.6246 46.0464 9.75017C45.9222 9.87539 45.7094 9.94639 45.3334 9.94639H45.3333C39.8839 9.94899 34.4331 9.94899 28.9837 9.94639H28.9836C28.6092 9.94639 28.3975 9.87514 28.2741 9.74967C28.1501 9.62355 28.0807 9.4079 28.0807 9.0305L28.0807 9.03027C28.079 7.86743 28.0795 6.70529 28.0801 5.54278C28.0804 4.96138 28.0807 4.37988 28.0807 3.79816C28.0807 3.36595 28.147 3.13795 28.275 3.00934C28.4027 2.88094 28.6298 2.81362 29.0624 2.81362Z" fill="#080F2F" stroke="#080F2F" stroke-width="0.3"/>
<path d="M49.7221 24.3223C48.8334 24.3223 47.9449 24.3224 47.0564 24.3226C45.2775 24.3228 43.4988 24.3231 41.7195 24.3223H49.7221ZM49.7221 24.3223L49.7224 24.3236C50.508 24.3236 51.2937 24.3242 52.0794 24.3248C54.0441 24.3264 56.0092 24.328 57.9741 24.3197L57.9742 24.3197C58.8227 24.3156 59.5298 24.0445 60.0259 23.5523C60.522 23.0601 60.793 22.3606 60.7951 21.5267C60.8003 19.7017 60.8016 17.8752 60.7951 16.0499C60.7923 15.2281 60.5222 14.5326 60.0316 14.0417C59.5409 13.5508 58.8426 13.2773 58.008 13.2752L58.0079 13.2752C52.49 13.2636 46.9733 13.2636 41.4566 13.2752L41.4566 13.2752C40.6247 13.2773 39.9298 13.553 39.4421 14.0473C38.9548 14.5413 38.6873 15.2404 38.6852 16.0657L38.6852 16.0657C38.6826 17.2393 38.6835 18.4138 38.6844 19.5877C38.6848 20.1745 38.6852 20.7612 38.6852 21.3476L38.6852 21.3477C38.6859 22.3034 38.9384 23.0542 39.4595 23.565C39.9801 24.0753 40.7447 24.3223 41.7194 24.3223H49.7221ZM57.8474 22.3632L57.8474 22.3632C58.2669 22.3632 58.495 22.295 58.6251 22.1685C58.754 22.0431 58.8232 21.8245 58.8238 21.4199C58.8265 19.6769 58.8252 17.9351 58.8238 16.1919L58.8238 16.1879V16.1878C58.8238 15.7766 58.7556 15.5537 58.6282 15.4262C58.5007 15.2987 58.2773 15.2298 57.8643 15.2291L57.8645 15.0799L57.8645 15.2291C52.4478 15.2278 47.0299 15.2265 41.6132 15.2291H41.6132C41.2023 15.2291 40.982 15.2981 40.8565 15.4258C40.7303 15.5543 40.663 15.7796 40.663 16.1955V16.1957C40.6621 17.337 40.6624 18.4777 40.6627 19.6186C40.6629 20.1892 40.663 20.7599 40.663 21.3307C40.663 21.8004 40.7269 22.0369 40.8575 22.1675C40.9883 22.2983 41.2253 22.3626 41.6961 22.3632C43.485 22.3641 45.2744 22.3638 47.0637 22.3635C47.9579 22.3633 48.852 22.3632 49.7461 22.3632H57.8474ZM57.8474 22.3632C56.0471 22.3641 54.2469 22.3638 52.4466 22.3635C51.5469 22.3633 50.6471 22.3632 49.7474 22.3632H57.8474Z" fill="#080F2F" stroke="#080F2F" stroke-width="0.3"/>
<path d="M19.4124 24.0196H19.4068L19.4066 24.1694C19.4052 25.6191 20.5754 26.7913 22.0327 26.8036H22.0327C23.5127 26.8159 24.7267 25.6402 24.7295 24.1815C24.7323 22.7177 23.5291 21.5429 22.045 21.5497L22.045 21.5497C20.6336 21.5564 19.4923 22.6387 19.4124 24.0196ZM22.7518 24.1562L22.7518 24.1563C22.7634 24.5128 22.4454 24.8444 22.0751 24.8498L22.075 24.8498C21.7143 24.8551 21.406 24.5691 21.3868 24.2146C21.3664 23.8373 21.6533 23.5207 22.0349 23.5048L22.035 23.5048C22.4121 23.4888 22.7401 23.7925 22.7518 24.1562Z" fill="#080F2F" stroke="#080F2F" stroke-width="0.3"/>
<path d="M38.8184 45.8305L38.9692 45.8314V45.826C40.382 45.7566 41.5163 44.6085 41.5095 43.2022V43.2022C41.5025 41.7703 40.3083 40.5865 38.8613 40.5728L38.8613 40.5728C37.393 40.5591 36.1734 41.7545 36.1762 43.2123C36.179 44.6578 37.3581 45.8223 38.8184 45.8305ZM39.5213 43.2227L39.5203 43.2631C39.4904 43.612 39.1879 43.8829 38.8133 43.8715L38.8132 43.8715C38.426 43.8598 38.1473 43.5578 38.1656 43.1713C38.1828 42.8124 38.4851 42.5263 38.8437 42.5305L38.8438 42.5305C39.2147 42.5348 39.5298 42.8597 39.5213 43.2227Z" fill="#080F2F" stroke="#080F2F" stroke-width="0.3"/>
<path d="M17.0112 11.6147C15.5485 11.6271 14.3794 12.79 14.3773 14.2396L17.0046 16.7303L17.0024 16.8803C17.0024 16.8803 17.0024 16.8803 17.0024 16.8803C18.4593 16.9022 19.6986 15.6964 19.7028 14.2479C19.707 12.7943 18.4839 11.6024 17.0112 11.6147L17.0112 11.6147ZM17.7211 14.2346L17.7218 14.2752C17.7052 14.6168 17.3956 14.9176 17.0357 14.9186H17.0357C16.6726 14.9197 16.3741 14.6349 16.3603 14.2779L16.3602 14.2775C16.3441 13.8891 16.6204 13.5935 17.0127 13.5828L17.0127 13.5828C17.4011 13.572 17.7148 13.8691 17.7211 14.2346Z" fill="#080F2F" stroke="#080F2F" stroke-width="0.3"/>
<path d="M21.3804 43.2467L21.3804 43.2468C21.358 44.6888 20.1634 45.836 18.7003 45.8319H18.7006V45.682L18.7002 45.8319L21.3804 43.2467ZM21.3804 43.2467C21.4013 41.7974 20.1886 40.5824 18.7237 40.5742C17.2708 40.5659 16.0716 41.7316 16.0562 43.1729L21.3804 43.2467ZM18.034 43.1907L18.034 43.1908C18.0253 43.5775 18.3091 43.8697 18.7018 43.8729L18.7449 43.8732C19.1106 43.8541 19.4007 43.5541 19.3987 43.2065L18.034 43.1907ZM18.034 43.1907C18.0415 42.8341 18.3369 42.5394 18.697 42.5319M18.034 43.1907L18.697 42.5319M18.697 42.5319C19.0626 42.5245 19.3965 42.8488 19.3987 43.2065L18.697 42.5319ZM18.6988 45.8319H18.6993L16.0562 43.173C16.0396 44.6536 17.208 45.8278 18.6988 45.8319Z" fill="#080F2F" stroke="#080F2F" stroke-width="0.3"/>
<path d="M28.6356 30.7711L28.6346 30.9221H28.6401C28.7074 32.3106 29.8268 33.3967 31.2424 33.4165L31.2425 33.4165C32.7296 33.4371 33.9458 32.2806 33.9598 30.8189L33.9598 30.8187C33.9723 29.3697 32.7543 28.1601 31.2892 28.1601C29.835 28.1601 28.6454 29.3273 28.6356 30.7711ZM31.9795 30.8125L31.9795 30.8126C31.9678 31.1761 31.6479 31.4726 31.2609 31.4576L31.2604 31.4576C30.8717 31.4437 30.5966 31.1432 30.6172 30.7541L30.6172 30.7539C30.6353 30.3994 30.946 30.109 31.3008 30.1152C31.6706 30.1228 31.9911 30.4576 31.9795 30.8125Z" fill="#080F2F" stroke="#080F2F" stroke-width="0.3"/>
<path d="M16.0561 31.6111L16.0556 31.7615H16.061C16.1346 33.1599 17.3012 34.2691 18.7236 34.2611H18.7236C20.1678 34.2529 21.3704 33.0706 21.3802 31.6397V31.6397C21.39 30.1804 20.1837 28.9992 18.7 29.0033L18.7 29.0033C17.2293 29.0074 16.0602 30.1563 16.0561 31.6111ZM18.7096 30.9598C19.0936 30.9598 19.4054 31.2733 19.3998 31.6321L19.3998 31.6321C19.3934 31.9906 19.0543 32.3124 18.6921 32.3008L18.6919 32.3008C18.3178 32.2892 18.0223 31.9725 18.0364 31.5937L18.0364 31.5935C18.0492 31.2289 18.3293 30.9598 18.7096 30.9598Z" fill="#080F2F" stroke="#080F2F" stroke-width="0.3"/>
<path d="M27.9083 36.4425L27.9082 36.4425C26.4468 36.4589 25.2759 37.6263 25.2787 39.0742C25.2815 40.5188 26.457 41.6915 27.9122 41.708C29.37 41.7244 30.6068 40.5162 30.6068 39.07V39.0699C30.6054 37.6166 29.3785 36.426 27.9083 36.4425ZM28.6225 39.0765L28.6221 39.117C28.5966 39.4642 28.2851 39.7521 27.9236 39.7451C27.5434 39.7365 27.2511 39.4288 27.263 39.0488L27.263 39.0485C27.2737 38.6847 27.5548 38.4114 27.9305 38.4093L27.9309 38.4093C28.3173 38.4061 28.6256 38.7125 28.6225 39.0765Z" fill="#080F2F" stroke="#080F2F" stroke-width="0.3"/>
<path d="M19.6984 38.2169C19.6826 37.6845 19.2033 37.2484 18.669 37.2713L18.6689 37.2713C18.1435 37.2941 17.7338 37.7152 17.7338 38.2423C17.7338 38.7923 18.1712 39.2236 18.7221 39.2159L18.7222 39.2159C19.2575 39.2083 19.7155 38.7489 19.6984 38.2169ZM19.6984 38.2169C19.6984 38.2168 19.6984 38.2167 19.6984 38.2167L19.5484 38.2215L19.6984 38.2171C19.6984 38.217 19.6984 38.2169 19.6984 38.2169ZM18.7201 39.066L18.7201 39.066L18.7201 39.066Z" fill="#080F2F" stroke="#080F2F" stroke-width="0.3"/>
<path d="M27.1018 28.4534C27.631 28.4518 28.0568 28.045 28.0755 27.5213L28.0755 27.5211C28.0942 26.98 27.6616 26.5237 27.1194 26.5099V26.5099L27.119 26.5099C26.585 26.4977 26.1138 26.9438 26.1083 27.4758L26.1083 27.4758C26.1036 28.0134 26.5607 28.4563 27.1018 28.4534ZM27.1018 28.4534C27.1019 28.4534 27.1019 28.4534 27.102 28.4534L27.1012 28.3034L27.1016 28.4534C27.1017 28.4534 27.1017 28.4534 27.1018 28.4534Z" fill="#080F2F" stroke="#080F2F" stroke-width="0.3"/>
<path d="M17.1701 22.5301L17.1701 22.5301C17.1654 23.0708 16.7104 23.5125 16.1679 23.4972M17.1701 22.5301L17.1701 22.5287C17.1701 22.5285 17.1701 22.5283 17.1701 22.5281M17.1701 22.5301V22.5288M17.1701 22.5301V22.5288M16.1679 23.4972C15.6353 23.4834 15.1823 23.0116 15.2043 22.4824L15.2043 22.4823C15.2262 21.9669 15.6673 21.5542 16.1869 21.5512L16.187 21.5512C16.7403 21.5481 17.1744 21.9771 17.1701 22.5281M16.1679 23.4972C16.168 23.4972 16.1681 23.4973 16.1682 23.4973L16.172 23.3473L16.1678 23.4972C16.1678 23.4972 16.1679 23.4972 16.1679 23.4972ZM17.1701 22.5281V22.5288M17.1701 22.5281V22.5288" fill="#080F2F" stroke="#080F2F" stroke-width="0.3"/>
<path d="M28.7534 43.8869C28.2429 43.8977 27.8006 44.3308 27.785 44.8391L27.785 44.8393C27.7693 45.3797 28.2176 45.8245 28.7634 45.8291L28.7634 45.8291C29.3211 45.8336 29.7524 45.4147 29.7509 44.8601L29.7504 44.7105H29.7374C29.6616 44.2408 29.2426 43.8758 28.7534 43.8869ZM28.7534 43.8869C28.7534 43.8869 28.7534 43.8869 28.7533 43.8869L28.7567 44.0368L28.7536 43.8869C28.7535 43.8869 28.7535 43.8869 28.7534 43.8869Z" fill="#080F2F" stroke="#080F2F" stroke-width="0.3"/>
<path d="M45.5457 43.8871C45.0282 43.8888 44.592 44.3113 44.5734 44.8269L44.5734 44.8269C44.5532 45.3848 44.9674 45.8159 45.5261 45.828L45.5264 45.828C46.0746 45.8386 46.5331 45.4171 46.5379 44.874M45.5457 43.8871C46.0778 43.8842 46.544 44.3442 46.5379 44.874M45.5457 43.8871C45.5457 43.8871 45.5456 43.8871 45.5455 43.8871L45.5464 44.0371L45.546 43.8871C45.5459 43.8871 45.5458 43.8871 45.5457 43.8871ZM46.5379 44.874C46.5379 44.8741 46.5379 44.8742 46.5379 44.8743L46.3879 44.8725L46.5379 44.8738C46.5379 44.8739 46.5379 44.8739 46.5379 44.874Z" fill="#080F2F" stroke="#080F2F" stroke-width="0.3"/>
<path d="M16.1769 10.2427L16.1768 10.2427C15.6522 10.2351 15.2215 9.82579 15.2059 9.30586L15.2059 9.30577C15.1902 8.77443 15.6449 8.3094 16.1794 8.30176L16.1794 8.30176C16.7198 8.2941 17.1697 8.73801 17.1704 9.27933L16.1769 10.2427ZM16.1769 10.2427C16.7351 10.2502 17.1698 9.83397 17.1704 9.28063M16.1769 10.2427L17.1704 9.28063M17.1704 9.28063H17.0204C17.0198 9.74753 16.6564 10.0991 16.1789 10.0927L17.1704 9.28063Z" fill="#080F2F" stroke="#080F2F" stroke-width="0.3"/>
<path d="M22.8854 18.533C22.3465 18.5222 21.9037 18.0616 21.9208 17.5261L22.8854 18.533ZM22.8854 18.533C23.4257 18.5451 23.8774 18.1013 23.8775 17.5582M22.8854 18.533L21.9208 17.526C21.938 16.9802 22.3953 16.5724 22.9468 16.5935M23.8775 17.5582C23.8775 17.5583 23.8775 17.5583 23.8775 17.5584L23.7275 17.558H23.8775C23.8775 17.5581 23.8775 17.5581 23.8775 17.5582ZM23.8775 17.5582C23.8789 17.0262 23.4797 16.6133 22.9468 16.5935M22.9468 16.5935C22.9468 16.5935 22.9468 16.5935 22.9469 16.5935L22.9411 16.7434L22.9467 16.5935C22.9467 16.5935 22.9467 16.5935 22.9468 16.5935Z" fill="#080F2F" stroke="#080F2F" stroke-width="0.3"/>
<path d="M24.5047 35.066C23.9769 35.0308 23.5835 34.5976 23.6021 34.0706L24.5047 35.066ZM24.5047 35.066C25.0595 35.1037 25.523 34.7166 25.5559 34.1664L24.5047 35.066ZM24.6296 33.1308C25.1724 33.1614 25.5885 33.6241 25.5559 34.1663L23.6021 34.0705C23.6021 34.0705 23.6021 34.0705 23.6021 34.0706C23.6208 33.531 24.091 33.1002 24.6296 33.1308ZM24.6296 33.1308C24.6296 33.1308 24.6296 33.1308 24.6296 33.1308L24.6211 33.2806L24.6295 33.1308C24.6295 33.1308 24.6295 33.1308 24.6296 33.1308Z" fill="#080F2F" stroke="#080F2F" stroke-width="0.3"/>
<path d="M35.4864 36.4501C34.9387 36.4487 34.4937 36.8829 34.5 37.4268L34.5 37.4268C34.5062 37.9677 34.9613 38.3954 35.5066 38.3832L35.5067 38.3832C36.0377 38.371 36.4473 37.9639 36.4567 37.4344M35.4864 36.4501C36.0394 36.4502 36.4675 36.8835 36.4567 37.4344M35.4864 36.4501C35.4865 36.4501 35.4866 36.4501 35.4866 36.4501L35.4862 36.6001V36.4501C35.4863 36.4501 35.4864 36.4501 35.4864 36.4501ZM36.4567 37.4344C36.4567 37.4343 36.4567 37.4343 36.4567 37.4342L36.3067 37.4316L36.4567 37.4345C36.4567 37.4345 36.4567 37.4344 36.4567 37.4344Z" fill="#080F2F" stroke="#080F2F" stroke-width="0.3"/>
</svg>
