<svg width="66" height="50" viewBox="0 0 66 50" fill="none" xmlns="http://www.w3.org/2000/svg">
<circle cx="18" cy="25" r="18" fill="#29AD33"/>
<mask id="path-2-outside-1_58_3688" maskUnits="userSpaceOnUse" x="16" y="0" width="50" height="50" fill="black">
<rect fill="white" x="16" width="50" height="50"/>
<path d="M17 43.8425V2.98794C17.6472 1.40688 18.2255 1.02007 19.9368 1.02007C28.697 1.02007 37.4586 1.04135 46.2188 1.00004C47.7936 0.992531 49.0267 2.00025 49.0041 3.77408C48.9466 8.25436 48.9854 12.7359 48.9854 17.2162C48.9854 17.3989 48.9854 17.5805 48.9854 17.8058C49.2145 17.8058 49.3834 17.8058 49.5524 17.8058C52.0048 17.8058 54.4558 17.7958 56.9082 17.8095C58.7584 17.8196 60.2831 18.9149 60.7901 20.6236C60.929 21.0931 60.9678 21.6051 60.9753 22.0995C60.9979 23.6117 60.9841 25.1252 60.9841 26.6487C61.1293 26.6937 61.2445 26.7325 61.3622 26.7651C64.9824 27.749 66.1867 32.0165 63.628 34.768C63.4903 34.9157 63.4039 35.1736 63.4039 35.3802C63.3901 39.018 63.3951 42.6558 63.3926 46.2936C63.3926 46.5264 63.3939 46.7642 63.3526 46.9933C63.156 48.0837 62.4375 48.6833 61.4285 49H38.0882C38.0382 48.9687 37.9918 48.9274 37.938 48.9086C36.7751 48.4905 36.2118 47.7044 36.2017 46.4763C36.2005 46.2648 36.2017 46.052 36.2017 45.8291H28.1926C28.1926 46.0507 28.1888 46.2497 28.1926 46.4488C28.2051 47.0784 28.0849 47.6969 27.6205 48.1262C27.2337 48.483 26.7292 48.7133 26.2773 49H20.5614C20.4913 48.9687 20.4237 48.9311 20.3511 48.9086C19.2508 48.5531 18.6123 47.6918 18.5973 46.5352C18.5948 46.3173 18.6136 46.097 18.5886 45.8817C18.5773 45.7803 18.511 45.6351 18.4296 45.5975C17.6672 45.242 17.2579 44.6086 17 43.8462V43.8425ZM18.5961 6.62574V7.15902C18.5961 19.1377 18.5961 31.1152 18.5961 43.0939C18.5961 43.9526 18.8502 44.2068 19.7165 44.2068C23.6998 44.2068 27.6831 44.2068 31.6664 44.2068C31.8316 44.2068 31.9969 44.2068 32.1646 44.2068V6.65078H26.9207C27.32 7.85378 27.7018 9.02173 28.0962 10.1847C28.2276 10.5727 28.1876 10.907 27.9347 11.2375C27.1961 12.2051 26.4726 13.1853 25.7365 14.1555C25.3697 14.6387 24.9253 14.7426 24.531 14.4559C24.1241 14.1617 24.0991 13.6848 24.4721 13.1828C25.0693 12.3816 25.6639 11.5792 26.2748 10.7881C26.445 10.5677 26.4838 10.38 26.3887 10.1071C26.0257 9.07807 25.6789 8.04281 25.3547 7.00129C25.2633 6.70836 25.1331 6.61322 24.8327 6.61948C23.8963 6.63701 22.9587 6.62574 22.0211 6.62574C20.8994 6.62574 19.7765 6.62574 18.5936 6.62574H18.5961ZM33.8158 6.64953V44.1755H36.1742C36.1855 44.0728 36.1992 43.9977 36.1992 43.9226C36.2005 41.0334 36.2055 38.1442 36.188 35.255C36.188 35.071 36.0465 34.8544 35.9101 34.7104C34.0023 32.6912 34.175 29.449 36.3545 27.7277C36.9854 27.2295 37.7753 26.9328 38.4926 26.5435C38.5239 26.5761 38.5552 26.6086 38.5865 26.6412C38.5865 26.4709 38.5865 26.3019 38.5865 26.1317C38.5865 24.7421 38.5752 23.3514 38.589 21.9618C38.614 19.5158 40.3227 17.8171 42.7625 17.8045C44.1058 17.7983 45.449 17.8045 46.7922 17.8045C46.9749 17.8045 47.1565 17.8045 47.3542 17.8045V6.64953H33.8133H33.8158ZM40.2176 26.6587C40.324 26.6925 40.4266 26.7275 40.5305 26.7563C42.5685 27.3297 43.7803 28.6666 44.1308 30.7434C44.2334 31.353 44.1809 31.989 44.1859 32.6124C44.1934 33.5287 44.1871 34.445 44.1871 35.3714H55.396C55.396 35.1673 55.396 34.9983 55.396 34.8293C55.3997 33.6113 55.391 32.3933 55.4122 31.1753C55.431 30.1413 55.8053 29.2287 56.445 28.4213C57.1936 27.4761 58.1838 26.9278 59.3805 26.67C59.3805 25.0639 59.3893 23.474 59.378 21.883C59.368 20.4234 58.3628 19.4269 56.8931 19.4069C56.112 19.3956 55.3309 19.3881 54.551 19.4169C54.3657 19.4231 54.1266 19.5308 54.0114 19.6723C53.4919 20.3157 52.9962 20.9792 52.5218 21.6564C52.4329 21.7828 52.4129 22.0382 52.478 22.1797C52.831 22.9445 53.2078 23.6981 53.6021 24.4417C53.8575 24.9212 53.8049 25.3205 53.4456 25.7223C52.9987 26.2231 52.5806 26.7501 52.1512 27.2658C51.3213 28.261 50.5101 29.2725 49.6463 30.2389C49.4611 30.4467 49.0755 30.5982 48.8051 30.5681C48.5873 30.5431 48.2919 30.2314 48.238 29.9986C48.1829 29.7607 48.3094 29.4089 48.4759 29.2036C49.5537 27.8667 50.6566 26.5485 51.7694 25.2404C51.986 24.9863 52.0085 24.7885 51.8495 24.503C51.5766 24.0136 51.3926 23.4678 51.0784 23.0084C50.4738 22.1246 50.5138 21.3622 51.2875 20.6011C51.6192 20.2744 51.8596 19.8538 52.1913 19.4106C48.884 19.4106 45.6981 19.3881 42.5134 19.4219C41.2804 19.4344 40.2852 20.3507 40.2364 21.5487C40.1675 23.2462 40.2188 24.9487 40.2188 26.6624L40.2176 26.6587ZM57.0233 47.4002C58.2614 47.4002 59.4744 47.4002 60.6874 47.4002C61.5412 47.4002 61.794 47.1423 61.794 46.276C61.794 42.5306 61.8028 38.7864 61.7853 35.0422C61.7828 34.5014 61.923 34.1121 62.3461 33.744C63.4327 32.7976 63.688 31.2178 63.0258 29.941C62.3561 28.6478 60.9203 27.9794 59.4794 28.2923C58.0886 28.594 57.0509 29.8158 57.0133 31.2679C56.9795 32.5773 57.0021 33.8892 57.0033 35.1999C57.0033 35.2575 57.0258 35.3151 57.0446 35.4077C57.2437 35.4077 57.4277 35.4077 57.6129 35.4077C59.1915 35.4139 60.1867 36.4016 60.1955 37.9764C60.1992 38.6624 60.2005 39.3497 60.1955 40.0357C60.1854 41.5792 59.1852 42.5894 57.6517 42.6082C57.4414 42.6107 57.2311 42.6082 57.0233 42.6082V47.4014V47.4002ZM42.551 35.4077C42.571 35.3013 42.5873 35.2575 42.5873 35.2124C42.5885 33.9481 42.5998 32.6825 42.5873 31.4181C42.5723 29.9084 41.5696 28.6341 40.1613 28.2998C38.7154 27.9568 37.2407 28.6241 36.561 29.9297C35.87 31.2554 36.1692 32.8164 37.3371 33.8341C37.6739 34.1271 37.8091 34.4538 37.8066 34.8944C37.7941 37.5959 37.8003 40.2961 37.8003 42.9975C37.8003 44.168 37.7966 45.3397 37.8028 46.5101C37.8053 47.0184 38.0695 47.3739 38.5251 47.3826C39.8633 47.4077 41.2028 47.3914 42.5648 47.3914V42.6044C42.2944 42.6044 42.0478 42.6119 41.8024 42.6032C40.3953 42.5506 39.4102 41.5404 39.3976 40.1358C39.3914 39.3397 39.3851 38.5435 39.4014 37.7473C39.4277 36.458 40.4442 35.4452 41.731 35.4077C41.9939 35.4002 42.2581 35.4077 42.5497 35.4077H42.551ZM49.7577 37.0013C47.1965 37.0013 44.6353 37.0013 42.0753 37.0013C41.2441 37.0013 40.9962 37.2554 40.995 38.0979C40.995 38.7375 40.9912 39.3785 40.995 40.0182C41 40.7029 41.2791 41.0033 41.9551 41.0046C47.1702 41.0096 52.3866 41.0096 57.6017 41.0046C58.3002 41.0046 58.5894 40.7017 58.5956 39.9956C58.6019 39.3559 58.5994 38.715 58.5956 38.0753C58.5919 37.2692 58.329 37.0025 57.5328 37.0013C54.9403 37 52.349 37.0013 49.7565 37.0013H49.7577ZM47.3843 5.00212C47.3843 4.57275 47.3843 4.19971 47.3843 3.82666C47.3843 2.82145 47.1802 2.61615 46.1875 2.61615C37.3985 2.61615 28.6094 2.61615 19.8216 2.61615C19.6651 2.61615 19.5087 2.60613 19.3534 2.62241C18.9716 2.66372 18.6687 2.87402 18.6349 3.24707C18.5811 3.82541 18.6211 4.41377 18.6211 5.00087H47.3843V5.00212ZM55.3734 42.6482H44.2134V47.3701H55.3734V42.6482ZM20.1959 45.8291C20.1959 46.1045 20.1846 46.3374 20.1984 46.5677C20.2272 47.0697 20.5276 47.3902 21.0284 47.3939C22.6169 47.4064 24.2055 47.4064 25.7941 47.3927C26.261 47.3889 26.5464 47.0922 26.5815 46.6341C26.6015 46.3749 26.5852 46.1133 26.5852 45.8291H20.1959Z"/>
</mask>
<path d="M17 43.8425V2.98794C17.6472 1.40688 18.2255 1.02007 19.9368 1.02007C28.697 1.02007 37.4586 1.04135 46.2188 1.00004C47.7936 0.992531 49.0267 2.00025 49.0041 3.77408C48.9466 8.25436 48.9854 12.7359 48.9854 17.2162C48.9854 17.3989 48.9854 17.5805 48.9854 17.8058C49.2145 17.8058 49.3834 17.8058 49.5524 17.8058C52.0048 17.8058 54.4558 17.7958 56.9082 17.8095C58.7584 17.8196 60.2831 18.9149 60.7901 20.6236C60.929 21.0931 60.9678 21.6051 60.9753 22.0995C60.9979 23.6117 60.9841 25.1252 60.9841 26.6487C61.1293 26.6937 61.2445 26.7325 61.3622 26.7651C64.9824 27.749 66.1867 32.0165 63.628 34.768C63.4903 34.9157 63.4039 35.1736 63.4039 35.3802C63.3901 39.018 63.3951 42.6558 63.3926 46.2936C63.3926 46.5264 63.3939 46.7642 63.3526 46.9933C63.156 48.0837 62.4375 48.6833 61.4285 49H38.0882C38.0382 48.9687 37.9918 48.9274 37.938 48.9086C36.7751 48.4905 36.2118 47.7044 36.2017 46.4763C36.2005 46.2648 36.2017 46.052 36.2017 45.8291H28.1926C28.1926 46.0507 28.1888 46.2497 28.1926 46.4488C28.2051 47.0784 28.0849 47.6969 27.6205 48.1262C27.2337 48.483 26.7292 48.7133 26.2773 49H20.5614C20.4913 48.9687 20.4237 48.9311 20.3511 48.9086C19.2508 48.5531 18.6123 47.6918 18.5973 46.5352C18.5948 46.3173 18.6136 46.097 18.5886 45.8817C18.5773 45.7803 18.511 45.6351 18.4296 45.5975C17.6672 45.242 17.2579 44.6086 17 43.8462V43.8425ZM18.5961 6.62574V7.15902C18.5961 19.1377 18.5961 31.1152 18.5961 43.0939C18.5961 43.9526 18.8502 44.2068 19.7165 44.2068C23.6998 44.2068 27.6831 44.2068 31.6664 44.2068C31.8316 44.2068 31.9969 44.2068 32.1646 44.2068V6.65078H26.9207C27.32 7.85378 27.7018 9.02173 28.0962 10.1847C28.2276 10.5727 28.1876 10.907 27.9347 11.2375C27.1961 12.2051 26.4726 13.1853 25.7365 14.1555C25.3697 14.6387 24.9253 14.7426 24.531 14.4559C24.1241 14.1617 24.0991 13.6848 24.4721 13.1828C25.0693 12.3816 25.6639 11.5792 26.2748 10.7881C26.445 10.5677 26.4838 10.38 26.3887 10.1071C26.0257 9.07807 25.6789 8.04281 25.3547 7.00129C25.2633 6.70836 25.1331 6.61322 24.8327 6.61948C23.8963 6.63701 22.9587 6.62574 22.0211 6.62574C20.8994 6.62574 19.7765 6.62574 18.5936 6.62574H18.5961ZM33.8158 6.64953V44.1755H36.1742C36.1855 44.0728 36.1992 43.9977 36.1992 43.9226C36.2005 41.0334 36.2055 38.1442 36.188 35.255C36.188 35.071 36.0465 34.8544 35.9101 34.7104C34.0023 32.6912 34.175 29.449 36.3545 27.7277C36.9854 27.2295 37.7753 26.9328 38.4926 26.5435C38.5239 26.5761 38.5552 26.6086 38.5865 26.6412C38.5865 26.4709 38.5865 26.3019 38.5865 26.1317C38.5865 24.7421 38.5752 23.3514 38.589 21.9618C38.614 19.5158 40.3227 17.8171 42.7625 17.8045C44.1058 17.7983 45.449 17.8045 46.7922 17.8045C46.9749 17.8045 47.1565 17.8045 47.3542 17.8045V6.64953H33.8133H33.8158ZM40.2176 26.6587C40.324 26.6925 40.4266 26.7275 40.5305 26.7563C42.5685 27.3297 43.7803 28.6666 44.1308 30.7434C44.2334 31.353 44.1809 31.989 44.1859 32.6124C44.1934 33.5287 44.1871 34.445 44.1871 35.3714H55.396C55.396 35.1673 55.396 34.9983 55.396 34.8293C55.3997 33.6113 55.391 32.3933 55.4122 31.1753C55.431 30.1413 55.8053 29.2287 56.445 28.4213C57.1936 27.4761 58.1838 26.9278 59.3805 26.67C59.3805 25.0639 59.3893 23.474 59.378 21.883C59.368 20.4234 58.3628 19.4269 56.8931 19.4069C56.112 19.3956 55.3309 19.3881 54.551 19.4169C54.3657 19.4231 54.1266 19.5308 54.0114 19.6723C53.4919 20.3157 52.9962 20.9792 52.5218 21.6564C52.4329 21.7828 52.4129 22.0382 52.478 22.1797C52.831 22.9445 53.2078 23.6981 53.6021 24.4417C53.8575 24.9212 53.8049 25.3205 53.4456 25.7223C52.9987 26.2231 52.5806 26.7501 52.1512 27.2658C51.3213 28.261 50.5101 29.2725 49.6463 30.2389C49.4611 30.4467 49.0755 30.5982 48.8051 30.5681C48.5873 30.5431 48.2919 30.2314 48.238 29.9986C48.1829 29.7607 48.3094 29.4089 48.4759 29.2036C49.5537 27.8667 50.6566 26.5485 51.7694 25.2404C51.986 24.9863 52.0085 24.7885 51.8495 24.503C51.5766 24.0136 51.3926 23.4678 51.0784 23.0084C50.4738 22.1246 50.5138 21.3622 51.2875 20.6011C51.6192 20.2744 51.8596 19.8538 52.1913 19.4106C48.884 19.4106 45.6981 19.3881 42.5134 19.4219C41.2804 19.4344 40.2852 20.3507 40.2364 21.5487C40.1675 23.2462 40.2188 24.9487 40.2188 26.6624L40.2176 26.6587ZM57.0233 47.4002C58.2614 47.4002 59.4744 47.4002 60.6874 47.4002C61.5412 47.4002 61.794 47.1423 61.794 46.276C61.794 42.5306 61.8028 38.7864 61.7853 35.0422C61.7828 34.5014 61.923 34.1121 62.3461 33.744C63.4327 32.7976 63.688 31.2178 63.0258 29.941C62.3561 28.6478 60.9203 27.9794 59.4794 28.2923C58.0886 28.594 57.0509 29.8158 57.0133 31.2679C56.9795 32.5773 57.0021 33.8892 57.0033 35.1999C57.0033 35.2575 57.0258 35.3151 57.0446 35.4077C57.2437 35.4077 57.4277 35.4077 57.6129 35.4077C59.1915 35.4139 60.1867 36.4016 60.1955 37.9764C60.1992 38.6624 60.2005 39.3497 60.1955 40.0357C60.1854 41.5792 59.1852 42.5894 57.6517 42.6082C57.4414 42.6107 57.2311 42.6082 57.0233 42.6082V47.4014V47.4002ZM42.551 35.4077C42.571 35.3013 42.5873 35.2575 42.5873 35.2124C42.5885 33.9481 42.5998 32.6825 42.5873 31.4181C42.5723 29.9084 41.5696 28.6341 40.1613 28.2998C38.7154 27.9568 37.2407 28.6241 36.561 29.9297C35.87 31.2554 36.1692 32.8164 37.3371 33.8341C37.6739 34.1271 37.8091 34.4538 37.8066 34.8944C37.7941 37.5959 37.8003 40.2961 37.8003 42.9975C37.8003 44.168 37.7966 45.3397 37.8028 46.5101C37.8053 47.0184 38.0695 47.3739 38.5251 47.3826C39.8633 47.4077 41.2028 47.3914 42.5648 47.3914V42.6044C42.2944 42.6044 42.0478 42.6119 41.8024 42.6032C40.3953 42.5506 39.4102 41.5404 39.3976 40.1358C39.3914 39.3397 39.3851 38.5435 39.4014 37.7473C39.4277 36.458 40.4442 35.4452 41.731 35.4077C41.9939 35.4002 42.2581 35.4077 42.5497 35.4077H42.551ZM49.7577 37.0013C47.1965 37.0013 44.6353 37.0013 42.0753 37.0013C41.2441 37.0013 40.9962 37.2554 40.995 38.0979C40.995 38.7375 40.9912 39.3785 40.995 40.0182C41 40.7029 41.2791 41.0033 41.9551 41.0046C47.1702 41.0096 52.3866 41.0096 57.6017 41.0046C58.3002 41.0046 58.5894 40.7017 58.5956 39.9956C58.6019 39.3559 58.5994 38.715 58.5956 38.0753C58.5919 37.2692 58.329 37.0025 57.5328 37.0013C54.9403 37 52.349 37.0013 49.7565 37.0013H49.7577ZM47.3843 5.00212C47.3843 4.57275 47.3843 4.19971 47.3843 3.82666C47.3843 2.82145 47.1802 2.61615 46.1875 2.61615C37.3985 2.61615 28.6094 2.61615 19.8216 2.61615C19.6651 2.61615 19.5087 2.60613 19.3534 2.62241C18.9716 2.66372 18.6687 2.87402 18.6349 3.24707C18.5811 3.82541 18.6211 4.41377 18.6211 5.00087H47.3843V5.00212ZM55.3734 42.6482H44.2134V47.3701H55.3734V42.6482ZM20.1959 45.8291C20.1959 46.1045 20.1846 46.3374 20.1984 46.5677C20.2272 47.0697 20.5276 47.3902 21.0284 47.3939C22.6169 47.4064 24.2055 47.4064 25.7941 47.3927C26.261 47.3889 26.5464 47.0922 26.5815 46.6341C26.6015 46.3749 26.5852 46.1133 26.5852 45.8291H20.1959Z" fill="#080F2F"/>
<path d="M17 43.8425V2.98794C17.6472 1.40688 18.2255 1.02007 19.9368 1.02007C28.697 1.02007 37.4586 1.04135 46.2188 1.00004C47.7936 0.992531 49.0267 2.00025 49.0041 3.77408C48.9466 8.25436 48.9854 12.7359 48.9854 17.2162C48.9854 17.3989 48.9854 17.5805 48.9854 17.8058C49.2145 17.8058 49.3834 17.8058 49.5524 17.8058C52.0048 17.8058 54.4558 17.7958 56.9082 17.8095C58.7584 17.8196 60.2831 18.9149 60.7901 20.6236C60.929 21.0931 60.9678 21.6051 60.9753 22.0995C60.9979 23.6117 60.9841 25.1252 60.9841 26.6487C61.1293 26.6937 61.2445 26.7325 61.3622 26.7651C64.9824 27.749 66.1867 32.0165 63.628 34.768C63.4903 34.9157 63.4039 35.1736 63.4039 35.3802C63.3901 39.018 63.3951 42.6558 63.3926 46.2936C63.3926 46.5264 63.3939 46.7642 63.3526 46.9933C63.156 48.0837 62.4375 48.6833 61.4285 49H38.0882C38.0382 48.9687 37.9918 48.9274 37.938 48.9086C36.7751 48.4905 36.2118 47.7044 36.2017 46.4763C36.2005 46.2648 36.2017 46.052 36.2017 45.8291H28.1926C28.1926 46.0507 28.1888 46.2497 28.1926 46.4488C28.2051 47.0784 28.0849 47.6969 27.6205 48.1262C27.2337 48.483 26.7292 48.7133 26.2773 49H20.5614C20.4913 48.9687 20.4237 48.9311 20.3511 48.9086C19.2508 48.5531 18.6123 47.6918 18.5973 46.5352C18.5948 46.3173 18.6136 46.097 18.5886 45.8817C18.5773 45.7803 18.511 45.6351 18.4296 45.5975C17.6672 45.242 17.2579 44.6086 17 43.8462V43.8425ZM18.5961 6.62574V7.15902C18.5961 19.1377 18.5961 31.1152 18.5961 43.0939C18.5961 43.9526 18.8502 44.2068 19.7165 44.2068C23.6998 44.2068 27.6831 44.2068 31.6664 44.2068C31.8316 44.2068 31.9969 44.2068 32.1646 44.2068V6.65078H26.9207C27.32 7.85378 27.7018 9.02173 28.0962 10.1847C28.2276 10.5727 28.1876 10.907 27.9347 11.2375C27.1961 12.2051 26.4726 13.1853 25.7365 14.1555C25.3697 14.6387 24.9253 14.7426 24.531 14.4559C24.1241 14.1617 24.0991 13.6848 24.4721 13.1828C25.0693 12.3816 25.6639 11.5792 26.2748 10.7881C26.445 10.5677 26.4838 10.38 26.3887 10.1071C26.0257 9.07807 25.6789 8.04281 25.3547 7.00129C25.2633 6.70836 25.1331 6.61322 24.8327 6.61948C23.8963 6.63701 22.9587 6.62574 22.0211 6.62574C20.8994 6.62574 19.7765 6.62574 18.5936 6.62574H18.5961ZM33.8158 6.64953V44.1755H36.1742C36.1855 44.0728 36.1992 43.9977 36.1992 43.9226C36.2005 41.0334 36.2055 38.1442 36.188 35.255C36.188 35.071 36.0465 34.8544 35.9101 34.7104C34.0023 32.6912 34.175 29.449 36.3545 27.7277C36.9854 27.2295 37.7753 26.9328 38.4926 26.5435C38.5239 26.5761 38.5552 26.6086 38.5865 26.6412C38.5865 26.4709 38.5865 26.3019 38.5865 26.1317C38.5865 24.7421 38.5752 23.3514 38.589 21.9618C38.614 19.5158 40.3227 17.8171 42.7625 17.8045C44.1058 17.7983 45.449 17.8045 46.7922 17.8045C46.9749 17.8045 47.1565 17.8045 47.3542 17.8045V6.64953H33.8133H33.8158ZM40.2176 26.6587C40.324 26.6925 40.4266 26.7275 40.5305 26.7563C42.5685 27.3297 43.7803 28.6666 44.1308 30.7434C44.2334 31.353 44.1809 31.989 44.1859 32.6124C44.1934 33.5287 44.1871 34.445 44.1871 35.3714H55.396C55.396 35.1673 55.396 34.9983 55.396 34.8293C55.3997 33.6113 55.391 32.3933 55.4122 31.1753C55.431 30.1413 55.8053 29.2287 56.445 28.4213C57.1936 27.4761 58.1838 26.9278 59.3805 26.67C59.3805 25.0639 59.3893 23.474 59.378 21.883C59.368 20.4234 58.3628 19.4269 56.8931 19.4069C56.112 19.3956 55.3309 19.3881 54.551 19.4169C54.3657 19.4231 54.1266 19.5308 54.0114 19.6723C53.4919 20.3157 52.9962 20.9792 52.5218 21.6564C52.4329 21.7828 52.4129 22.0382 52.478 22.1797C52.831 22.9445 53.2078 23.6981 53.6021 24.4417C53.8575 24.9212 53.8049 25.3205 53.4456 25.7223C52.9987 26.2231 52.5806 26.7501 52.1512 27.2658C51.3213 28.261 50.5101 29.2725 49.6463 30.2389C49.4611 30.4467 49.0755 30.5982 48.8051 30.5681C48.5873 30.5431 48.2919 30.2314 48.238 29.9986C48.1829 29.7607 48.3094 29.4089 48.4759 29.2036C49.5537 27.8667 50.6566 26.5485 51.7694 25.2404C51.986 24.9863 52.0085 24.7885 51.8495 24.503C51.5766 24.0136 51.3926 23.4678 51.0784 23.0084C50.4738 22.1246 50.5138 21.3622 51.2875 20.6011C51.6192 20.2744 51.8596 19.8538 52.1913 19.4106C48.884 19.4106 45.6981 19.3881 42.5134 19.4219C41.2804 19.4344 40.2852 20.3507 40.2364 21.5487C40.1675 23.2462 40.2188 24.9487 40.2188 26.6624L40.2176 26.6587ZM57.0233 47.4002C58.2614 47.4002 59.4744 47.4002 60.6874 47.4002C61.5412 47.4002 61.794 47.1423 61.794 46.276C61.794 42.5306 61.8028 38.7864 61.7853 35.0422C61.7828 34.5014 61.923 34.1121 62.3461 33.744C63.4327 32.7976 63.688 31.2178 63.0258 29.941C62.3561 28.6478 60.9203 27.9794 59.4794 28.2923C58.0886 28.594 57.0509 29.8158 57.0133 31.2679C56.9795 32.5773 57.0021 33.8892 57.0033 35.1999C57.0033 35.2575 57.0258 35.3151 57.0446 35.4077C57.2437 35.4077 57.4277 35.4077 57.6129 35.4077C59.1915 35.4139 60.1867 36.4016 60.1955 37.9764C60.1992 38.6624 60.2005 39.3497 60.1955 40.0357C60.1854 41.5792 59.1852 42.5894 57.6517 42.6082C57.4414 42.6107 57.2311 42.6082 57.0233 42.6082V47.4014V47.4002ZM42.551 35.4077C42.571 35.3013 42.5873 35.2575 42.5873 35.2124C42.5885 33.9481 42.5998 32.6825 42.5873 31.4181C42.5723 29.9084 41.5696 28.6341 40.1613 28.2998C38.7154 27.9568 37.2407 28.6241 36.561 29.9297C35.87 31.2554 36.1692 32.8164 37.3371 33.8341C37.6739 34.1271 37.8091 34.4538 37.8066 34.8944C37.7941 37.5959 37.8003 40.2961 37.8003 42.9975C37.8003 44.168 37.7966 45.3397 37.8028 46.5101C37.8053 47.0184 38.0695 47.3739 38.5251 47.3826C39.8633 47.4077 41.2028 47.3914 42.5648 47.3914V42.6044C42.2944 42.6044 42.0478 42.6119 41.8024 42.6032C40.3953 42.5506 39.4102 41.5404 39.3976 40.1358C39.3914 39.3397 39.3851 38.5435 39.4014 37.7473C39.4277 36.458 40.4442 35.4452 41.731 35.4077C41.9939 35.4002 42.2581 35.4077 42.5497 35.4077H42.551ZM49.7577 37.0013C47.1965 37.0013 44.6353 37.0013 42.0753 37.0013C41.2441 37.0013 40.9962 37.2554 40.995 38.0979C40.995 38.7375 40.9912 39.3785 40.995 40.0182C41 40.7029 41.2791 41.0033 41.9551 41.0046C47.1702 41.0096 52.3866 41.0096 57.6017 41.0046C58.3002 41.0046 58.5894 40.7017 58.5956 39.9956C58.6019 39.3559 58.5994 38.715 58.5956 38.0753C58.5919 37.2692 58.329 37.0025 57.5328 37.0013C54.9403 37 52.349 37.0013 49.7565 37.0013H49.7577ZM47.3843 5.00212C47.3843 4.57275 47.3843 4.19971 47.3843 3.82666C47.3843 2.82145 47.1802 2.61615 46.1875 2.61615C37.3985 2.61615 28.6094 2.61615 19.8216 2.61615C19.6651 2.61615 19.5087 2.60613 19.3534 2.62241C18.9716 2.66372 18.6687 2.87402 18.6349 3.24707C18.5811 3.82541 18.6211 4.41377 18.6211 5.00087H47.3843V5.00212ZM55.3734 42.6482H44.2134V47.3701H55.3734V42.6482ZM20.1959 45.8291C20.1959 46.1045 20.1846 46.3374 20.1984 46.5677C20.2272 47.0697 20.5276 47.3902 21.0284 47.3939C22.6169 47.4064 24.2055 47.4064 25.7941 47.3927C26.261 47.3889 26.5464 47.0922 26.5815 46.6341C26.6015 46.3749 26.5852 46.1133 26.5852 45.8291H20.1959Z" stroke="#080F2F" stroke-width="0.6" mask="url(#path-2-outside-1_58_3688)"/>
<path d="M25.6567 24.2203L25.6567 24.2203C25.6606 25.616 26.7903 26.7456 28.1858 26.7509L28.1858 26.7509C29.6013 26.7562 30.7424 25.6144 30.7424 24.1949L30.7424 24.1947C30.741 22.8012 29.6048 21.6664 28.2102 21.6664C26.7855 21.6664 25.6527 22.8 25.6567 24.2203ZM28.2422 24.8544L28.2034 24.8548C27.8524 24.8588 27.5517 24.5607 27.5527 24.2041C27.5537 23.8616 27.8292 23.5769 28.1708 23.5636C28.5275 23.5505 28.8348 23.8387 28.8438 24.1912L28.8438 24.1913C28.8526 24.5289 28.5759 24.829 28.2422 24.8544Z" fill="#080F2F" stroke="#080F2F" stroke-width="0.3"/>
</svg>
