<svg width="63" height="50" viewBox="0 0 63 50" fill="none" xmlns="http://www.w3.org/2000/svg">
<circle cx="18" cy="25" r="18" fill="#29AD33"/>
<mask id="path-2-outside-1_58_3692" maskUnits="userSpaceOnUse" x="19" y="0" width="44" height="50" fill="black">
<rect fill="white" x="19" width="44" height="50"/>
<path d="M41.5742 1C41.9262 1.19038 42.3132 1.33693 42.6238 1.58117C43.2538 2.07591 43.5056 2.77231 43.5106 3.56265C43.5131 4.15509 43.5106 4.74753 43.5106 5.45144C43.8751 5.15961 44.1632 4.91411 44.4663 4.69117C45.8152 3.69542 47.7378 4.3079 48.1812 5.89233C48.4643 6.90186 48.1938 7.78613 47.3959 8.47126C46.3288 9.38685 45.2629 10.3049 44.1494 11.1642C43.6484 11.5499 43.4593 11.9583 43.4968 12.5808C43.5507 13.4976 43.5106 14.4195 43.5106 15.4089C43.9365 15.4089 44.3247 15.4428 44.7055 15.4027C46.186 15.2486 47.2043 15.8674 47.8305 17.1963C47.9683 17.4881 48.1587 17.7549 48.3353 18.0518C49.3185 17.4844 50.2717 16.9546 51.1986 16.3796C51.3564 16.282 51.4465 16.0051 51.4841 15.7947C51.7534 14.3205 52.0002 12.8438 52.2557 11.3671C52.5012 9.94798 53.7149 9.03615 55.0375 9.27663C56.3639 9.51711 57.2081 10.7834 56.9777 12.1812C56.9301 12.4705 56.8887 12.7624 56.8311 13.1431C57.4924 12.7649 58.0736 12.4117 58.6736 12.0935C59.5015 11.6552 60.3344 11.6865 61.1185 12.1962C61.8712 12.686 62.2395 13.4074 62.1869 14.3055C62.1355 15.1735 61.7222 15.8486 60.9707 16.2995C60.4246 16.6264 59.8722 16.9433 59.241 17.3115C59.613 17.4556 59.9111 17.5695 60.2079 17.6848C61.4942 18.1845 62.1418 19.5159 61.7022 20.7584C61.2538 22.0272 59.9023 22.6573 58.5709 22.1876C57.1004 21.6678 55.6375 21.1254 54.1795 20.5743C53.9002 20.4691 53.6898 20.4929 53.4393 20.6432C52.5726 21.1643 51.6908 21.6615 50.7752 22.1913C51.0595 22.6723 51.3175 23.1307 51.5956 23.5754C52.193 24.5348 52.1843 25.4829 51.5881 26.4399C51.3163 26.8757 51.0645 27.3229 50.7765 27.8101C51.7497 28.3737 52.7003 28.9349 53.666 29.4684C53.7837 29.5336 53.9967 29.4785 54.147 29.4246C55.6437 28.8848 57.128 28.3124 58.6322 27.7926C60.2931 27.2177 61.9489 28.4614 61.8149 30.1774C61.736 31.1819 61.1949 31.8908 60.2668 32.2904C59.9586 32.4231 59.638 32.5296 59.2309 32.6837C59.8885 33.0694 60.4684 33.3926 61.0321 33.7433C61.8913 34.2781 62.3397 35.2914 62.1593 36.2358C61.8487 37.8616 60.124 38.6845 58.6498 37.8979C58.0611 37.5847 57.4912 37.2353 56.8324 36.8558C56.895 37.2603 56.9413 37.5772 56.9939 37.8941C57.2144 39.2255 56.3113 40.5206 55.0112 40.7361C53.7336 40.9478 52.5099 40.071 52.2732 38.7521C52.0064 37.2616 51.7534 35.7699 51.5079 34.2756C51.4465 33.9036 51.3226 33.6381 50.9506 33.4439C50.0788 32.9905 49.2409 32.472 48.3403 31.9522C48.1149 32.3267 47.8719 32.6837 47.6752 33.0657C47.1041 34.1741 46.211 34.6789 44.9673 34.6013C44.5039 34.5724 44.0379 34.5962 43.5119 34.5962C43.5119 35.4868 43.5695 36.331 43.4956 37.1627C43.4229 37.9768 43.6797 38.5154 44.3448 39.0076C45.4232 39.8042 46.4352 40.6947 47.4485 41.5765C48.2263 42.2541 48.4818 43.1334 48.1812 44.1216C47.8907 45.0773 47.198 45.6221 46.2198 45.7787C45.5171 45.8902 44.8946 45.666 44.3448 45.2264C44.0943 45.026 43.8463 44.8205 43.5106 44.5462C43.5106 45.2677 43.5206 45.8852 43.5081 46.5027C43.4856 47.6763 42.8443 48.5768 41.8222 48.8937C40.4369 49.3233 38.9327 48.4052 38.7611 46.9548C38.6721 46.2021 38.7448 45.4293 38.7448 44.5212C38.344 44.8418 38.0672 45.0786 37.7766 45.294C37.0263 45.8514 36.2047 45.9766 35.3467 45.5996C34.4887 45.2226 34.0053 44.54 33.9326 43.6043C33.8662 42.7526 34.1894 42.0487 34.847 41.5001C35.9141 40.6096 36.9587 39.689 38.0597 38.841C38.5607 38.4552 38.7485 38.0469 38.7122 37.4244C38.6584 36.5076 38.6984 35.5857 38.6984 34.5962C38.3352 34.5962 38.0096 34.5649 37.6914 34.6013C36.0656 34.7916 34.9446 34.1316 34.2846 32.6448C34.1794 32.4068 34.0215 32.1927 33.875 31.9472C32.8918 32.5171 31.9399 33.0481 31.0143 33.623C30.8564 33.7207 30.7625 33.995 30.7249 34.2042C30.4556 35.6784 30.2089 37.1551 29.9546 38.6319C29.7091 40.0572 28.5005 40.9716 27.1803 40.7311C25.8489 40.4881 24.9972 39.2205 25.2301 37.8327C25.279 37.5422 25.3203 37.2516 25.3804 36.8646C24.7467 37.2253 24.1868 37.5459 23.6244 37.8641C22.9944 38.221 22.3306 38.32 21.6404 38.0745C20.701 37.7401 20.1324 37.0675 20.0334 36.0767C19.9332 35.076 20.3416 34.2743 21.1958 33.7333C21.7481 33.3838 22.323 33.0719 22.9731 32.6937C22.5573 32.5334 22.2116 32.4131 21.8771 32.2678C20.8588 31.8257 20.2564 30.7686 20.3954 29.6926C20.5307 28.6493 21.3874 27.7838 22.4959 27.6773C22.913 27.6373 23.3701 27.7312 23.7722 27.8702C25.1875 28.3587 26.5891 28.8873 27.9894 29.4158C28.275 29.5236 28.5017 29.5261 28.7748 29.3595C29.6377 28.8334 30.522 28.3399 31.4288 27.8151C31.1357 27.3141 30.8702 26.8419 30.5884 26.3797C30.0298 25.4667 30.021 24.5586 30.5796 23.6417C30.8627 23.1771 31.1307 22.7036 31.4313 22.1913C30.4556 21.6264 29.5037 21.0653 28.538 20.533C28.4203 20.4679 28.2074 20.5267 28.0571 20.5806C26.5603 21.1192 25.0748 21.6916 23.5705 22.2076C21.8897 22.7838 20.2451 21.5175 20.3929 19.769C20.4756 18.7795 21.0267 18.0956 21.941 17.7123C22.2516 17.5821 22.571 17.4743 22.9781 17.3228C22.2955 16.9207 21.6843 16.5901 21.1018 16.2118C20.2464 15.6532 19.8844 14.8303 20.0322 13.832C20.175 12.8676 20.7612 12.2263 21.693 11.9307C22.3669 11.7178 23.0194 11.8017 23.6369 12.1486C24.1918 12.4605 24.7467 12.7737 25.3779 13.1294C25.3203 12.7486 25.279 12.4467 25.2264 12.1461C24.9846 10.7659 25.8038 9.52713 27.1302 9.27287C28.4115 9.02738 29.7004 9.94171 29.9433 11.2907C30.2089 12.7649 30.4656 14.2416 30.6999 15.7208C30.7637 16.1266 30.9328 16.3771 31.2986 16.5738C32.1503 17.031 32.9782 17.5345 33.8763 18.0543C34.123 17.6409 34.3798 17.2401 34.6065 16.8243C35.145 15.8323 35.9654 15.3588 37.0952 15.4039C37.6062 15.424 38.1198 15.4077 38.6984 15.4077C38.6984 14.5848 38.6233 13.8007 38.7172 13.0367C38.8387 12.051 38.4717 11.4184 37.6877 10.8523C36.7019 10.1409 35.8014 9.31045 34.8695 8.52637C33.7673 7.60076 33.5844 6.16412 34.4286 5.11076C35.2728 4.05864 36.7821 3.92838 37.9056 4.81516C38.1386 4.99803 38.364 5.18967 38.6471 5.42138C38.6696 5.26732 38.6984 5.1571 38.6984 5.04688C38.7034 4.51581 38.6884 3.98349 38.7047 3.45368C38.7398 2.26379 39.3497 1.46093 40.4795 1.08642C40.5359 1.06764 40.5847 1.03006 40.6386 1C40.9517 1 41.2636 1 41.5767 1L41.5742 1ZM40.3017 13.7932C40.3017 14.5272 40.3067 15.2624 40.3004 15.9964C40.2929 16.7329 40.0161 17.0034 39.2683 17.0084C38.503 17.0134 37.7365 17.0197 36.9712 17.0059C36.5516 16.9984 36.261 17.1625 36.0531 17.527C35.6974 18.1507 35.3267 18.7657 34.9572 19.3819C34.5889 19.9944 34.2119 20.0984 33.5969 19.7452C32.3507 19.0312 31.1119 18.306 29.8644 17.5946C29.53 17.4042 29.3321 17.155 29.267 16.7604C28.9827 15.052 28.6821 13.3461 28.3727 11.6414C28.2712 11.084 27.8379 10.7621 27.3932 10.8661C26.9423 10.9713 26.7169 11.3846 26.8108 11.9307C26.9486 12.7298 27.0864 13.5302 27.2241 14.3293C27.293 14.7313 27.3018 15.1159 26.906 15.3739C26.5327 15.6169 26.2008 15.4778 25.8589 15.2787C24.9032 14.7188 23.94 14.169 22.9769 13.6216C22.4445 13.3198 21.9423 13.4024 21.7018 13.8183C21.4525 14.2504 21.6229 14.6787 22.1815 15.0031C23.1672 15.5755 24.153 16.1467 25.1425 16.7103C25.4844 16.9045 25.6973 17.1612 25.6522 17.5758C25.6096 17.9741 25.3429 18.1632 24.9984 18.2885C24.2356 18.564 23.4741 18.8421 22.7138 19.1239C22.1389 19.3356 21.8659 19.7665 22.0137 20.2136C22.1765 20.7033 22.6274 20.8574 23.2549 20.6282C24.8368 20.0495 26.42 19.4746 27.9969 18.8822C28.3602 18.7457 28.6833 18.7394 29.024 18.9398C30.2765 19.6725 31.5391 20.3902 32.7916 21.1229C33.3828 21.4686 33.4792 21.8582 33.1385 22.4481C32.7552 23.1094 32.3732 23.7733 31.9699 24.4221C31.7282 24.8103 31.7194 25.1661 31.9612 25.5581C32.3557 26.1944 32.7302 26.8432 33.1085 27.4907C33.4942 28.1508 33.3928 28.5278 32.7264 28.9136C31.5253 29.61 30.3166 30.2951 29.1204 31.0015C28.7397 31.227 28.3827 31.2595 27.9656 31.103C26.4037 30.5143 24.8356 29.9457 23.2662 29.377C23.0796 29.3094 22.8704 29.238 22.6813 29.258C22.3055 29.2981 22.04 29.5298 21.9949 29.9168C21.946 30.3377 22.154 30.6508 22.541 30.8036C23.3388 31.118 24.1442 31.4136 24.9521 31.7042C25.3303 31.8407 25.6272 32.0311 25.656 32.477C25.6848 32.9216 25.4092 33.1496 25.0635 33.345C24.1004 33.8923 23.1409 34.4459 22.184 35.0046C21.6554 35.3127 21.4751 35.7962 21.7181 36.2057C21.9648 36.6228 22.4433 36.6917 22.9894 36.3798C23.9513 35.83 24.9132 35.2801 25.8689 34.719C26.2121 34.5173 26.5453 34.3896 26.916 34.6376C27.2893 34.8881 27.2943 35.2551 27.2279 35.6408C27.0914 36.4412 26.9523 37.2403 26.8146 38.0394C26.7194 38.5905 26.9699 39.0452 27.4233 39.1429C27.8767 39.2418 28.2712 38.9237 28.3752 38.345C28.6808 36.6404 28.9576 34.9294 29.2908 33.2298C29.3459 32.9479 29.5651 32.6148 29.8081 32.4657C31.0719 31.6917 32.3645 30.9639 33.6533 30.23C34.2019 29.9181 34.5902 30.0208 34.9146 30.5556C35.3041 31.1957 35.6849 31.8407 36.0606 32.4895C36.2598 32.834 36.5391 32.9993 36.9412 32.9943C37.7064 32.9843 38.4717 32.9893 39.2383 32.993C40.0461 32.9968 40.3029 33.251 40.3054 34.0639C40.3092 35.5018 40.2954 36.9385 40.3129 38.3763C40.3179 38.8398 40.1601 39.1679 39.8007 39.4623C38.5056 40.5181 37.2255 41.5941 35.9467 42.67C35.482 43.0608 35.4006 43.5768 35.7212 43.9363C36.0456 44.3007 36.4928 44.2907 36.9675 43.8987C37.6062 43.3714 38.2425 42.8416 38.8725 42.3055C39.1719 42.05 39.4975 41.9372 39.8633 42.1101C40.2177 42.2779 40.3117 42.5998 40.3092 42.9693C40.3042 44.0477 40.3067 45.1249 40.3092 46.2033C40.3092 46.3749 40.3079 46.5503 40.3417 46.7156C40.4269 47.1314 40.6924 47.3769 41.1183 47.397C41.5179 47.417 41.8347 47.1076 41.8949 46.6705C41.9136 46.5315 41.9124 46.3899 41.9124 46.2497C41.9136 45.2501 41.9124 44.2494 41.9124 43.2499C41.9124 43.1409 41.9149 43.0307 41.9124 42.9217C41.9049 42.566 42.0214 42.2667 42.3545 42.1076C42.7002 41.9435 43.0184 42.0274 43.309 42.2717C43.9903 42.8453 44.6692 43.4215 45.3631 43.9788C45.7589 44.297 46.201 44.2632 46.4979 43.9325C46.796 43.6018 46.7509 43.1109 46.3839 42.7614C46.2599 42.6424 46.1246 42.5359 45.9918 42.427C44.7919 41.4275 43.5958 40.4217 42.3884 39.4322C42.0752 39.1754 41.9049 38.8899 41.9074 38.474C41.9187 36.9748 41.9074 35.4743 41.9136 33.975C41.9174 33.2661 42.2005 32.9993 42.9257 32.9955C43.691 32.9905 44.4575 32.983 45.2228 32.998C45.6599 33.0068 45.9618 32.839 46.1785 32.4569C46.5304 31.8319 46.9024 31.217 47.2732 30.602C47.6264 30.0145 48.0046 29.9106 48.5983 30.25C49.8584 30.9702 51.1121 31.7029 52.3722 32.4206C52.7103 32.6135 52.8882 32.8778 52.9521 33.2673C53.2339 34.9607 53.5332 36.6504 53.8364 38.34C53.9416 38.93 54.3248 39.2431 54.7795 39.1441C55.2317 39.0452 55.4909 38.588 55.3982 38.0432C55.263 37.2428 55.1252 36.4437 54.9862 35.6433C54.9185 35.2563 54.921 34.8906 55.2918 34.6388C55.6613 34.3871 55.9944 34.5148 56.3389 34.7152C57.2958 35.2751 58.2552 35.8287 59.2222 36.3686C59.4188 36.4788 59.6568 36.5765 59.8747 36.574C60.2304 36.569 60.501 36.3573 60.5774 35.9941C60.6651 35.577 60.4809 35.2626 60.1215 35.0534C59.1646 34.496 58.2051 33.9399 57.2419 33.3913C56.8624 33.1759 56.5055 32.9605 56.5581 32.4382C56.6082 31.9397 56.9852 31.7969 57.3785 31.6553C58.1412 31.381 58.9028 31.103 59.6593 30.8099C60.0488 30.6583 60.2618 30.3515 60.2204 29.9306C60.1816 29.5423 59.9198 29.3069 59.5441 29.263C59.3549 29.2417 59.1445 29.3094 58.9579 29.377C57.3747 29.9507 55.7915 30.5268 54.2146 31.118C53.8326 31.2608 53.5044 31.242 53.1487 31.0316C51.9125 30.3014 50.6612 29.5962 49.4212 28.8735C48.8363 28.5328 48.7361 28.137 49.0793 27.5471C49.4626 26.8858 49.8458 26.2232 50.2479 25.5731C50.4896 25.1836 50.4946 24.8279 50.2529 24.4371C49.8508 23.787 49.4676 23.1244 49.0831 22.4631C48.7311 21.8569 48.8388 21.4624 49.4525 21.1066C50.6274 20.4253 51.816 19.769 52.9746 19.06C53.4493 18.7694 53.8702 18.7344 54.3837 18.9323C55.8967 19.5147 57.4248 20.062 58.9491 20.6157C59.1357 20.6833 59.3437 20.7559 59.534 20.7384C59.9136 20.7046 60.1728 20.4704 60.2242 20.0846C60.2805 19.6612 60.0789 19.3494 59.6869 19.1966C58.8589 18.8747 58.0235 18.5665 57.1868 18.2672C56.8311 18.1394 56.5894 17.9353 56.5593 17.5407C56.528 17.1474 56.7322 16.9019 57.0591 16.7166C57.7655 16.3183 58.4657 15.9074 59.1671 15.4991C59.5178 15.295 59.8785 15.1046 60.2129 14.8779C60.6075 14.6098 60.7089 14.1239 60.4797 13.7669C60.2555 13.4187 59.8234 13.316 59.4038 13.5189C59.2911 13.5728 59.1858 13.6404 59.0769 13.703C58.1175 14.2566 57.1568 14.809 56.1973 15.3651C55.8855 15.5455 55.531 15.6094 55.2893 15.3413C55.1052 15.1372 55.0525 14.8077 54.9674 14.5272C54.9386 14.432 54.9849 14.3117 55.0037 14.204C55.134 13.45 55.2667 12.6973 55.3957 11.9432C55.4897 11.3946 55.2229 10.9375 54.7682 10.8548C54.3148 10.7721 53.9528 11.069 53.8376 11.6213C53.8088 11.7591 53.785 11.8969 53.7612 12.0359C53.4844 13.6191 53.2276 15.206 52.9157 16.783C52.8606 17.0648 52.6352 17.3942 52.3909 17.5432C51.1272 18.3173 49.8346 19.045 48.5457 19.779C48.0046 20.0871 47.6164 19.9756 47.2882 19.4345C46.9325 18.8471 46.5705 18.2622 46.2448 17.6585C45.9943 17.1938 45.6549 16.9796 45.1163 17.0034C44.3986 17.0347 43.6797 17.0147 42.9608 17.0109C42.1817 17.0072 41.9099 16.7429 41.9074 15.9738C41.9024 14.5209 41.9174 13.068 41.8999 11.6151C41.8936 11.1491 42.0677 10.8272 42.4259 10.5354C43.686 9.5096 44.9285 8.46249 46.1735 7.4204C46.7083 6.97325 46.8298 6.48101 46.5154 6.09524C46.181 5.68441 45.7213 5.71322 45.1652 6.17665C44.589 6.65762 44.0079 7.13107 43.4405 7.6208C43.1261 7.89135 42.7979 8.09049 42.3808 7.91013C41.9537 7.72601 41.9011 7.34274 41.9049 6.92816C41.9136 5.89734 41.9074 4.86527 41.9074 3.83444C41.9074 3.69416 41.9111 3.55263 41.8961 3.4136C41.8423 2.93138 41.5003 2.59445 41.0832 2.60322C40.6524 2.61199 40.3204 2.94015 40.3117 3.44115C40.2929 4.58094 40.2992 5.72199 40.3042 6.86303C40.3067 7.28513 40.2904 7.69971 39.8457 7.90387C39.4111 8.10302 39.0729 7.88633 38.7473 7.60452C38.1323 7.07345 37.5123 6.5474 36.8748 6.04639C36.3162 5.60801 35.5346 5.87229 35.5333 6.51733C35.5333 6.79289 35.7387 7.14234 35.9579 7.33398C37.1967 8.40863 38.4567 9.4595 39.733 10.4891C40.1514 10.826 40.3342 11.2017 40.3092 11.7341C40.2766 12.4204 40.3017 13.1081 40.3017 13.7957V13.7932Z"/>
</mask>
<path d="M41.5742 1C41.9262 1.19038 42.3132 1.33693 42.6238 1.58117C43.2538 2.07591 43.5056 2.77231 43.5106 3.56265C43.5131 4.15509 43.5106 4.74753 43.5106 5.45144C43.8751 5.15961 44.1632 4.91411 44.4663 4.69117C45.8152 3.69542 47.7378 4.3079 48.1812 5.89233C48.4643 6.90186 48.1938 7.78613 47.3959 8.47126C46.3288 9.38685 45.2629 10.3049 44.1494 11.1642C43.6484 11.5499 43.4593 11.9583 43.4968 12.5808C43.5507 13.4976 43.5106 14.4195 43.5106 15.4089C43.9365 15.4089 44.3247 15.4428 44.7055 15.4027C46.186 15.2486 47.2043 15.8674 47.8305 17.1963C47.9683 17.4881 48.1587 17.7549 48.3353 18.0518C49.3185 17.4844 50.2717 16.9546 51.1986 16.3796C51.3564 16.282 51.4465 16.0051 51.4841 15.7947C51.7534 14.3205 52.0002 12.8438 52.2557 11.3671C52.5012 9.94798 53.7149 9.03615 55.0375 9.27663C56.3639 9.51711 57.2081 10.7834 56.9777 12.1812C56.9301 12.4705 56.8887 12.7624 56.8311 13.1431C57.4924 12.7649 58.0736 12.4117 58.6736 12.0935C59.5015 11.6552 60.3344 11.6865 61.1185 12.1962C61.8712 12.686 62.2395 13.4074 62.1869 14.3055C62.1355 15.1735 61.7222 15.8486 60.9707 16.2995C60.4246 16.6264 59.8722 16.9433 59.241 17.3115C59.613 17.4556 59.9111 17.5695 60.2079 17.6848C61.4942 18.1845 62.1418 19.5159 61.7022 20.7584C61.2538 22.0272 59.9023 22.6573 58.5709 22.1876C57.1004 21.6678 55.6375 21.1254 54.1795 20.5743C53.9002 20.4691 53.6898 20.4929 53.4393 20.6432C52.5726 21.1643 51.6908 21.6615 50.7752 22.1913C51.0595 22.6723 51.3175 23.1307 51.5956 23.5754C52.193 24.5348 52.1843 25.4829 51.5881 26.4399C51.3163 26.8757 51.0645 27.3229 50.7765 27.8101C51.7497 28.3737 52.7003 28.9349 53.666 29.4684C53.7837 29.5336 53.9967 29.4785 54.147 29.4246C55.6437 28.8848 57.128 28.3124 58.6322 27.7926C60.2931 27.2177 61.9489 28.4614 61.8149 30.1774C61.736 31.1819 61.1949 31.8908 60.2668 32.2904C59.9586 32.4231 59.638 32.5296 59.2309 32.6837C59.8885 33.0694 60.4684 33.3926 61.0321 33.7433C61.8913 34.2781 62.3397 35.2914 62.1593 36.2358C61.8487 37.8616 60.124 38.6845 58.6498 37.8979C58.0611 37.5847 57.4912 37.2353 56.8324 36.8558C56.895 37.2603 56.9413 37.5772 56.9939 37.8941C57.2144 39.2255 56.3113 40.5206 55.0112 40.7361C53.7336 40.9478 52.5099 40.071 52.2732 38.7521C52.0064 37.2616 51.7534 35.7699 51.5079 34.2756C51.4465 33.9036 51.3226 33.6381 50.9506 33.4439C50.0788 32.9905 49.2409 32.472 48.3403 31.9522C48.1149 32.3267 47.8719 32.6837 47.6752 33.0657C47.1041 34.1741 46.211 34.6789 44.9673 34.6013C44.5039 34.5724 44.0379 34.5962 43.5119 34.5962C43.5119 35.4868 43.5695 36.331 43.4956 37.1627C43.4229 37.9768 43.6797 38.5154 44.3448 39.0076C45.4232 39.8042 46.4352 40.6947 47.4485 41.5765C48.2263 42.2541 48.4818 43.1334 48.1812 44.1216C47.8907 45.0773 47.198 45.6221 46.2198 45.7787C45.5171 45.8902 44.8946 45.666 44.3448 45.2264C44.0943 45.026 43.8463 44.8205 43.5106 44.5462C43.5106 45.2677 43.5206 45.8852 43.5081 46.5027C43.4856 47.6763 42.8443 48.5768 41.8222 48.8937C40.4369 49.3233 38.9327 48.4052 38.7611 46.9548C38.6721 46.2021 38.7448 45.4293 38.7448 44.5212C38.344 44.8418 38.0672 45.0786 37.7766 45.294C37.0263 45.8514 36.2047 45.9766 35.3467 45.5996C34.4887 45.2226 34.0053 44.54 33.9326 43.6043C33.8662 42.7526 34.1894 42.0487 34.847 41.5001C35.9141 40.6096 36.9587 39.689 38.0597 38.841C38.5607 38.4552 38.7485 38.0469 38.7122 37.4244C38.6584 36.5076 38.6984 35.5857 38.6984 34.5962C38.3352 34.5962 38.0096 34.5649 37.6914 34.6013C36.0656 34.7916 34.9446 34.1316 34.2846 32.6448C34.1794 32.4068 34.0215 32.1927 33.875 31.9472C32.8918 32.5171 31.9399 33.0481 31.0143 33.623C30.8564 33.7207 30.7625 33.995 30.7249 34.2042C30.4556 35.6784 30.2089 37.1551 29.9546 38.6319C29.7091 40.0572 28.5005 40.9716 27.1803 40.7311C25.8489 40.4881 24.9972 39.2205 25.2301 37.8327C25.279 37.5422 25.3203 37.2516 25.3804 36.8646C24.7467 37.2253 24.1868 37.5459 23.6244 37.8641C22.9944 38.221 22.3306 38.32 21.6404 38.0745C20.701 37.7401 20.1324 37.0675 20.0334 36.0767C19.9332 35.076 20.3416 34.2743 21.1958 33.7333C21.7481 33.3838 22.323 33.0719 22.9731 32.6937C22.5573 32.5334 22.2116 32.4131 21.8771 32.2678C20.8588 31.8257 20.2564 30.7686 20.3954 29.6926C20.5307 28.6493 21.3874 27.7838 22.4959 27.6773C22.913 27.6373 23.3701 27.7312 23.7722 27.8702C25.1875 28.3587 26.5891 28.8873 27.9894 29.4158C28.275 29.5236 28.5017 29.5261 28.7748 29.3595C29.6377 28.8334 30.522 28.3399 31.4288 27.8151C31.1357 27.3141 30.8702 26.8419 30.5884 26.3797C30.0298 25.4667 30.021 24.5586 30.5796 23.6417C30.8627 23.1771 31.1307 22.7036 31.4313 22.1913C30.4556 21.6264 29.5037 21.0653 28.538 20.533C28.4203 20.4679 28.2074 20.5267 28.0571 20.5806C26.5603 21.1192 25.0748 21.6916 23.5705 22.2076C21.8897 22.7838 20.2451 21.5175 20.3929 19.769C20.4756 18.7795 21.0267 18.0956 21.941 17.7123C22.2516 17.5821 22.571 17.4743 22.9781 17.3228C22.2955 16.9207 21.6843 16.5901 21.1018 16.2118C20.2464 15.6532 19.8844 14.8303 20.0322 13.832C20.175 12.8676 20.7612 12.2263 21.693 11.9307C22.3669 11.7178 23.0194 11.8017 23.6369 12.1486C24.1918 12.4605 24.7467 12.7737 25.3779 13.1294C25.3203 12.7486 25.279 12.4467 25.2264 12.1461C24.9846 10.7659 25.8038 9.52713 27.1302 9.27287C28.4115 9.02738 29.7004 9.94171 29.9433 11.2907C30.2089 12.7649 30.4656 14.2416 30.6999 15.7208C30.7637 16.1266 30.9328 16.3771 31.2986 16.5738C32.1503 17.031 32.9782 17.5345 33.8763 18.0543C34.123 17.6409 34.3798 17.2401 34.6065 16.8243C35.145 15.8323 35.9654 15.3588 37.0952 15.4039C37.6062 15.424 38.1198 15.4077 38.6984 15.4077C38.6984 14.5848 38.6233 13.8007 38.7172 13.0367C38.8387 12.051 38.4717 11.4184 37.6877 10.8523C36.7019 10.1409 35.8014 9.31045 34.8695 8.52637C33.7673 7.60076 33.5844 6.16412 34.4286 5.11076C35.2728 4.05864 36.7821 3.92838 37.9056 4.81516C38.1386 4.99803 38.364 5.18967 38.6471 5.42138C38.6696 5.26732 38.6984 5.1571 38.6984 5.04688C38.7034 4.51581 38.6884 3.98349 38.7047 3.45368C38.7398 2.26379 39.3497 1.46093 40.4795 1.08642C40.5359 1.06764 40.5847 1.03006 40.6386 1C40.9517 1 41.2636 1 41.5767 1L41.5742 1ZM40.3017 13.7932C40.3017 14.5272 40.3067 15.2624 40.3004 15.9964C40.2929 16.7329 40.0161 17.0034 39.2683 17.0084C38.503 17.0134 37.7365 17.0197 36.9712 17.0059C36.5516 16.9984 36.261 17.1625 36.0531 17.527C35.6974 18.1507 35.3267 18.7657 34.9572 19.3819C34.5889 19.9944 34.2119 20.0984 33.5969 19.7452C32.3507 19.0312 31.1119 18.306 29.8644 17.5946C29.53 17.4042 29.3321 17.155 29.267 16.7604C28.9827 15.052 28.6821 13.3461 28.3727 11.6414C28.2712 11.084 27.8379 10.7621 27.3932 10.8661C26.9423 10.9713 26.7169 11.3846 26.8108 11.9307C26.9486 12.7298 27.0864 13.5302 27.2241 14.3293C27.293 14.7313 27.3018 15.1159 26.906 15.3739C26.5327 15.6169 26.2008 15.4778 25.8589 15.2787C24.9032 14.7188 23.94 14.169 22.9769 13.6216C22.4445 13.3198 21.9423 13.4024 21.7018 13.8183C21.4525 14.2504 21.6229 14.6787 22.1815 15.0031C23.1672 15.5755 24.153 16.1467 25.1425 16.7103C25.4844 16.9045 25.6973 17.1612 25.6522 17.5758C25.6096 17.9741 25.3429 18.1632 24.9984 18.2885C24.2356 18.564 23.4741 18.8421 22.7138 19.1239C22.1389 19.3356 21.8659 19.7665 22.0137 20.2136C22.1765 20.7033 22.6274 20.8574 23.2549 20.6282C24.8368 20.0495 26.42 19.4746 27.9969 18.8822C28.3602 18.7457 28.6833 18.7394 29.024 18.9398C30.2765 19.6725 31.5391 20.3902 32.7916 21.1229C33.3828 21.4686 33.4792 21.8582 33.1385 22.4481C32.7552 23.1094 32.3732 23.7733 31.9699 24.4221C31.7282 24.8103 31.7194 25.1661 31.9612 25.5581C32.3557 26.1944 32.7302 26.8432 33.1085 27.4907C33.4942 28.1508 33.3928 28.5278 32.7264 28.9136C31.5253 29.61 30.3166 30.2951 29.1204 31.0015C28.7397 31.227 28.3827 31.2595 27.9656 31.103C26.4037 30.5143 24.8356 29.9457 23.2662 29.377C23.0796 29.3094 22.8704 29.238 22.6813 29.258C22.3055 29.2981 22.04 29.5298 21.9949 29.9168C21.946 30.3377 22.154 30.6508 22.541 30.8036C23.3388 31.118 24.1442 31.4136 24.9521 31.7042C25.3303 31.8407 25.6272 32.0311 25.656 32.477C25.6848 32.9216 25.4092 33.1496 25.0635 33.345C24.1004 33.8923 23.1409 34.4459 22.184 35.0046C21.6554 35.3127 21.4751 35.7962 21.7181 36.2057C21.9648 36.6228 22.4433 36.6917 22.9894 36.3798C23.9513 35.83 24.9132 35.2801 25.8689 34.719C26.2121 34.5173 26.5453 34.3896 26.916 34.6376C27.2893 34.8881 27.2943 35.2551 27.2279 35.6408C27.0914 36.4412 26.9523 37.2403 26.8146 38.0394C26.7194 38.5905 26.9699 39.0452 27.4233 39.1429C27.8767 39.2418 28.2712 38.9237 28.3752 38.345C28.6808 36.6404 28.9576 34.9294 29.2908 33.2298C29.3459 32.9479 29.5651 32.6148 29.8081 32.4657C31.0719 31.6917 32.3645 30.9639 33.6533 30.23C34.2019 29.9181 34.5902 30.0208 34.9146 30.5556C35.3041 31.1957 35.6849 31.8407 36.0606 32.4895C36.2598 32.834 36.5391 32.9993 36.9412 32.9943C37.7064 32.9843 38.4717 32.9893 39.2383 32.993C40.0461 32.9968 40.3029 33.251 40.3054 34.0639C40.3092 35.5018 40.2954 36.9385 40.3129 38.3763C40.3179 38.8398 40.1601 39.1679 39.8007 39.4623C38.5056 40.5181 37.2255 41.5941 35.9467 42.67C35.482 43.0608 35.4006 43.5768 35.7212 43.9363C36.0456 44.3007 36.4928 44.2907 36.9675 43.8987C37.6062 43.3714 38.2425 42.8416 38.8725 42.3055C39.1719 42.05 39.4975 41.9372 39.8633 42.1101C40.2177 42.2779 40.3117 42.5998 40.3092 42.9693C40.3042 44.0477 40.3067 45.1249 40.3092 46.2033C40.3092 46.3749 40.3079 46.5503 40.3417 46.7156C40.4269 47.1314 40.6924 47.3769 41.1183 47.397C41.5179 47.417 41.8347 47.1076 41.8949 46.6705C41.9136 46.5315 41.9124 46.3899 41.9124 46.2497C41.9136 45.2501 41.9124 44.2494 41.9124 43.2499C41.9124 43.1409 41.9149 43.0307 41.9124 42.9217C41.9049 42.566 42.0214 42.2667 42.3545 42.1076C42.7002 41.9435 43.0184 42.0274 43.309 42.2717C43.9903 42.8453 44.6692 43.4215 45.3631 43.9788C45.7589 44.297 46.201 44.2632 46.4979 43.9325C46.796 43.6018 46.7509 43.1109 46.3839 42.7614C46.2599 42.6424 46.1246 42.5359 45.9918 42.427C44.7919 41.4275 43.5958 40.4217 42.3884 39.4322C42.0752 39.1754 41.9049 38.8899 41.9074 38.474C41.9187 36.9748 41.9074 35.4743 41.9136 33.975C41.9174 33.2661 42.2005 32.9993 42.9257 32.9955C43.691 32.9905 44.4575 32.983 45.2228 32.998C45.6599 33.0068 45.9618 32.839 46.1785 32.4569C46.5304 31.8319 46.9024 31.217 47.2732 30.602C47.6264 30.0145 48.0046 29.9106 48.5983 30.25C49.8584 30.9702 51.1121 31.7029 52.3722 32.4206C52.7103 32.6135 52.8882 32.8778 52.9521 33.2673C53.2339 34.9607 53.5332 36.6504 53.8364 38.34C53.9416 38.93 54.3248 39.2431 54.7795 39.1441C55.2317 39.0452 55.4909 38.588 55.3982 38.0432C55.263 37.2428 55.1252 36.4437 54.9862 35.6433C54.9185 35.2563 54.921 34.8906 55.2918 34.6388C55.6613 34.3871 55.9944 34.5148 56.3389 34.7152C57.2958 35.2751 58.2552 35.8287 59.2222 36.3686C59.4188 36.4788 59.6568 36.5765 59.8747 36.574C60.2304 36.569 60.501 36.3573 60.5774 35.9941C60.6651 35.577 60.4809 35.2626 60.1215 35.0534C59.1646 34.496 58.2051 33.9399 57.2419 33.3913C56.8624 33.1759 56.5055 32.9605 56.5581 32.4382C56.6082 31.9397 56.9852 31.7969 57.3785 31.6553C58.1412 31.381 58.9028 31.103 59.6593 30.8099C60.0488 30.6583 60.2618 30.3515 60.2204 29.9306C60.1816 29.5423 59.9198 29.3069 59.5441 29.263C59.3549 29.2417 59.1445 29.3094 58.9579 29.377C57.3747 29.9507 55.7915 30.5268 54.2146 31.118C53.8326 31.2608 53.5044 31.242 53.1487 31.0316C51.9125 30.3014 50.6612 29.5962 49.4212 28.8735C48.8363 28.5328 48.7361 28.137 49.0793 27.5471C49.4626 26.8858 49.8458 26.2232 50.2479 25.5731C50.4896 25.1836 50.4946 24.8279 50.2529 24.4371C49.8508 23.787 49.4676 23.1244 49.0831 22.4631C48.7311 21.8569 48.8388 21.4624 49.4525 21.1066C50.6274 20.4253 51.816 19.769 52.9746 19.06C53.4493 18.7694 53.8702 18.7344 54.3837 18.9323C55.8967 19.5147 57.4248 20.062 58.9491 20.6157C59.1357 20.6833 59.3437 20.7559 59.534 20.7384C59.9136 20.7046 60.1728 20.4704 60.2242 20.0846C60.2805 19.6612 60.0789 19.3494 59.6869 19.1966C58.8589 18.8747 58.0235 18.5665 57.1868 18.2672C56.8311 18.1394 56.5894 17.9353 56.5593 17.5407C56.528 17.1474 56.7322 16.9019 57.0591 16.7166C57.7655 16.3183 58.4657 15.9074 59.1671 15.4991C59.5178 15.295 59.8785 15.1046 60.2129 14.8779C60.6075 14.6098 60.7089 14.1239 60.4797 13.7669C60.2555 13.4187 59.8234 13.316 59.4038 13.5189C59.2911 13.5728 59.1858 13.6404 59.0769 13.703C58.1175 14.2566 57.1568 14.809 56.1973 15.3651C55.8855 15.5455 55.531 15.6094 55.2893 15.3413C55.1052 15.1372 55.0525 14.8077 54.9674 14.5272C54.9386 14.432 54.9849 14.3117 55.0037 14.204C55.134 13.45 55.2667 12.6973 55.3957 11.9432C55.4897 11.3946 55.2229 10.9375 54.7682 10.8548C54.3148 10.7721 53.9528 11.069 53.8376 11.6213C53.8088 11.7591 53.785 11.8969 53.7612 12.0359C53.4844 13.6191 53.2276 15.206 52.9157 16.783C52.8606 17.0648 52.6352 17.3942 52.3909 17.5432C51.1272 18.3173 49.8346 19.045 48.5457 19.779C48.0046 20.0871 47.6164 19.9756 47.2882 19.4345C46.9325 18.8471 46.5705 18.2622 46.2448 17.6585C45.9943 17.1938 45.6549 16.9796 45.1163 17.0034C44.3986 17.0347 43.6797 17.0147 42.9608 17.0109C42.1817 17.0072 41.9099 16.7429 41.9074 15.9738C41.9024 14.5209 41.9174 13.068 41.8999 11.6151C41.8936 11.1491 42.0677 10.8272 42.4259 10.5354C43.686 9.5096 44.9285 8.46249 46.1735 7.4204C46.7083 6.97325 46.8298 6.48101 46.5154 6.09524C46.181 5.68441 45.7213 5.71322 45.1652 6.17665C44.589 6.65762 44.0079 7.13107 43.4405 7.6208C43.1261 7.89135 42.7979 8.09049 42.3808 7.91013C41.9537 7.72601 41.9011 7.34274 41.9049 6.92816C41.9136 5.89734 41.9074 4.86527 41.9074 3.83444C41.9074 3.69416 41.9111 3.55263 41.8961 3.4136C41.8423 2.93138 41.5003 2.59445 41.0832 2.60322C40.6524 2.61199 40.3204 2.94015 40.3117 3.44115C40.2929 4.58094 40.2992 5.72199 40.3042 6.86303C40.3067 7.28513 40.2904 7.69971 39.8457 7.90387C39.4111 8.10302 39.0729 7.88633 38.7473 7.60452C38.1323 7.07345 37.5123 6.5474 36.8748 6.04639C36.3162 5.60801 35.5346 5.87229 35.5333 6.51733C35.5333 6.79289 35.7387 7.14234 35.9579 7.33398C37.1967 8.40863 38.4567 9.4595 39.733 10.4891C40.1514 10.826 40.3342 11.2017 40.3092 11.7341C40.2766 12.4204 40.3017 13.1081 40.3017 13.7957V13.7932Z" fill="#080F2F"/>
<path d="M41.5742 1C41.9262 1.19038 42.3132 1.33693 42.6238 1.58117C43.2538 2.07591 43.5056 2.77231 43.5106 3.56265C43.5131 4.15509 43.5106 4.74753 43.5106 5.45144C43.8751 5.15961 44.1632 4.91411 44.4663 4.69117C45.8152 3.69542 47.7378 4.3079 48.1812 5.89233C48.4643 6.90186 48.1938 7.78613 47.3959 8.47126C46.3288 9.38685 45.2629 10.3049 44.1494 11.1642C43.6484 11.5499 43.4593 11.9583 43.4968 12.5808C43.5507 13.4976 43.5106 14.4195 43.5106 15.4089C43.9365 15.4089 44.3247 15.4428 44.7055 15.4027C46.186 15.2486 47.2043 15.8674 47.8305 17.1963C47.9683 17.4881 48.1587 17.7549 48.3353 18.0518C49.3185 17.4844 50.2717 16.9546 51.1986 16.3796C51.3564 16.282 51.4465 16.0051 51.4841 15.7947C51.7534 14.3205 52.0002 12.8438 52.2557 11.3671C52.5012 9.94798 53.7149 9.03615 55.0375 9.27663C56.3639 9.51711 57.2081 10.7834 56.9777 12.1812C56.9301 12.4705 56.8887 12.7624 56.8311 13.1431C57.4924 12.7649 58.0736 12.4117 58.6736 12.0935C59.5015 11.6552 60.3344 11.6865 61.1185 12.1962C61.8712 12.686 62.2395 13.4074 62.1869 14.3055C62.1355 15.1735 61.7222 15.8486 60.9707 16.2995C60.4246 16.6264 59.8722 16.9433 59.241 17.3115C59.613 17.4556 59.9111 17.5695 60.2079 17.6848C61.4942 18.1845 62.1418 19.5159 61.7022 20.7584C61.2538 22.0272 59.9023 22.6573 58.5709 22.1876C57.1004 21.6678 55.6375 21.1254 54.1795 20.5743C53.9002 20.4691 53.6898 20.4929 53.4393 20.6432C52.5726 21.1643 51.6908 21.6615 50.7752 22.1913C51.0595 22.6723 51.3175 23.1307 51.5956 23.5754C52.193 24.5348 52.1843 25.4829 51.5881 26.4399C51.3163 26.8757 51.0645 27.3229 50.7765 27.8101C51.7497 28.3737 52.7003 28.9349 53.666 29.4684C53.7837 29.5336 53.9967 29.4785 54.147 29.4246C55.6437 28.8848 57.128 28.3124 58.6322 27.7926C60.2931 27.2177 61.9489 28.4614 61.8149 30.1774C61.736 31.1819 61.1949 31.8908 60.2668 32.2904C59.9586 32.4231 59.638 32.5296 59.2309 32.6837C59.8885 33.0694 60.4684 33.3926 61.0321 33.7433C61.8913 34.2781 62.3397 35.2914 62.1593 36.2358C61.8487 37.8616 60.124 38.6845 58.6498 37.8979C58.0611 37.5847 57.4912 37.2353 56.8324 36.8558C56.895 37.2603 56.9413 37.5772 56.9939 37.8941C57.2144 39.2255 56.3113 40.5206 55.0112 40.7361C53.7336 40.9478 52.5099 40.071 52.2732 38.7521C52.0064 37.2616 51.7534 35.7699 51.5079 34.2756C51.4465 33.9036 51.3226 33.6381 50.9506 33.4439C50.0788 32.9905 49.2409 32.472 48.3403 31.9522C48.1149 32.3267 47.8719 32.6837 47.6752 33.0657C47.1041 34.1741 46.211 34.6789 44.9673 34.6013C44.5039 34.5724 44.0379 34.5962 43.5119 34.5962C43.5119 35.4868 43.5695 36.331 43.4956 37.1627C43.4229 37.9768 43.6797 38.5154 44.3448 39.0076C45.4232 39.8042 46.4352 40.6947 47.4485 41.5765C48.2263 42.2541 48.4818 43.1334 48.1812 44.1216C47.8907 45.0773 47.198 45.6221 46.2198 45.7787C45.5171 45.8902 44.8946 45.666 44.3448 45.2264C44.0943 45.026 43.8463 44.8205 43.5106 44.5462C43.5106 45.2677 43.5206 45.8852 43.5081 46.5027C43.4856 47.6763 42.8443 48.5768 41.8222 48.8937C40.4369 49.3233 38.9327 48.4052 38.7611 46.9548C38.6721 46.2021 38.7448 45.4293 38.7448 44.5212C38.344 44.8418 38.0672 45.0786 37.7766 45.294C37.0263 45.8514 36.2047 45.9766 35.3467 45.5996C34.4887 45.2226 34.0053 44.54 33.9326 43.6043C33.8662 42.7526 34.1894 42.0487 34.847 41.5001C35.9141 40.6096 36.9587 39.689 38.0597 38.841C38.5607 38.4552 38.7485 38.0469 38.7122 37.4244C38.6584 36.5076 38.6984 35.5857 38.6984 34.5962C38.3352 34.5962 38.0096 34.5649 37.6914 34.6013C36.0656 34.7916 34.9446 34.1316 34.2846 32.6448C34.1794 32.4068 34.0215 32.1927 33.875 31.9472C32.8918 32.5171 31.9399 33.0481 31.0143 33.623C30.8564 33.7207 30.7625 33.995 30.7249 34.2042C30.4556 35.6784 30.2089 37.1551 29.9546 38.6319C29.7091 40.0572 28.5005 40.9716 27.1803 40.7311C25.8489 40.4881 24.9972 39.2205 25.2301 37.8327C25.279 37.5422 25.3203 37.2516 25.3804 36.8646C24.7467 37.2253 24.1868 37.5459 23.6244 37.8641C22.9944 38.221 22.3306 38.32 21.6404 38.0745C20.701 37.7401 20.1324 37.0675 20.0334 36.0767C19.9332 35.076 20.3416 34.2743 21.1958 33.7333C21.7481 33.3838 22.323 33.0719 22.9731 32.6937C22.5573 32.5334 22.2116 32.4131 21.8771 32.2678C20.8588 31.8257 20.2564 30.7686 20.3954 29.6926C20.5307 28.6493 21.3874 27.7838 22.4959 27.6773C22.913 27.6373 23.3701 27.7312 23.7722 27.8702C25.1875 28.3587 26.5891 28.8873 27.9894 29.4158C28.275 29.5236 28.5017 29.5261 28.7748 29.3595C29.6377 28.8334 30.522 28.3399 31.4288 27.8151C31.1357 27.3141 30.8702 26.8419 30.5884 26.3797C30.0298 25.4667 30.021 24.5586 30.5796 23.6417C30.8627 23.1771 31.1307 22.7036 31.4313 22.1913C30.4556 21.6264 29.5037 21.0653 28.538 20.533C28.4203 20.4679 28.2074 20.5267 28.0571 20.5806C26.5603 21.1192 25.0748 21.6916 23.5705 22.2076C21.8897 22.7838 20.2451 21.5175 20.3929 19.769C20.4756 18.7795 21.0267 18.0956 21.941 17.7123C22.2516 17.5821 22.571 17.4743 22.9781 17.3228C22.2955 16.9207 21.6843 16.5901 21.1018 16.2118C20.2464 15.6532 19.8844 14.8303 20.0322 13.832C20.175 12.8676 20.7612 12.2263 21.693 11.9307C22.3669 11.7178 23.0194 11.8017 23.6369 12.1486C24.1918 12.4605 24.7467 12.7737 25.3779 13.1294C25.3203 12.7486 25.279 12.4467 25.2264 12.1461C24.9846 10.7659 25.8038 9.52713 27.1302 9.27287C28.4115 9.02738 29.7004 9.94171 29.9433 11.2907C30.2089 12.7649 30.4656 14.2416 30.6999 15.7208C30.7637 16.1266 30.9328 16.3771 31.2986 16.5738C32.1503 17.031 32.9782 17.5345 33.8763 18.0543C34.123 17.6409 34.3798 17.2401 34.6065 16.8243C35.145 15.8323 35.9654 15.3588 37.0952 15.4039C37.6062 15.424 38.1198 15.4077 38.6984 15.4077C38.6984 14.5848 38.6233 13.8007 38.7172 13.0367C38.8387 12.051 38.4717 11.4184 37.6877 10.8523C36.7019 10.1409 35.8014 9.31045 34.8695 8.52637C33.7673 7.60076 33.5844 6.16412 34.4286 5.11076C35.2728 4.05864 36.7821 3.92838 37.9056 4.81516C38.1386 4.99803 38.364 5.18967 38.6471 5.42138C38.6696 5.26732 38.6984 5.1571 38.6984 5.04688C38.7034 4.51581 38.6884 3.98349 38.7047 3.45368C38.7398 2.26379 39.3497 1.46093 40.4795 1.08642C40.5359 1.06764 40.5847 1.03006 40.6386 1C40.9517 1 41.2636 1 41.5767 1L41.5742 1ZM40.3017 13.7932C40.3017 14.5272 40.3067 15.2624 40.3004 15.9964C40.2929 16.7329 40.0161 17.0034 39.2683 17.0084C38.503 17.0134 37.7365 17.0197 36.9712 17.0059C36.5516 16.9984 36.261 17.1625 36.0531 17.527C35.6974 18.1507 35.3267 18.7657 34.9572 19.3819C34.5889 19.9944 34.2119 20.0984 33.5969 19.7452C32.3507 19.0312 31.1119 18.306 29.8644 17.5946C29.53 17.4042 29.3321 17.155 29.267 16.7604C28.9827 15.052 28.6821 13.3461 28.3727 11.6414C28.2712 11.084 27.8379 10.7621 27.3932 10.8661C26.9423 10.9713 26.7169 11.3846 26.8108 11.9307C26.9486 12.7298 27.0864 13.5302 27.2241 14.3293C27.293 14.7313 27.3018 15.1159 26.906 15.3739C26.5327 15.6169 26.2008 15.4778 25.8589 15.2787C24.9032 14.7188 23.94 14.169 22.9769 13.6216C22.4445 13.3198 21.9423 13.4024 21.7018 13.8183C21.4525 14.2504 21.6229 14.6787 22.1815 15.0031C23.1672 15.5755 24.153 16.1467 25.1425 16.7103C25.4844 16.9045 25.6973 17.1612 25.6522 17.5758C25.6096 17.9741 25.3429 18.1632 24.9984 18.2885C24.2356 18.564 23.4741 18.8421 22.7138 19.1239C22.1389 19.3356 21.8659 19.7665 22.0137 20.2136C22.1765 20.7033 22.6274 20.8574 23.2549 20.6282C24.8368 20.0495 26.42 19.4746 27.9969 18.8822C28.3602 18.7457 28.6833 18.7394 29.024 18.9398C30.2765 19.6725 31.5391 20.3902 32.7916 21.1229C33.3828 21.4686 33.4792 21.8582 33.1385 22.4481C32.7552 23.1094 32.3732 23.7733 31.9699 24.4221C31.7282 24.8103 31.7194 25.1661 31.9612 25.5581C32.3557 26.1944 32.7302 26.8432 33.1085 27.4907C33.4942 28.1508 33.3928 28.5278 32.7264 28.9136C31.5253 29.61 30.3166 30.2951 29.1204 31.0015C28.7397 31.227 28.3827 31.2595 27.9656 31.103C26.4037 30.5143 24.8356 29.9457 23.2662 29.377C23.0796 29.3094 22.8704 29.238 22.6813 29.258C22.3055 29.2981 22.04 29.5298 21.9949 29.9168C21.946 30.3377 22.154 30.6508 22.541 30.8036C23.3388 31.118 24.1442 31.4136 24.9521 31.7042C25.3303 31.8407 25.6272 32.0311 25.656 32.477C25.6848 32.9216 25.4092 33.1496 25.0635 33.345C24.1004 33.8923 23.1409 34.4459 22.184 35.0046C21.6554 35.3127 21.4751 35.7962 21.7181 36.2057C21.9648 36.6228 22.4433 36.6917 22.9894 36.3798C23.9513 35.83 24.9132 35.2801 25.8689 34.719C26.2121 34.5173 26.5453 34.3896 26.916 34.6376C27.2893 34.8881 27.2943 35.2551 27.2279 35.6408C27.0914 36.4412 26.9523 37.2403 26.8146 38.0394C26.7194 38.5905 26.9699 39.0452 27.4233 39.1429C27.8767 39.2418 28.2712 38.9237 28.3752 38.345C28.6808 36.6404 28.9576 34.9294 29.2908 33.2298C29.3459 32.9479 29.5651 32.6148 29.8081 32.4657C31.0719 31.6917 32.3645 30.9639 33.6533 30.23C34.2019 29.9181 34.5902 30.0208 34.9146 30.5556C35.3041 31.1957 35.6849 31.8407 36.0606 32.4895C36.2598 32.834 36.5391 32.9993 36.9412 32.9943C37.7064 32.9843 38.4717 32.9893 39.2383 32.993C40.0461 32.9968 40.3029 33.251 40.3054 34.0639C40.3092 35.5018 40.2954 36.9385 40.3129 38.3763C40.3179 38.8398 40.1601 39.1679 39.8007 39.4623C38.5056 40.5181 37.2255 41.5941 35.9467 42.67C35.482 43.0608 35.4006 43.5768 35.7212 43.9363C36.0456 44.3007 36.4928 44.2907 36.9675 43.8987C37.6062 43.3714 38.2425 42.8416 38.8725 42.3055C39.1719 42.05 39.4975 41.9372 39.8633 42.1101C40.2177 42.2779 40.3117 42.5998 40.3092 42.9693C40.3042 44.0477 40.3067 45.1249 40.3092 46.2033C40.3092 46.3749 40.3079 46.5503 40.3417 46.7156C40.4269 47.1314 40.6924 47.3769 41.1183 47.397C41.5179 47.417 41.8347 47.1076 41.8949 46.6705C41.9136 46.5315 41.9124 46.3899 41.9124 46.2497C41.9136 45.2501 41.9124 44.2494 41.9124 43.2499C41.9124 43.1409 41.9149 43.0307 41.9124 42.9217C41.9049 42.566 42.0214 42.2667 42.3545 42.1076C42.7002 41.9435 43.0184 42.0274 43.309 42.2717C43.9903 42.8453 44.6692 43.4215 45.3631 43.9788C45.7589 44.297 46.201 44.2632 46.4979 43.9325C46.796 43.6018 46.7509 43.1109 46.3839 42.7614C46.2599 42.6424 46.1246 42.5359 45.9918 42.427C44.7919 41.4275 43.5958 40.4217 42.3884 39.4322C42.0752 39.1754 41.9049 38.8899 41.9074 38.474C41.9187 36.9748 41.9074 35.4743 41.9136 33.975C41.9174 33.2661 42.2005 32.9993 42.9257 32.9955C43.691 32.9905 44.4575 32.983 45.2228 32.998C45.6599 33.0068 45.9618 32.839 46.1785 32.4569C46.5304 31.8319 46.9024 31.217 47.2732 30.602C47.6264 30.0145 48.0046 29.9106 48.5983 30.25C49.8584 30.9702 51.1121 31.7029 52.3722 32.4206C52.7103 32.6135 52.8882 32.8778 52.9521 33.2673C53.2339 34.9607 53.5332 36.6504 53.8364 38.34C53.9416 38.93 54.3248 39.2431 54.7795 39.1441C55.2317 39.0452 55.4909 38.588 55.3982 38.0432C55.263 37.2428 55.1252 36.4437 54.9862 35.6433C54.9185 35.2563 54.921 34.8906 55.2918 34.6388C55.6613 34.3871 55.9944 34.5148 56.3389 34.7152C57.2958 35.2751 58.2552 35.8287 59.2222 36.3686C59.4188 36.4788 59.6568 36.5765 59.8747 36.574C60.2304 36.569 60.501 36.3573 60.5774 35.9941C60.6651 35.577 60.4809 35.2626 60.1215 35.0534C59.1646 34.496 58.2051 33.9399 57.2419 33.3913C56.8624 33.1759 56.5055 32.9605 56.5581 32.4382C56.6082 31.9397 56.9852 31.7969 57.3785 31.6553C58.1412 31.381 58.9028 31.103 59.6593 30.8099C60.0488 30.6583 60.2618 30.3515 60.2204 29.9306C60.1816 29.5423 59.9198 29.3069 59.5441 29.263C59.3549 29.2417 59.1445 29.3094 58.9579 29.377C57.3747 29.9507 55.7915 30.5268 54.2146 31.118C53.8326 31.2608 53.5044 31.242 53.1487 31.0316C51.9125 30.3014 50.6612 29.5962 49.4212 28.8735C48.8363 28.5328 48.7361 28.137 49.0793 27.5471C49.4626 26.8858 49.8458 26.2232 50.2479 25.5731C50.4896 25.1836 50.4946 24.8279 50.2529 24.4371C49.8508 23.787 49.4676 23.1244 49.0831 22.4631C48.7311 21.8569 48.8388 21.4624 49.4525 21.1066C50.6274 20.4253 51.816 19.769 52.9746 19.06C53.4493 18.7694 53.8702 18.7344 54.3837 18.9323C55.8967 19.5147 57.4248 20.062 58.9491 20.6157C59.1357 20.6833 59.3437 20.7559 59.534 20.7384C59.9136 20.7046 60.1728 20.4704 60.2242 20.0846C60.2805 19.6612 60.0789 19.3494 59.6869 19.1966C58.8589 18.8747 58.0235 18.5665 57.1868 18.2672C56.8311 18.1394 56.5894 17.9353 56.5593 17.5407C56.528 17.1474 56.7322 16.9019 57.0591 16.7166C57.7655 16.3183 58.4657 15.9074 59.1671 15.4991C59.5178 15.295 59.8785 15.1046 60.2129 14.8779C60.6075 14.6098 60.7089 14.1239 60.4797 13.7669C60.2555 13.4187 59.8234 13.316 59.4038 13.5189C59.2911 13.5728 59.1858 13.6404 59.0769 13.703C58.1175 14.2566 57.1568 14.809 56.1973 15.3651C55.8855 15.5455 55.531 15.6094 55.2893 15.3413C55.1052 15.1372 55.0525 14.8077 54.9674 14.5272C54.9386 14.432 54.9849 14.3117 55.0037 14.204C55.134 13.45 55.2667 12.6973 55.3957 11.9432C55.4897 11.3946 55.2229 10.9375 54.7682 10.8548C54.3148 10.7721 53.9528 11.069 53.8376 11.6213C53.8088 11.7591 53.785 11.8969 53.7612 12.0359C53.4844 13.6191 53.2276 15.206 52.9157 16.783C52.8606 17.0648 52.6352 17.3942 52.3909 17.5432C51.1272 18.3173 49.8346 19.045 48.5457 19.779C48.0046 20.0871 47.6164 19.9756 47.2882 19.4345C46.9325 18.8471 46.5705 18.2622 46.2448 17.6585C45.9943 17.1938 45.6549 16.9796 45.1163 17.0034C44.3986 17.0347 43.6797 17.0147 42.9608 17.0109C42.1817 17.0072 41.9099 16.7429 41.9074 15.9738C41.9024 14.5209 41.9174 13.068 41.8999 11.6151C41.8936 11.1491 42.0677 10.8272 42.4259 10.5354C43.686 9.5096 44.9285 8.46249 46.1735 7.4204C46.7083 6.97325 46.8298 6.48101 46.5154 6.09524C46.181 5.68441 45.7213 5.71322 45.1652 6.17665C44.589 6.65762 44.0079 7.13107 43.4405 7.6208C43.1261 7.89135 42.7979 8.09049 42.3808 7.91013C41.9537 7.72601 41.9011 7.34274 41.9049 6.92816C41.9136 5.89734 41.9074 4.86527 41.9074 3.83444C41.9074 3.69416 41.9111 3.55263 41.8961 3.4136C41.8423 2.93138 41.5003 2.59445 41.0832 2.60322C40.6524 2.61199 40.3204 2.94015 40.3117 3.44115C40.2929 4.58094 40.2992 5.72199 40.3042 6.86303C40.3067 7.28513 40.2904 7.69971 39.8457 7.90387C39.4111 8.10302 39.0729 7.88633 38.7473 7.60452C38.1323 7.07345 37.5123 6.5474 36.8748 6.04639C36.3162 5.60801 35.5346 5.87229 35.5333 6.51733C35.5333 6.79289 35.7387 7.14234 35.9579 7.33398C37.1967 8.40863 38.4567 9.4595 39.733 10.4891C40.1514 10.826 40.3342 11.2017 40.3092 11.7341C40.2766 12.4204 40.3017 13.1081 40.3017 13.7957V13.7932Z" stroke="#080F2F" stroke-width="0.6" mask="url(#path-2-outside-1_58_3692)"/>
<path d="M35.9403 26.2141L35.9403 26.2141C35.4853 25.4027 35.5009 24.5485 35.9649 23.7425C36.4477 22.9022 36.9424 22.0673 37.4625 21.2482L37.5774 21.3211L37.4625 21.2482C37.9589 20.4665 38.6995 20.064 39.6315 20.0613M35.9403 26.2141L39.6316 20.0613C39.6316 20.0613 39.6315 20.0613 39.6315 20.0613M35.9403 26.2141C36.4304 27.0875 36.9504 27.9455 37.489 28.7891C37.9683 29.5399 38.6897 29.9233 39.5789 29.9405L35.9403 26.2141ZM39.6315 20.0613C40.6163 20.0576 41.6012 20.0576 42.586 20.0613L42.5861 20.0613C43.5391 20.0653 44.2816 20.4898 44.7806 21.2906M39.6315 20.0613L42.5854 20.2113C43.486 20.2151 44.1811 20.6121 44.6533 21.3699M44.7806 21.2906C44.7806 21.2905 44.7806 21.2905 44.7806 21.2904L44.6533 21.3699M44.7806 21.2906L44.6533 21.3699M44.7806 21.2906C45.2777 22.0864 45.7583 22.8932 46.2285 23.7045C46.7253 24.5617 46.7225 25.4469 46.2274 26.3035L46.2273 26.3036C45.7571 27.1149 45.2777 27.9218 44.7792 28.7179M44.6533 21.3699C45.1493 22.164 45.629 22.9694 46.0987 23.7797C46.5684 24.5901 46.5659 25.418 46.0975 26.2284C45.6278 27.0388 45.1493 27.8441 44.6521 28.6382M44.7792 28.7179C44.7792 28.7178 44.7792 28.7178 44.7792 28.7178L44.6521 28.6382M44.7792 28.7179L44.6521 28.6382M44.7792 28.7179C44.2787 29.5176 43.5349 29.9377 42.5827 29.9443L42.5817 29.7943C43.4822 29.7881 44.1786 29.3948 44.6521 28.6382M40.7741 21.9583C40.7428 21.9585 40.7115 21.9587 40.6802 21.9589C40.3656 21.961 40.0479 21.9632 39.733 21.9545L39.7325 21.9544C39.5548 21.9489 39.4134 21.984 39.2965 22.0517C39.1791 22.1198 39.0764 22.2267 38.986 22.3803M40.7741 21.9583L42.5138 28.0275C41.5707 28.0761 40.6203 28.0773 39.6777 28.0263L39.6774 28.0263C39.575 28.0209 39.4457 27.9789 39.3217 27.9089C39.1977 27.839 39.0942 27.7497 39.0356 27.6643C38.6974 27.1692 38.3945 26.6535 38.0887 26.1326C37.9452 25.8883 37.801 25.6428 37.6522 25.3978C37.5646 25.2534 37.5277 25.1208 37.5296 24.9942C37.5316 24.8671 37.5731 24.7337 37.662 24.5882L37.6621 24.5881C38.1096 23.8548 38.5509 23.1201 38.986 22.3803M40.7741 21.9583H41.0924C41.2423 21.9583 41.3879 21.9535 41.5306 21.9489C41.8544 21.9383 42.1629 21.9282 42.47 21.9753L42.4703 21.9754C42.599 21.9949 42.746 22.0407 42.8777 22.1071C43.011 22.1743 43.116 22.2563 43.1748 22.3408C43.6843 23.0765 44.1445 23.8526 44.5578 24.648L44.5579 24.6482C44.6029 24.7344 44.629 24.8654 44.6272 25.0081C44.6254 25.1504 44.596 25.2839 44.5492 25.3736C44.1335 26.1677 43.6706 26.9416 43.1644 27.6805L43.2881 27.7652L40.7741 21.9583ZM38.986 22.3803L38.8567 22.3043L38.986 22.3803ZM40.9312 29.7943V29.9433L41.0812 29.7931C41.0312 29.7931 40.9812 29.7931 40.9312 29.7933V29.7943Z" fill="#080F2F" stroke="#080F2F" stroke-width="0.3"/>
</svg>
