<svg width="32" height="12" viewBox="0 0 32 12" fill="none" xmlns="http://www.w3.org/2000/svg">
<path d="M1.44876 11.127C0.903157 11.127 0.46086 10.6847 0.46086 10.1391C0.46086 9.87204 0.568991 9.61635 0.760606 9.43032L4.17953 6.11097C4.64568 5.65721 4.99001 5.23798 5.21249 4.85327C5.43497 4.46856 5.54622 4.07398 5.54622 3.66954C5.54622 3.16646 5.3767 2.78668 5.03768 2.53021C4.69866 2.27374 4.20601 2.1455 3.55975 2.1455C3.04062 2.1455 2.54268 2.23428 2.06593 2.41184C1.86764 2.48158 1.67118 2.56839 1.47656 2.67227C1.03888 2.90587 0.464507 2.77894 0.253518 2.32992C0.104386 2.01254 0.186696 1.62901 0.484636 1.44407C0.836951 1.22537 1.23691 1.03994 1.68452 0.887793C2.36257 0.660912 3.0724 0.547472 3.81402 0.547472C5.02179 0.547472 5.94881 0.799014 6.59507 1.3021C7.24133 1.80518 7.56447 2.52528 7.56447 3.46239C7.56447 4.11344 7.40025 4.7349 7.07182 5.32676C6.74339 5.90875 6.23486 6.52035 5.54622 7.16153L2.70386 9.808C2.60629 9.89885 2.44733 9.82966 2.44733 9.69634C2.44733 9.61208 2.51563 9.54377 2.5999 9.54377H7.21782C7.65502 9.54377 8.00943 9.89819 8.00943 10.3354C8.00943 10.7726 7.65502 11.127 7.21782 11.127H1.44876Z" fill="white"/>
<path d="M15.3929 11.127C14.8487 11.127 14.4076 10.6859 14.4076 10.1417V10.106C14.4076 9.54218 13.9505 9.08508 13.3866 9.08508H10.3993C9.84835 9.08508 9.4017 8.63843 9.4017 8.08745C9.4017 7.87066 9.47232 7.65977 9.60287 7.48669L14.3944 1.13426C14.6029 0.857914 14.9289 0.695438 15.2751 0.695438C15.8843 0.695438 16.3782 1.18931 16.3782 1.79852V6.83248C16.3782 7.27571 16.7375 7.63502 17.1807 7.63502H17.2582C17.6586 7.63502 17.9832 7.95963 17.9832 8.36005C17.9832 8.76047 17.6586 9.08508 17.2582 9.08508H17.1807C16.7375 9.08508 16.3782 9.44439 16.3782 9.88761V10.1417C16.3782 10.6859 15.937 11.127 15.3929 11.127ZM12.6675 7.63502C13.6285 7.63502 14.4076 6.85593 14.4076 5.89487V3.0715C14.4076 3.00137 14.4645 2.94451 14.5346 2.94451C14.6393 2.94451 14.699 3.06414 14.6361 3.14784L11.1273 7.813C11.0631 7.89831 10.9273 7.85293 10.9273 7.74618C10.9273 7.68479 10.9771 7.63502 11.0385 7.63502H12.6675Z" fill="white"/>
<path d="M19.6992 11.4813C19.591 11.7919 19.2982 12 18.9693 12C18.4374 12 18.0645 11.4752 18.2394 10.9729L21.8806 0.518673C21.9887 0.208106 22.2816 0 22.6104 0C23.1423 0 23.5153 0.524791 23.3403 1.0271L19.6992 11.4813Z" fill="white"/>
<path d="M26.3478 11.127C25.6022 11.127 25.1349 10.3213 25.5052 9.67411L29.8477 2.08418C29.9189 1.95975 30.1089 2.01027 30.1089 2.15363C30.1089 2.23086 30.0463 2.29347 29.969 2.29347H24.9644C24.5231 2.29347 24.1654 1.93573 24.1654 1.49445C24.1654 1.05317 24.5231 0.695438 24.9644 0.695438H30.8751C31.4963 0.695438 32 1.19909 32 1.82038C32 2.01411 31.95 2.20456 31.8548 2.37327L27.1932 10.6333C27.0211 10.9384 26.698 11.127 26.3478 11.127Z" fill="white"/>
</svg>
