<svg width="30" height="30" viewBox="0 0 30 30" fill="none" xmlns="http://www.w3.org/2000/svg">
<path d="M22.725 10.0499L23.3038 9.46989C23.7646 9.00892 24.3897 8.74987 25.0415 8.74976C25.6933 8.74964 26.3184 9.00846 26.7794 9.46927C27.2404 9.93008 27.4994 10.5551 27.4995 11.207C27.4997 11.8588 27.2408 12.4839 26.78 12.9449L26.2013 13.5249M22.725 10.0499C22.725 10.0499 22.7975 11.2799 23.8838 12.3661C24.97 13.4524 26.2013 13.5249 26.2013 13.5249M22.725 10.0499L17.4 15.3749C17.0375 15.7349 16.8575 15.9161 16.7025 16.1149C16.52 16.3499 16.3638 16.6024 16.235 16.8724C16.1263 17.0999 16.0463 17.3411 15.885 17.8249L15.3688 19.3749L15.2013 19.8761M26.2013 13.5249L20.8763 18.8499C20.5138 19.2124 20.3338 19.3924 20.135 19.5474C19.9 19.7299 19.6475 19.8861 19.3775 20.0149C19.15 20.1236 18.9088 20.2036 18.425 20.3649L16.875 20.8811L16.3738 21.0486M15.2013 19.8761L15.035 20.3786C14.9963 20.4953 14.9908 20.6204 15.0191 20.74C15.0474 20.8596 15.1084 20.9689 15.1953 21.0558C15.2822 21.1428 15.3916 21.2038 15.5112 21.2321C15.6308 21.2604 15.7559 21.2549 15.8725 21.2161L16.3738 21.0486M15.2013 19.8761L16.3738 21.0486" stroke="white" stroke-width="2"/>
<path d="M10 16.25H13.125M10 11.25H18.125M10 21.25H11.875M3.75 17.5V12.5C3.75 7.78625 3.75 5.42875 5.215 3.965C6.67875 2.5 9.03625 2.5 13.75 2.5H16.25C20.9637 2.5 23.3212 2.5 24.785 3.965M26.25 17.5C26.25 22.2137 26.25 24.5712 24.785 26.035M24.785 26.035C23.3212 27.5 20.9637 27.5 16.25 27.5H13.75C9.03625 27.5 6.67875 27.5 5.215 26.035M24.785 26.035C25.965 24.8562 26.1937 23.1 26.2387 20" stroke="white" stroke-width="2" stroke-linecap="round"/>
</svg>
