<svg width="30" height="30" viewBox="0 0 30 30" fill="none" xmlns="http://www.w3.org/2000/svg">
<path d="M9.38253 19.0813C9.41536 19.1999 9.47125 19.311 9.54699 19.4081C9.62274 19.5052 9.71687 19.5864 9.82401 19.6471C9.93114 19.7078 10.0492 19.7468 10.1714 19.7619C10.2936 19.777 10.4176 19.7678 10.5363 19.735C10.655 19.7022 10.766 19.6463 10.8631 19.5705C10.9602 19.4948 11.0414 19.4007 11.1021 19.2935C11.1628 19.1864 11.2018 19.0683 11.2169 18.9461C11.232 18.8239 11.2229 18.6999 11.19 18.5813L9.38253 19.0813ZM4.00003 5.90625C3.88088 5.87145 3.75601 5.86066 3.63265 5.8745C3.5093 5.88834 3.38992 5.92654 3.28145 5.98688C3.17298 6.04722 3.07756 6.1285 3.00075 6.226C2.92394 6.32351 2.86725 6.4353 2.83398 6.55488C2.80071 6.67447 2.79152 6.79947 2.80695 6.92264C2.82237 7.0458 2.8621 7.16468 2.92383 7.27237C2.98555 7.38006 3.06805 7.47442 3.16654 7.54997C3.26502 7.62553 3.37753 7.68077 3.49753 7.7125L4.00003 5.90625ZM25.235 19.6563C25.3571 19.628 25.4723 19.5756 25.5737 19.5021C25.6752 19.4286 25.7609 19.3355 25.8258 19.2284C25.8907 19.1212 25.9334 19.0021 25.9515 18.8781C25.9696 18.7541 25.9626 18.6278 25.931 18.5065C25.8995 18.3853 25.8439 18.2716 25.7676 18.1722C25.6914 18.0728 25.5959 17.9897 25.487 17.9278C25.3781 17.8659 25.2578 17.8264 25.1334 17.8118C25.009 17.7971 24.8829 17.8076 24.7625 17.8425L25.235 19.6563ZM12.7463 21.9488C13.1338 23.3488 12.2838 24.8275 10.7788 25.2188L11.25 27.0325C13.7213 26.3913 15.2313 23.905 14.5538 21.4488L12.7463 21.9488ZM10.7788 25.2188C9.26378 25.6125 7.74378 24.7325 7.35378 23.32L5.54628 23.82C6.22128 26.2638 8.78878 27.6725 11.25 27.0325L10.7788 25.2188ZM7.35378 23.32C6.96628 21.92 7.81628 20.4413 9.32128 20.05L8.85003 18.2375C6.37878 18.8788 4.86753 21.3638 5.54628 23.82L7.35378 23.32ZM9.32128 20.05C10.8363 19.6563 12.3563 20.5363 12.7463 21.9488L14.5538 21.4488C13.8788 19.005 11.3113 17.5963 8.85003 18.2363L9.32128 20.05ZM11.19 18.5813L8.50003 8.84375L6.69253 9.34375L9.38253 19.0813L11.19 18.5813ZM6.13003 6.49625L4.00003 5.90625L3.49753 7.7125L5.62878 8.30375L6.13003 6.49625ZM8.50003 8.84375C8.34143 8.28107 8.03976 7.76907 7.62441 7.35766C7.20906 6.94625 6.69421 6.64948 6.13003 6.49625L5.63128 8.30375C6.16253 8.45125 6.55753 8.855 6.69253 9.34375L8.50003 8.84375ZM13.8875 22.6063L25.235 19.6563L24.7638 17.8425L13.415 20.7925L13.8875 22.6063Z" fill="white"/>
<path d="M11.9563 10.9125C11.3501 8.71874 11.0476 7.62124 11.5626 6.75749C12.0763 5.89249 13.2076 5.59874 15.4701 5.00999L17.8701 4.38749C20.1326 3.79999 21.2638 3.50499 22.1551 4.00374C23.0463 4.50374 23.3501 5.59999 23.9551 7.79499L24.5988 10.1225C25.2051 12.3162 25.5088 13.4137 24.9938 14.2787C24.4788 15.1425 23.3476 15.4375 21.0851 16.025L18.6851 16.6487C16.4226 17.2362 15.2913 17.53 14.4001 17.0312C13.5088 16.5312 13.2063 15.435 12.6001 13.2412L11.9563 10.9125Z" stroke="white" stroke-width="2"/>
</svg>
