<svg width="72" height="52" viewBox="0 0 72 52" fill="none" xmlns="http://www.w3.org/2000/svg">
<circle cx="18" cy="26" r="18" fill="#29AD33"/>
<path d="M43.7338 29.5316C43.4272 29.2285 43.0128 29.0596 42.5817 29.062C42.1506 29.0645 41.7381 29.2381 41.435 29.5446C41.1318 29.8512 40.9629 30.2656 40.9654 30.6968C40.9678 31.1279 41.1414 31.5404 41.448 31.8435L43.7338 29.5316ZM53.6268 18.3776C53.4422 18.1931 53.2958 17.9741 53.196 17.733C53.0961 17.4919 53.0447 17.2335 53.0447 16.9726C53.0447 16.7116 53.0961 16.4532 53.196 16.2121C53.2958 15.971 53.4422 15.752 53.6268 15.5675L51.328 13.2708C50.3466 14.2528 49.7954 15.5843 49.7954 16.9726C49.7954 18.3608 50.3466 19.6923 51.328 20.6743L53.6268 18.3776ZM56.4348 18.3776C56.2503 18.5622 56.0312 18.7086 55.7901 18.8085C55.5491 18.9083 55.2907 18.9598 55.0297 18.9598C54.7687 18.9598 54.5103 18.9083 54.2693 18.8085C54.0282 18.7086 53.8091 18.5622 53.6246 18.3776L51.328 20.6743C52.3099 21.6556 53.6414 22.2069 55.0297 22.2069C56.418 22.2069 57.7495 21.6556 58.7315 20.6743L56.4348 18.3776ZM56.4348 15.5675C56.6193 15.752 56.7657 15.971 56.8656 16.2121C56.9655 16.4532 57.0169 16.7116 57.0169 16.9726C57.0169 17.2335 56.9655 17.4919 56.8656 17.733C56.7657 17.9741 56.6193 18.1931 56.4348 18.3776L58.7315 20.6743C59.7134 19.6922 60.2651 18.3603 60.2651 16.9715C60.2651 15.5827 59.7134 14.2507 58.7315 13.2686L56.4348 15.5675ZM58.7315 13.2686C57.7495 12.2873 56.418 11.7382 55.0297 11.7382C53.6414 11.7382 52.3099 12.2895 51.328 13.2708L53.6246 15.5675C53.8091 15.3829 54.0282 15.2365 54.2693 15.1367C54.5103 15.0368 54.7687 14.9854 55.0297 14.9854C55.2907 14.9854 55.5491 15.0368 55.7901 15.1367C56.0312 15.2365 56.2503 15.3829 56.4348 15.5675L58.7315 13.2686ZM62.8676 9.13465C64.9013 11.1687 66.0438 13.9272 66.0438 16.8036C66.0438 19.6799 64.9013 22.4384 62.8676 24.4725L65.1643 26.7691C67.8073 24.1256 69.2921 20.5406 69.2921 16.8025C69.2921 13.0644 67.8073 9.47931 65.1643 6.83581L62.8676 9.13465ZM65.1643 6.83581C62.5208 4.19282 58.9357 2.71021 55.1976 2.71021C51.4595 2.71021 47.8745 4.19498 45.231 6.83798L47.5298 9.13465C49.5638 7.10093 52.3224 5.95843 55.1987 5.95843C58.075 5.95843 60.8336 7.10093 62.8676 9.13465L65.1643 6.83581ZM41.5043 20.6396L34.8006 27.3433L37.0973 29.64L43.801 22.9385L41.5043 20.6396ZM44.659 37.1995L46.8993 34.9591L44.6005 32.6625L42.3601 34.9006L44.659 37.1995ZM46.8993 34.9591L51.3626 30.4958L49.0638 28.1991L44.6005 32.6625L46.8993 34.9591ZM33.57 30.8555L33.9903 34.6276L37.2186 34.268L36.8005 30.498L33.57 30.8555ZM37.3746 38.012L41.1446 38.4323L41.5043 35.2018L37.7343 34.7836L37.3746 38.012ZM34.9653 36.66L35.3423 37.0348L37.639 34.7381L37.2641 34.3633L34.9653 36.66ZM37.7343 34.7836C37.699 34.7795 37.6661 34.7635 37.6411 34.7381L35.3423 37.0348C35.8883 37.583 36.6055 37.9275 37.3746 38.012L37.7343 34.7836ZM33.9903 34.6276C34.0748 35.3968 34.4193 36.114 34.9653 36.66L37.2641 34.3633C37.2391 34.3375 37.2217 34.3038 37.2186 34.268L33.9903 34.6276ZM42.3601 34.9006C42.2492 35.0119 42.1147 35.0967 41.9665 35.1488C41.8184 35.2009 41.6604 35.2191 41.5043 35.2018L41.1468 38.4301C41.787 38.5013 42.435 38.4276 43.043 38.2146C43.6509 38.0016 44.2031 37.6547 44.659 37.1995L42.3601 34.9006ZM34.8006 27.3433C34.3448 27.7992 33.9973 28.3517 33.7839 28.96C33.5704 29.5684 33.4966 30.2169 33.5678 30.8576L36.7983 30.498C36.781 30.3419 36.7992 30.1839 36.8513 30.0357C36.9034 29.8876 36.9883 29.7509 37.0995 29.64L34.8006 27.3433ZM44.6936 19.513C44.2219 17.686 44.2352 15.7676 44.7322 13.9474C45.2293 12.1272 46.1928 10.4683 47.5276 9.13465L45.231 6.83798C43.4968 8.57061 42.2447 10.7257 41.5984 13.0903C40.952 15.455 40.9359 17.9473 41.5476 20.3211L44.6936 19.513ZM62.8676 24.4725C61.534 25.8073 59.8729 26.7708 58.0527 27.2679C56.2325 27.7649 54.3141 27.7782 52.4871 27.3065L51.6811 30.4546C54.0551 31.067 56.5456 31.0493 58.9106 30.4033C61.2757 29.7574 63.4291 28.5054 65.1621 26.7713L62.8676 24.4725ZM51.3605 30.4958C51.3872 30.4714 51.4202 30.4549 51.4558 30.4481C51.5296 30.4324 51.6083 30.4347 51.6811 30.4546L52.4871 27.3065C51.3453 27.014 50.0128 27.2501 49.0638 28.1991L51.3605 30.4958ZM43.801 22.9385C44.75 21.9916 44.9861 20.6548 44.6936 19.5151L41.5476 20.3211C41.5693 20.4078 41.565 20.4858 41.552 20.5443C41.545 20.5809 41.5277 20.6147 41.5021 20.6418L43.801 22.9385ZM46.8906 32.656L43.7316 29.5316L41.4458 31.8435L44.6048 34.9656L46.8906 32.656Z" fill="#080F2F"/>
<path d="M67.6668 32.4847C67.5282 38.5384 66.9518 42.0744 64.5338 44.4902C61.3575 47.6666 56.2485 47.6666 46.0218 47.6666C35.7952 47.6666 30.6862 47.6666 27.5098 44.4902C24.3335 41.3139 24.3335 36.2049 24.3335 25.9782C24.3335 15.7516 24.3335 10.6426 27.5098 7.46625C29.9235 5.04825 33.4617 4.47192 39.5153 4.33325" stroke="#080F2F" stroke-width="3" stroke-linecap="round"/>
</svg>
