<svg width="66" height="52" viewBox="0 0 66 52" fill="none" xmlns="http://www.w3.org/2000/svg">
<circle cx="18" cy="26" r="18" fill="#29AD33"/>
<path d="M30.2628 33.0742C30.3197 33.2799 30.4166 33.4724 30.5479 33.6407C30.6792 33.809 30.8423 33.9497 31.028 34.055C31.2137 34.1602 31.4183 34.2278 31.6302 34.254C31.842 34.2801 32.0569 34.2643 32.2626 34.2074C32.4684 34.1505 32.6608 34.0536 32.8291 33.9223C32.9974 33.791 33.1382 33.6278 33.2434 33.4421C33.3486 33.2564 33.4162 33.0518 33.4424 32.84C33.4685 32.6282 33.4527 32.4133 33.3958 32.2075L30.2628 33.0742ZM20.9331 10.2375C20.7266 10.1772 20.5102 10.1585 20.2964 10.1825C20.0825 10.2065 19.8756 10.2727 19.6876 10.3773C19.4996 10.4819 19.3342 10.6228 19.2011 10.7918C19.0679 10.9608 18.9697 11.1545 18.912 11.3618C18.8543 11.5691 18.8384 11.7858 18.8651 11.9993C18.8919 12.2128 18.9607 12.4188 19.0677 12.6055C19.1747 12.7921 19.3177 12.9557 19.4884 13.0867C19.6591 13.2176 19.8541 13.3134 20.0621 13.3684L20.9331 10.2375ZM57.7405 34.0709C57.9521 34.0219 58.1517 33.9311 58.3276 33.8037C58.5035 33.6763 58.652 33.515 58.7645 33.3292C58.877 33.1434 58.9511 32.937 58.9824 32.7221C59.0137 32.5072 59.0017 32.2881 58.9469 32.078C58.8922 31.8678 58.7958 31.6708 58.6636 31.4985C58.5314 31.3262 58.366 31.1821 58.1772 31.0748C57.9884 30.9675 57.78 30.8992 57.5643 30.8738C57.3486 30.8484 57.13 30.8665 56.9215 30.927L57.7405 34.0709ZM36.0933 38.0445C36.765 40.4712 35.2916 43.0344 32.683 43.7125L33.4998 46.8564C37.7833 45.7449 40.4006 41.4354 39.2263 37.1779L36.0933 38.0445ZM32.683 43.7125C30.057 44.395 27.4223 42.8697 26.7463 40.4214L23.6133 41.288C24.7833 45.5239 29.2336 47.9657 33.4998 46.8564L32.683 43.7125ZM26.7463 40.4214C26.0746 37.9947 27.548 35.4315 30.1566 34.7534L29.3398 31.6117C25.0563 32.7232 22.4368 37.0305 23.6133 41.288L26.7463 40.4214ZM30.1566 34.7534C32.7826 34.0709 35.4173 35.5962 36.0933 38.0445L39.2263 37.1779C38.0563 32.942 33.606 30.5002 29.3398 31.6095L30.1566 34.7534ZM33.3958 32.2075L28.7331 15.3292L25.6001 16.1959L30.2628 33.0742L33.3958 32.2075ZM24.6251 11.2602L20.9331 10.2375L20.0621 13.3684L23.7563 14.3932L24.6251 11.2602ZM28.7331 15.3292C28.4582 14.3539 27.9353 13.4664 27.2154 12.7533C26.4955 12.0402 25.603 11.5258 24.6251 11.2602L23.7606 14.3932C24.6815 14.6489 25.3661 15.3487 25.6001 16.1959L28.7331 15.3292ZM38.0715 39.1842L57.7405 34.0709L56.9236 30.927L37.2525 36.0404L38.0715 39.1842Z" fill="#080F2F"/>
<path d="M34.7242 18.9151C33.6734 15.1126 33.149 13.2102 34.0417 11.7131C34.9322 10.2137 36.893 9.70455 40.8147 8.68405L44.9747 7.60506C48.8964 6.58672 50.8572 6.07539 52.402 6.93989C53.9469 7.80656 54.4734 9.70672 55.522 13.5114L56.6379 17.5457C57.6887 21.3482 58.2152 23.2506 57.3225 24.7499C56.4299 26.2471 54.469 26.7584 50.5474 27.7767L46.3874 28.8579C42.4657 29.8762 40.5049 30.3854 38.96 29.5209C37.4152 28.6542 36.8909 26.7541 35.84 22.9516L34.7242 18.9151Z" stroke="#080F2F" stroke-width="3"/>
</svg>
