<svg width="72" height="52" viewBox="0 0 72 52" fill="none" xmlns="http://www.w3.org/2000/svg">
<circle cx="18" cy="26" r="18" fill="#29AD33"/>
<path d="M24.3335 26.0001C24.3335 17.8296 24.3335 13.7432 26.8728 11.2061C29.41 8.66675 33.4963 8.66675 41.6668 8.66675H50.3335C58.504 8.66675 62.5903 8.66675 65.1275 11.2061C67.6668 13.7432 67.6668 17.8296 67.6668 26.0001C67.6668 34.1706 67.6668 38.2569 65.1275 40.7941C62.5903 43.3334 58.504 43.3334 50.3335 43.3334H41.6668C33.4963 43.3334 29.41 43.3334 26.8728 40.7941C24.3335 38.2569 24.3335 34.1706 24.3335 26.0001Z" stroke="#080F2F" stroke-width="3"/>
<path d="M41.6668 34.6667H33.0002M50.3335 34.6667H47.0835M24.3335 21.6667H67.6668" stroke="#080F2F" stroke-width="3" stroke-linecap="round"/>
</svg>
