<svg width="70" height="52" viewBox="0 0 70 52" fill="none" xmlns="http://www.w3.org/2000/svg">
<circle cx="18" cy="26" r="18" fill="#29AD33"/>
<path d="M22.333 25.9998C22.333 17.8293 22.333 13.743 24.8723 11.2058C27.4095 8.6665 31.4958 8.6665 39.6663 8.6665H48.333C56.5035 8.6665 60.5898 8.6665 63.127 11.2058C65.6663 13.743 65.6663 17.8293 65.6663 25.9998V30.3332C65.6663 38.5037 65.6663 42.59 63.127 45.1272C60.5898 47.6665 56.5035 47.6665 48.333 47.6665H39.6663C31.4958 47.6665 27.4095 47.6665 24.8723 45.1272C22.333 42.59 22.333 38.5037 22.333 30.3332V25.9998Z" stroke="#080F2F" stroke-width="3"/>
<path d="M33.1665 8.6665V5.4165M54.8332 8.6665V5.4165" stroke="#080F2F" stroke-width="3" stroke-linecap="round"/>
<path d="M53.75 39C55.5449 39 57 37.5449 57 35.75C57 33.9551 55.5449 32.5 53.75 32.5C51.9551 32.5 50.5 33.9551 50.5 35.75C50.5 37.5449 51.9551 39 53.75 39Z" stroke="#080F2F" stroke-width="3"/>
<path fill-rule="evenodd" clip-rule="evenodd" d="M21.9165 19.5C21.9165 18.6716 22.5881 18 23.4165 18H64.5832C65.4116 18 66.0832 18.6716 66.0832 19.5C66.0832 20.3284 65.4116 21 64.5832 21H23.4165C22.5881 21 21.9165 20.3284 21.9165 19.5Z" fill="#080F2F"/>
</svg>
