<svg width="66" height="52" viewBox="0 0 66 52" fill="none" xmlns="http://www.w3.org/2000/svg">
<circle cx="18" cy="26" r="18" fill="#29AD33"/>
<path d="M24.8335 18.4493C24.8335 10.6537 31.6238 4.3335 40.0002 4.3335C48.3765 4.3335 55.1668 10.6537 55.1668 18.4493C55.1668 26.1843 50.3265 35.2085 42.7735 38.4368C41.8963 38.809 40.9531 39.0009 40.0002 39.0009C39.0472 39.0009 38.1041 38.809 37.2268 38.4368C29.6738 35.2085 24.8335 26.1822 24.8335 18.4493Z" stroke="#080F2F" stroke-width="3"/>
<path d="M44.3337 19.5003C44.3337 20.6496 43.8771 21.7518 43.0645 22.5645C42.2518 23.3771 41.1496 23.8337 40.0003 23.8337C38.8511 23.8337 37.7489 23.3771 36.9362 22.5645C36.1235 21.7518 35.667 20.6496 35.667 19.5003C35.667 18.3511 36.1235 17.2489 36.9362 16.4362C37.7489 15.6235 38.8511 15.167 40.0003 15.167C41.1496 15.167 42.2518 15.6235 43.0645 16.4362C43.8771 17.2489 44.3337 18.3511 44.3337 19.5003Z" stroke="#080F2F" stroke-width="3"/>
<path d="M59.4135 33.5835C60.8565 34.8878 61.6668 36.3612 61.6668 37.9168C61.6668 43.301 51.9667 47.6668 40.0002 47.6668C28.0337 47.6668 18.3335 43.301 18.3335 37.9168C18.3335 36.3612 19.1438 34.8878 20.5868 33.5835" stroke="#080F2F" stroke-width="3" stroke-linecap="round"/>
</svg>
