<svg width="66" height="48" viewBox="0 0 66 48" fill="none" xmlns="http://www.w3.org/2000/svg">
<circle cx="18" cy="24" r="18" fill="#29AD33"/>
<path d="M54.3599 16.0802L55.2859 15.1522C56.0232 14.4147 57.0234 14.0002 58.0662 14C59.1091 13.9998 60.1094 14.4139 60.8469 15.1512C61.5845 15.8885 61.999 16.8886 61.9992 17.9315C61.9994 18.9744 61.5852 19.9747 60.8479 20.7122L59.9219 21.6402M54.3599 16.0802C54.3599 16.0802 54.4759 18.0482 56.2139 19.7862C57.9519 21.5242 59.9219 21.6402 59.9219 21.6402M54.3599 16.0802L45.8399 24.6002C45.2599 25.1762 44.9719 25.4662 44.7239 25.7842C44.4319 26.1602 44.1819 26.5642 43.9759 26.9962C43.8019 27.3602 43.6739 27.7462 43.4159 28.5202L42.5899 31.0002L42.3219 31.8022M59.9219 21.6402L51.4019 30.1602C50.8219 30.7402 50.5339 31.0282 50.2159 31.2762C49.8399 31.5682 49.4359 31.8182 49.0039 32.0242C48.6399 32.1982 48.2539 32.3262 47.4799 32.5842L44.9999 33.4102L44.1979 33.6782M42.3219 31.8022L42.0559 32.6062C41.994 32.7928 41.9852 32.993 42.0305 33.1844C42.0757 33.3757 42.1734 33.5507 42.3124 33.6897C42.4515 33.8288 42.6264 33.9264 42.8178 33.9717C43.0091 34.017 43.2093 34.0082 43.3959 33.9462L44.1979 33.6782M42.3219 31.8022L44.1979 33.6782" stroke="#080F2F" stroke-width="3"/>
<path d="M34 26H39M34 18H47M34 34H37M24 28V20C24 12.458 24 8.686 26.344 6.344C28.686 4 32.458 4 40 4H44C51.542 4 55.314 4 57.656 6.344M60 28C60 35.542 60 39.314 57.656 41.656M57.656 41.656C55.314 44 51.542 44 44 44H40C32.458 44 28.686 44 26.344 41.656M57.656 41.656C59.544 39.77 59.91 36.96 59.982 32" stroke="#080F2F" stroke-width="3" stroke-linecap="round"/>
</svg>
