<svg width="36" height="36" viewBox="0 0 36 36" fill="none" xmlns="http://www.w3.org/2000/svg">
<circle cx="18" cy="18" r="17.5" stroke="#464646"/>
<path fill-rule="evenodd" clip-rule="evenodd" d="M15.1875 15.75C15.1875 15.0041 15.4838 14.2887 16.0113 13.7613C16.5387 13.2338 17.2541 12.9375 18 12.9375C18.7459 12.9375 19.4613 13.2338 19.9887 13.7613C20.5162 14.2887 20.8125 15.0041 20.8125 15.75C20.8125 16.4959 20.5162 17.2113 19.9887 17.7387C19.4613 18.2662 18.7459 18.5625 18 18.5625C17.2541 18.5625 16.5387 18.2662 16.0113 17.7387C15.4838 17.2113 15.1875 16.4959 15.1875 15.75ZM18 14.0625C17.5524 14.0625 17.1232 14.2403 16.8068 14.5568C16.4903 14.8732 16.3125 15.3024 16.3125 15.75C16.3125 16.1976 16.4903 16.6268 16.8068 16.9432C17.1232 17.2597 17.5524 17.4375 18 17.4375C18.4476 17.4375 18.8768 17.2597 19.1932 16.9432C19.5097 16.6268 19.6875 16.1976 19.6875 15.75C19.6875 15.3024 19.5097 14.8732 19.1932 14.5568C18.8768 14.2403 18.4476 14.0625 18 14.0625Z" fill="white"/>
<path fill-rule="evenodd" clip-rule="evenodd" d="M13.0921 15.0952C13.1912 13.8939 13.7384 12.7737 14.6251 11.9572C15.5118 11.1406 16.6732 10.6874 17.8786 10.6875H18.1216C19.3271 10.6874 20.4885 11.1406 21.3752 11.9572C22.2619 12.7737 22.8091 13.8939 22.9081 15.0952C23.0182 16.4305 22.6057 17.7563 21.7576 18.7935L19.0614 22.0912C18.9328 22.2485 18.7709 22.3752 18.5874 22.4621C18.4038 22.5491 18.2032 22.5943 18.0001 22.5943C17.797 22.5943 17.5965 22.5491 17.4129 22.4621C17.2294 22.3752 17.0675 22.2485 16.9389 22.0912L14.2426 18.7935C13.3947 17.7565 12.9823 16.431 13.0921 15.096M17.8786 11.8132C16.9556 11.8131 16.0663 12.1602 15.3873 12.7854C14.7083 13.4106 14.2893 14.2684 14.2134 15.1882C14.1271 16.2332 14.4497 17.2708 15.1134 18.0825L17.8096 21.3795C17.9079 21.4995 18.0924 21.4995 18.1906 21.3795L20.8869 18.0825C21.5505 17.2708 21.8732 16.2332 21.7869 15.1882C21.711 14.2684 21.292 13.4106 20.613 12.7854C19.934 12.1602 19.0447 11.8131 18.1216 11.8132H17.8786Z" fill="white"/>
<path d="M14.7527 21.2517C14.7901 21.1853 14.8136 21.112 14.8219 21.0362C14.8301 20.9605 14.8228 20.8838 14.8005 20.811C14.7782 20.7381 14.7413 20.6705 14.6921 20.6123C14.6429 20.5541 14.5824 20.5066 14.5142 20.4725C14.446 20.4384 14.3717 20.4185 14.2956 20.4141C14.2195 20.4096 14.1433 20.4206 14.0716 20.4465C13.9999 20.4724 13.9343 20.5126 13.8786 20.5646C13.8229 20.6166 13.7784 20.6794 13.7477 20.7492L12.2477 23.7492C12.2049 23.8349 12.1847 23.9301 12.189 24.0258C12.1934 24.1215 12.222 24.2145 12.2724 24.296C12.3227 24.3775 12.393 24.4448 12.4766 24.4915C12.5603 24.5382 12.6544 24.5628 12.7502 24.563H23.2502C23.346 24.5628 23.4402 24.5382 23.5238 24.4915C23.6074 24.4448 23.6777 24.3775 23.728 24.296C23.7784 24.2145 23.8071 24.1215 23.8114 24.0258C23.8157 23.9301 23.7955 23.8349 23.7527 23.7492L22.2527 20.7492C22.222 20.6794 22.1775 20.6166 22.1218 20.5646C22.0661 20.5126 22.0005 20.4724 21.9288 20.4465C21.8571 20.4206 21.7809 20.4096 21.7048 20.4141C21.6288 20.4185 21.5544 20.4384 21.4862 20.4725C21.418 20.5066 21.3575 20.5541 21.3083 20.6123C21.2591 20.6705 21.2222 20.7381 21.1999 20.811C21.1776 20.8838 21.1703 20.9605 21.1786 21.0362C21.1868 21.112 21.2103 21.1853 21.2477 21.2517L22.3405 23.438H13.6607L14.7527 21.2517Z" fill="white"/>
</svg>
