<svg width="36" height="36" viewBox="0 0 36 36" fill="none" xmlns="http://www.w3.org/2000/svg">
<circle cx="18" cy="18" r="17.5" stroke="#464646"/>
<path fill-rule="evenodd" clip-rule="evenodd" d="M13.38 16.3918C14.7231 19.3156 17.1094 21.6326 20.0715 22.889L20.0805 22.8928L20.6535 23.1478C21.0074 23.3056 21.4049 23.3368 21.7791 23.2361C22.1533 23.1355 22.4815 22.9091 22.7085 22.595L23.664 21.2728C23.6921 21.2338 23.7042 21.1856 23.6977 21.138C23.6913 21.0904 23.6669 21.0471 23.6295 21.017L21.9615 19.6708C21.9418 19.6549 21.9191 19.6431 21.8948 19.6363C21.8704 19.6294 21.845 19.6275 21.8199 19.6307C21.7948 19.6339 21.7706 19.6422 21.7488 19.655C21.727 19.6678 21.708 19.6849 21.693 19.7053L21.0435 20.5813C20.967 20.6846 20.8574 20.7586 20.7329 20.791C20.6084 20.8233 20.4767 20.812 20.3595 20.759C18.1403 19.7537 16.3623 17.9757 15.357 15.7565C15.304 15.6393 15.2927 15.5076 15.325 15.3831C15.3574 15.2586 15.4314 15.149 15.5347 15.0725L16.41 14.4223C16.4303 14.4072 16.4474 14.3882 16.4602 14.3664C16.473 14.3446 16.4813 14.3204 16.4845 14.2954C16.4877 14.2703 16.4859 14.2448 16.479 14.2205C16.4721 14.1961 16.4604 14.1734 16.4445 14.1538L15.099 12.4858C15.0689 12.4484 15.0256 12.4239 14.978 12.4175C14.9304 12.4111 14.8822 12.4232 14.8432 12.4513L13.5135 13.4113C13.1973 13.6393 12.9698 13.9699 12.8697 14.3467C12.7697 14.7235 12.8031 15.1233 12.9645 15.4783L13.38 16.3918ZM19.6275 23.9225C16.4093 22.556 13.8169 20.0377 12.3577 16.8605L12.3562 16.859L11.9407 15.944C11.6718 15.3526 11.6159 14.6863 11.7826 14.0583C11.9493 13.4304 12.3282 12.8795 12.855 12.4993L14.1847 11.5393C14.4571 11.3427 14.7944 11.258 15.1273 11.3027C15.4602 11.3473 15.7633 11.5179 15.9742 11.7793L17.3205 13.448C17.4316 13.5857 17.5137 13.7444 17.5619 13.9146C17.6101 14.0848 17.6234 14.2631 17.601 14.4385C17.5786 14.614 17.5209 14.7832 17.4315 14.9358C17.342 15.0884 17.2226 15.2214 17.0805 15.3268L16.578 15.6988C17.4276 17.346 18.7692 18.6877 20.4165 19.5373L20.7892 19.0348C20.8946 18.8927 21.0275 18.7734 21.1801 18.6841C21.3327 18.5947 21.5017 18.5371 21.6771 18.5146C21.8525 18.4922 22.0306 18.5055 22.2008 18.5536C22.3709 18.6018 22.5296 18.6838 22.6672 18.7948L24.336 20.141C24.5976 20.352 24.7683 20.6552 24.8129 20.9883C24.8576 21.3213 24.7728 21.6589 24.576 21.9313L23.6205 23.2543C23.2423 23.7777 22.6954 24.155 22.0718 24.3229C21.4482 24.4907 20.7859 24.4389 20.196 24.176L19.6275 23.9225Z" fill="white"/>
</svg>
